<svg width="30" height="19" viewBox="0 0 30 19" fill="none" xmlns="http://www.w3.org/2000/svg">
<mask id="path-1-outside-1_86_1707" maskUnits="userSpaceOnUse" x="-1" y="-1" width="32" height="21" fill="black">
<rect fill="white" x="-1" y="-1" width="32" height="21"/>
<path d="M15.71 9.21C15.71 10.97 15.38 12.54 14.72 13.92C14.08 15.28 13.19 16.35 12.05 17.13C10.91 17.91 9.62 18.3 8.18 18.3C6.74 18.3 5.45 17.91 4.31 17.13C3.19 16.35 2.3 15.28 1.64 13.92C0.98 12.54 0.65 10.97 0.65 9.21C0.65 7.45 0.98 5.89 1.64 4.53C2.3 3.15 3.19 2.07 4.31 1.29C5.45 0.49 6.74 0.0899999 8.18 0.0899999C9.62 0.0899999 10.91 0.49 12.05 1.29C13.19 2.07 14.08 3.15 14.72 4.53C15.38 5.89 15.71 7.45 15.71 9.21ZM13.64 9.21C13.64 7.79 13.41 6.54 12.95 5.46C12.49 4.38 11.85 3.54 11.03 2.94C10.21 2.32 9.26 2.01 8.18 2.01C7.1 2.01 6.15 2.32 5.33 2.94C4.51 3.54 3.86 4.38 3.38 5.46C2.92 6.54 2.69 7.79 2.69 9.21C2.69 10.63 2.92 11.88 3.38 12.96C3.86 14.04 4.51 14.88 5.33 15.48C6.15 16.08 7.1 16.38 8.18 16.38C9.26 16.38 10.21 16.08 11.03 15.48C11.85 14.86 12.49 14.02 12.95 12.96C13.41 11.88 13.64 10.63 13.64 9.21ZM29.5491 16.14V18H19.3791V16.14H23.6391V3.3C23.4791 3.54 23.2091 3.8 22.8291 4.08C22.4491 4.36 22.0091 4.62 21.5091 4.86C21.0291 5.1 20.5491 5.3 20.0691 5.46C19.5891 5.62 19.1491 5.7 18.7491 5.7V3.72C19.2091 3.72 19.7091 3.59 20.2491 3.33C20.7891 3.07 21.3091 2.77 21.8091 2.43C22.3091 2.09 22.7291 1.77 23.0691 1.47C23.4091 1.17 23.5991 0.969999 23.6391 0.869999H25.7391V16.14H29.5491Z"/>
</mask>
<path d="M14.72 13.92L13.8178 13.4885L13.8152 13.4942L14.72 13.92ZM12.05 17.13L12.6147 17.9553L12.05 17.13ZM4.31 17.13L3.73849 17.9506L3.74532 17.9553L4.31 17.13ZM1.64 13.92L0.737851 14.3515L0.740344 14.3566L1.64 13.92ZM1.64 4.53L2.53967 4.9666L2.54213 4.96145L1.64 4.53ZM4.31 1.29L4.8815 2.11061L4.88443 2.10855L4.31 1.29ZM12.05 1.29L11.4755 2.10861L11.4853 2.1153L12.05 1.29ZM14.72 4.53L13.8128 4.95072L13.8165 4.95869L13.8203 4.9666L14.72 4.53ZM12.95 5.46L12.03 5.85186L12.95 5.46ZM11.03 2.94L10.4269 3.73766L10.4332 3.74239L10.4395 3.74703L11.03 2.94ZM5.33 2.94L5.92051 3.74703L5.92685 3.74239L5.93311 3.73766L5.33 2.94ZM3.38 5.46L2.46619 5.05386L2.46303 5.06098L2.45998 5.06814L3.38 5.46ZM3.38 12.96L2.45998 13.3519L2.46303 13.359L2.46619 13.3661L3.38 12.96ZM5.33 15.48L5.92051 14.673L5.33 15.48ZM11.03 15.48L11.6205 16.287L11.6268 16.2824L11.6331 16.2777L11.03 15.48ZM12.95 12.96L13.8674 13.3581L13.87 13.3519L12.95 12.96ZM14.71 9.21C14.71 10.8431 14.4044 12.2621 13.8179 13.4885L15.6221 14.3515C16.3556 12.8179 16.71 11.0969 16.71 9.21H14.71ZM13.8152 13.4942C13.2441 14.7078 12.4656 15.634 11.4853 16.3047L12.6147 17.9553C13.9144 17.066 14.9159 15.8522 15.6248 14.3458L13.8152 13.4942ZM11.4853 16.3047C10.519 16.9659 9.42755 17.3 8.18 17.3V19.3C9.81246 19.3 11.301 18.8541 12.6147 17.9553L11.4853 16.3047ZM8.18 17.3C6.93246 17.3 5.84102 16.9659 4.87468 16.3047L3.74532 17.9553C5.05898 18.8541 6.54755 19.3 8.18 19.3V17.3ZM4.88149 16.3094C3.91662 15.6374 3.13315 14.7064 2.53966 13.4834L0.740344 14.3566C1.46685 15.8536 2.46338 17.0626 3.73851 17.9506L4.88149 16.3094ZM2.54213 13.4885C1.9556 12.2621 1.65 10.8431 1.65 9.21H-0.35C-0.35 11.0969 0.00440252 12.8179 0.737866 14.3515L2.54213 13.4885ZM1.65 9.21C1.65 7.57648 1.95571 6.16987 2.53966 4.9666L0.740344 4.0934C0.00428653 5.61012 -0.35 7.32352 -0.35 9.21H1.65ZM2.54213 4.96145C3.13666 3.71836 3.92006 2.78017 4.88149 2.11061L3.73851 0.469393C2.45994 1.35983 1.46334 2.58164 0.737866 4.09854L2.54213 4.96145ZM4.88443 2.10855C5.85016 1.43084 6.93814 1.09 8.18 1.09V-0.91C6.54186 -0.91 5.04984 -0.450846 3.73557 0.471442L4.88443 2.10855ZM8.18 1.09C9.42186 1.09 10.5098 1.43084 11.4756 2.10855L12.6244 0.471442C11.3102 -0.450846 9.81814 -0.91 8.18 -0.91V1.09ZM11.4853 2.1153C12.4621 2.78362 13.2406 3.71692 13.8128 4.95072L15.6272 4.10927C14.9194 2.58307 13.9179 1.35638 12.6147 0.464692L11.4853 2.1153ZM13.8203 4.9666C14.4043 6.16987 14.71 7.57648 14.71 9.21H16.71C16.71 7.32352 16.3557 5.61012 15.6197 4.0934L13.8203 4.9666ZM14.64 9.21C14.64 7.68292 14.3926 6.29513 13.87 5.06814L12.03 5.85186C12.4274 6.78487 12.64 7.89708 12.64 9.21H14.64ZM13.87 5.06814C13.3506 3.84873 12.607 2.85479 11.6205 2.13297L10.4395 3.74703C11.093 4.22521 11.6294 4.91127 12.03 5.85186L13.87 5.06814ZM11.6331 2.14234C10.6303 1.38411 9.46592 1.01 8.18 1.01V3.01C9.05408 3.01 9.78971 3.25589 10.4269 3.73766L11.6331 2.14234ZM8.18 1.01C6.89408 1.01 5.72971 1.38411 4.72689 2.14234L5.93311 3.73766C6.57029 3.25589 7.30592 3.01 8.18 3.01V1.01ZM4.73949 2.13297C3.75703 2.85184 3.00542 3.84059 2.46619 5.05386L4.29381 5.86614C4.71458 4.9194 5.26297 4.22816 5.92051 3.74703L4.73949 2.13297ZM2.45998 5.06814C1.93737 6.29513 1.69 7.68292 1.69 9.21H3.69C3.69 7.89708 3.90263 6.78487 4.30002 5.85186L2.45998 5.06814ZM1.69 9.21C1.69 10.7371 1.93737 12.1249 2.45998 13.3519L4.30002 12.5681C3.90263 11.6351 3.69 10.5229 3.69 9.21H1.69ZM2.46619 13.3661C3.00542 14.5794 3.75703 15.5682 4.73949 16.287L5.92051 14.673C5.26297 14.1918 4.71458 13.5006 4.29381 12.5539L2.46619 13.3661ZM4.73949 16.287C5.74196 17.0205 6.90186 17.38 8.18 17.38V15.38C7.29814 15.38 6.55804 15.1395 5.92051 14.673L4.73949 16.287ZM8.18 17.38C9.45814 17.38 10.618 17.0205 11.6205 16.287L10.4395 14.673C9.80196 15.1395 9.06186 15.38 8.18 15.38V17.38ZM11.6331 16.2777C12.6069 15.5414 13.3474 14.5562 13.8673 13.3581L12.0327 12.5619C11.6326 13.4838 11.0931 14.1786 10.4269 14.6823L11.6331 16.2777ZM13.87 13.3519C14.3926 12.1249 14.64 10.7371 14.64 9.21H12.64C12.64 10.5229 12.4274 11.6351 12.03 12.5681L13.87 13.3519ZM29.5491 16.14H30.5491V15.14H29.5491V16.14ZM29.5491 18V19H30.5491V18H29.5491ZM19.3791 18H18.3791V19H19.3791V18ZM19.3791 16.14V15.14H18.3791V16.14H19.3791ZM23.6391 16.14V17.14H24.6391V16.14H23.6391ZM23.6391 3.3H24.6391V-0.00277424L22.8071 2.7453L23.6391 3.3ZM22.8291 4.08L23.4223 4.88506L22.8291 4.08ZM21.5091 4.86L21.0764 3.95848L21.0691 3.96197L21.0619 3.96557L21.5091 4.86ZM20.0691 5.46L20.3854 6.40868V6.40868L20.0691 5.46ZM18.7491 5.7H17.7491V6.7H18.7491V5.7ZM18.7491 3.72V2.72H17.7491V3.72H18.7491ZM20.2491 3.33L19.8153 2.429L20.2491 3.33ZM21.8091 2.43L21.2468 1.60307L21.2468 1.60307L21.8091 2.43ZM23.0691 1.47L23.7308 2.21984L23.7308 2.21984L23.0691 1.47ZM23.6391 0.869999V-0.130001H22.9621L22.7107 0.49861L23.6391 0.869999ZM25.7391 0.869999H26.7391V-0.130001H25.7391V0.869999ZM25.7391 16.14H24.7391V17.14H25.7391V16.14ZM28.5491 16.14V18H30.5491V16.14H28.5491ZM29.5491 17H19.3791V19H29.5491V17ZM20.3791 18V16.14H18.3791V18H20.3791ZM19.3791 17.14H23.6391V15.14H19.3791V17.14ZM24.6391 16.14V3.3H22.6391V16.14H24.6391ZM22.8071 2.7453C22.7395 2.84664 22.5741 3.02576 22.2359 3.27494L23.4223 4.88506C23.8442 4.57424 24.2188 4.23336 24.4712 3.8547L22.8071 2.7453ZM22.2359 3.27494C21.9141 3.51207 21.5295 3.74098 21.0764 3.95848L21.9419 5.76152C22.4888 5.49902 22.9842 5.20793 23.4223 4.88506L22.2359 3.27494ZM21.0619 3.96557C20.6217 4.18568 20.1854 4.36715 19.7529 4.51132L20.3854 6.40868C20.9129 6.23285 21.4366 6.01432 21.9564 5.75443L21.0619 3.96557ZM19.7529 4.51132C19.3491 4.64591 19.0175 4.7 18.7491 4.7V6.7C19.2808 6.7 19.8291 6.59409 20.3854 6.40868L19.7529 4.51132ZM19.7491 5.7V3.72H17.7491V5.7H19.7491ZM18.7491 4.72C19.3977 4.72 20.047 4.53719 20.683 4.231L19.8153 2.429C19.3713 2.64281 19.0206 2.72 18.7491 2.72V4.72ZM20.683 4.231C21.268 3.94933 21.8309 3.62452 22.3715 3.25692L21.2468 1.60307C20.7874 1.91548 20.3103 2.19066 19.8153 2.429L20.683 4.231ZM22.3715 3.25693C22.8955 2.90058 23.3509 2.55498 23.7308 2.21984L22.4075 0.720161C22.1073 0.98502 21.7228 1.27942 21.2468 1.60307L22.3715 3.25693ZM23.7308 2.21984C23.9107 2.06104 24.0678 1.91415 24.1916 1.78375C24.2784 1.69241 24.4675 1.49169 24.5676 1.24139L22.7107 0.49861C22.7335 0.441574 22.7565 0.402525 22.7672 0.385247C22.779 0.366214 22.787 0.355823 22.7874 0.355318C22.7882 0.354249 22.7852 0.358202 22.7769 0.367709C22.7688 0.377008 22.7573 0.389767 22.7416 0.40625C22.6755 0.475852 22.5675 0.578961 22.4075 0.720163L23.7308 2.21984ZM23.6391 1.87H25.7391V-0.130001H23.6391V1.87ZM24.7391 0.869999V16.14H26.7391V0.869999H24.7391ZM25.7391 17.14H29.5491V15.14H25.7391V17.14Z" fill="url(#paint0_linear_86_1707)" mask="url(#path-1-outside-1_86_1707)"/>
<defs>
<linearGradient id="paint0_linear_86_1707" x1="15" y1="-14" x2="15" y2="28" gradientUnits="userSpaceOnUse">
<stop stop-color="#3BB96D"/>
<stop offset="1" stop-color="#279A59"/>
</linearGradient>
</defs>
</svg>
