<svg width="32" height="19" viewBox="0 0 32 19" fill="none" xmlns="http://www.w3.org/2000/svg">
<mask id="path-1-outside-1_86_1712" maskUnits="userSpaceOnUse" x="-1" y="-1" width="34" height="21" fill="black">
<rect fill="white" x="-1" y="-1" width="34" height="21"/>
<path d="M15.71 9.21C15.71 10.97 15.38 12.54 14.72 13.92C14.08 15.28 13.19 16.35 12.05 17.13C10.91 17.91 9.62 18.3 8.18 18.3C6.74 18.3 5.45 17.91 4.31 17.13C3.19 16.35 2.3 15.28 1.64 13.92C0.98 12.54 0.65 10.97 0.65 9.21C0.65 7.45 0.98 5.89 1.64 4.53C2.3 3.15 3.19 2.07 4.31 1.29C5.45 0.49 6.74 0.0899999 8.18 0.0899999C9.62 0.0899999 10.91 0.49 12.05 1.29C13.19 2.07 14.08 3.15 14.72 4.53C15.38 5.89 15.71 7.45 15.71 9.21ZM13.64 9.21C13.64 7.79 13.41 6.54 12.95 5.46C12.49 4.38 11.85 3.54 11.03 2.94C10.21 2.32 9.26 2.01 8.18 2.01C7.1 2.01 6.15 2.32 5.33 2.94C4.51 3.54 3.86 4.38 3.38 5.46C2.92 6.54 2.69 7.79 2.69 9.21C2.69 10.63 2.92 11.88 3.38 12.96C3.86 14.04 4.51 14.88 5.33 15.48C6.15 16.08 7.1 16.38 8.18 16.38C9.26 16.38 10.21 16.08 11.03 15.48C11.85 14.86 12.49 14.02 12.95 12.96C13.41 11.88 13.64 10.63 13.64 9.21ZM18.6891 18C18.6891 17.32 18.7491 16.64 18.8691 15.96C18.9891 15.26 19.2191 14.57 19.5591 13.89C19.8991 13.21 20.3991 12.56 21.0591 11.94C21.7191 11.3 22.5891 10.7 23.6691 10.14C24.2491 9.84 24.8491 9.55 25.4691 9.27C26.0891 8.97 26.6691 8.65 27.2091 8.31C27.7691 7.95 28.2091 7.55 28.5291 7.11C28.8691 6.65 29.0391 6.11 29.0391 5.49C29.0391 4.99 28.8891 4.5 28.5891 4.02C28.3091 3.54 27.8691 3.15 27.2691 2.85C26.6891 2.55 25.9591 2.4 25.0791 2.4C24.4391 2.4 23.8591 2.49 23.3391 2.67C22.8191 2.85 22.3591 3.08 21.9591 3.36C21.5591 3.62 21.2191 3.89 20.9391 4.17C20.6591 4.43 20.4291 4.65 20.2491 4.83L18.9591 3.42C19.0591 3.3 19.2791 3.09 19.6191 2.79C19.9791 2.47 20.4291 2.14 20.9691 1.8C21.5291 1.46 22.1791 1.17 22.9191 0.93C23.6791 0.689999 24.5091 0.569999 25.4091 0.569999C26.6291 0.569999 27.6691 0.789999 28.5291 1.23C29.4091 1.65 30.0791 2.22 30.5391 2.94C30.9991 3.66 31.2291 4.44 31.2291 5.28C31.2291 6.1 31.0491 6.81 30.6891 7.41C30.3491 7.99 29.8991 8.5 29.3391 8.94C28.7991 9.36 28.2291 9.73 27.6291 10.05C27.0491 10.35 26.5191 10.61 26.0391 10.83C25.0991 11.27 24.3091 11.71 23.6691 12.15C23.0291 12.59 22.5191 13.04 22.1391 13.5C21.7591 13.94 21.4591 14.38 21.2391 14.82C21.0391 15.24 20.8991 15.68 20.8191 16.14H31.5591V18H18.6891Z"/>
</mask>
<path d="M14.72 13.92L13.8178 13.4885L13.8152 13.4942L14.72 13.92ZM12.05 17.13L12.6147 17.9553L12.05 17.13ZM4.31 17.13L3.73849 17.9506L3.74532 17.9553L4.31 17.13ZM1.64 13.92L0.737851 14.3515L0.740344 14.3566L1.64 13.92ZM1.64 4.53L2.53967 4.9666L2.54213 4.96145L1.64 4.53ZM4.31 1.29L4.8815 2.11061L4.88443 2.10855L4.31 1.29ZM12.05 1.29L11.4755 2.10861L11.4853 2.1153L12.05 1.29ZM14.72 4.53L13.8128 4.95072L13.8165 4.95869L13.8203 4.9666L14.72 4.53ZM12.95 5.46L12.03 5.85186L12.95 5.46ZM11.03 2.94L10.4269 3.73766L10.4332 3.74239L10.4395 3.74703L11.03 2.94ZM5.33 2.94L5.92051 3.74703L5.92685 3.74239L5.93311 3.73766L5.33 2.94ZM3.38 5.46L2.46619 5.05386L2.46303 5.06098L2.45998 5.06814L3.38 5.46ZM3.38 12.96L2.45998 13.3519L2.46303 13.359L2.46619 13.3661L3.38 12.96ZM5.33 15.48L5.92051 14.673L5.33 15.48ZM11.03 15.48L11.6205 16.287L11.6268 16.2824L11.6331 16.2777L11.03 15.48ZM12.95 12.96L13.8674 13.3581L13.87 13.3519L12.95 12.96ZM14.71 9.21C14.71 10.8431 14.4044 12.2621 13.8179 13.4885L15.6221 14.3515C16.3556 12.8179 16.71 11.0969 16.71 9.21H14.71ZM13.8152 13.4942C13.2441 14.7078 12.4656 15.634 11.4853 16.3047L12.6147 17.9553C13.9144 17.066 14.9159 15.8522 15.6248 14.3458L13.8152 13.4942ZM11.4853 16.3047C10.519 16.9659 9.42755 17.3 8.18 17.3V19.3C9.81246 19.3 11.301 18.8541 12.6147 17.9553L11.4853 16.3047ZM8.18 17.3C6.93246 17.3 5.84102 16.9659 4.87468 16.3047L3.74532 17.9553C5.05898 18.8541 6.54755 19.3 8.18 19.3V17.3ZM4.88149 16.3094C3.91662 15.6374 3.13315 14.7064 2.53966 13.4834L0.740344 14.3566C1.46685 15.8536 2.46338 17.0626 3.73851 17.9506L4.88149 16.3094ZM2.54213 13.4885C1.9556 12.2621 1.65 10.8431 1.65 9.21H-0.35C-0.35 11.0969 0.00440252 12.8179 0.737866 14.3515L2.54213 13.4885ZM1.65 9.21C1.65 7.57648 1.95571 6.16987 2.53966 4.9666L0.740344 4.0934C0.00428653 5.61012 -0.35 7.32352 -0.35 9.21H1.65ZM2.54213 4.96145C3.13666 3.71836 3.92006 2.78017 4.88149 2.11061L3.73851 0.469393C2.45994 1.35983 1.46334 2.58164 0.737866 4.09854L2.54213 4.96145ZM4.88443 2.10855C5.85016 1.43084 6.93814 1.09 8.18 1.09V-0.91C6.54186 -0.91 5.04984 -0.450846 3.73557 0.471442L4.88443 2.10855ZM8.18 1.09C9.42186 1.09 10.5098 1.43084 11.4756 2.10855L12.6244 0.471442C11.3102 -0.450846 9.81814 -0.91 8.18 -0.91V1.09ZM11.4853 2.1153C12.4621 2.78362 13.2406 3.71692 13.8128 4.95072L15.6272 4.10927C14.9194 2.58307 13.9179 1.35638 12.6147 0.464692L11.4853 2.1153ZM13.8203 4.9666C14.4043 6.16987 14.71 7.57648 14.71 9.21H16.71C16.71 7.32352 16.3557 5.61012 15.6197 4.0934L13.8203 4.9666ZM14.64 9.21C14.64 7.68292 14.3926 6.29513 13.87 5.06814L12.03 5.85186C12.4274 6.78487 12.64 7.89708 12.64 9.21H14.64ZM13.87 5.06814C13.3506 3.84873 12.607 2.85479 11.6205 2.13297L10.4395 3.74703C11.093 4.22521 11.6294 4.91127 12.03 5.85186L13.87 5.06814ZM11.6331 2.14234C10.6303 1.38411 9.46592 1.01 8.18 1.01V3.01C9.05408 3.01 9.78971 3.25589 10.4269 3.73766L11.6331 2.14234ZM8.18 1.01C6.89408 1.01 5.72971 1.38411 4.72689 2.14234L5.93311 3.73766C6.57029 3.25589 7.30592 3.01 8.18 3.01V1.01ZM4.73949 2.13297C3.75703 2.85184 3.00542 3.84059 2.46619 5.05386L4.29381 5.86614C4.71458 4.9194 5.26297 4.22816 5.92051 3.74703L4.73949 2.13297ZM2.45998 5.06814C1.93737 6.29513 1.69 7.68292 1.69 9.21H3.69C3.69 7.89708 3.90263 6.78487 4.30002 5.85186L2.45998 5.06814ZM1.69 9.21C1.69 10.7371 1.93737 12.1249 2.45998 13.3519L4.30002 12.5681C3.90263 11.6351 3.69 10.5229 3.69 9.21H1.69ZM2.46619 13.3661C3.00542 14.5794 3.75703 15.5682 4.73949 16.287L5.92051 14.673C5.26297 14.1918 4.71458 13.5006 4.29381 12.5539L2.46619 13.3661ZM4.73949 16.287C5.74196 17.0205 6.90186 17.38 8.18 17.38V15.38C7.29814 15.38 6.55804 15.1395 5.92051 14.673L4.73949 16.287ZM8.18 17.38C9.45814 17.38 10.618 17.0205 11.6205 16.287L10.4395 14.673C9.80196 15.1395 9.06186 15.38 8.18 15.38V17.38ZM11.6331 16.2777C12.6069 15.5414 13.3474 14.5562 13.8673 13.3581L12.0327 12.5619C11.6326 13.4838 11.0931 14.1786 10.4269 14.6823L11.6331 16.2777ZM13.87 13.3519C14.3926 12.1249 14.64 10.7371 14.64 9.21H12.64C12.64 10.5229 12.4274 11.6351 12.03 12.5681L13.87 13.3519ZM18.6891 18H17.6891V19H18.6891V18ZM18.8691 15.96L19.8539 16.1338L19.8548 16.129L18.8691 15.96ZM19.5591 13.89L20.4536 14.3372L19.5591 13.89ZM21.0591 11.94L21.7438 12.6688L21.7496 12.6634L21.7553 12.6579L21.0591 11.94ZM23.6691 10.14L23.2097 9.25178L23.2088 9.25224L23.6691 10.14ZM25.4691 9.27L25.8807 10.1814L25.8928 10.1759L25.9047 10.1702L25.4691 9.27ZM27.2091 8.31L27.742 9.15627L27.7499 9.15118L27.2091 8.31ZM28.5291 7.11L27.7249 6.51559L27.7204 6.52183L28.5291 7.11ZM28.5891 4.02L27.7254 4.52387L27.7331 4.53706L27.7411 4.55L28.5891 4.02ZM27.2691 2.85L26.8097 3.7383L26.8219 3.74443L27.2691 2.85ZM23.3391 2.67L23.6663 3.61498L23.3391 2.67ZM21.9591 3.36L22.5041 4.19844L22.5185 4.18908L22.5326 4.17923L21.9591 3.36ZM20.9391 4.17L21.6196 4.90279L21.6332 4.8902L21.6462 4.87711L20.9391 4.17ZM20.2491 4.83L19.5113 5.50501L20.217 6.27634L20.9562 5.53711L20.2491 4.83ZM18.9591 3.42L18.1909 2.77981L17.6319 3.45069L18.2213 4.09501L18.9591 3.42ZM19.6191 2.79L20.2808 3.53984L20.2835 3.53741L19.6191 2.79ZM20.9691 1.8L20.4502 0.945212L20.4432 0.949433L20.4363 0.953767L20.9691 1.8ZM22.9191 0.93L22.618 -0.0236111L22.6106 -0.0212231L22.9191 0.93ZM28.5291 1.23L28.0737 2.12025L28.086 2.12654L28.0984 2.13248L28.5291 1.23ZM30.5391 2.94L29.6964 3.47839L30.5391 2.94ZM30.6891 7.41L29.8316 6.89548L29.8264 6.90428L30.6891 7.41ZM29.3391 8.94L29.9531 9.72936L29.957 9.72632L29.3391 8.94ZM27.6291 10.05L28.0886 10.9383L28.0997 10.9324L27.6291 10.05ZM26.0391 10.83L25.6225 9.92091L25.6152 9.92431L26.0391 10.83ZM22.1391 13.5L22.896 14.1536L22.9031 14.1453L22.9101 14.1369L22.1391 13.5ZM21.2391 14.82L20.3447 14.3728L20.3404 14.3814L20.3363 14.3901L21.2391 14.82ZM20.8191 16.14L19.8339 15.9687L19.6302 17.14H20.8191V16.14ZM31.5591 16.14H32.5591V15.14H31.5591V16.14ZM31.5591 18V19H32.5591V18H31.5591ZM19.6891 18C19.6891 17.3792 19.7439 16.7573 19.8539 16.1338L17.8844 15.7862C17.7544 16.5227 17.6891 17.2608 17.6891 18H19.6891ZM19.8548 16.129C19.9571 15.5323 20.1544 14.9356 20.4536 14.3372L18.6647 13.4428C18.2839 14.2044 18.0212 14.9877 17.8835 15.791L19.8548 16.129ZM20.4536 14.3372C20.7318 13.7807 21.1538 13.2231 21.7438 12.6688L20.3745 11.2112C19.6445 11.8969 19.0665 12.6393 18.6647 13.4428L20.4536 14.3372ZM21.7553 12.6579C22.327 12.1035 23.1098 11.5565 24.1295 11.0278L23.2088 9.25224C22.0685 9.84352 21.1113 10.4965 20.363 11.2221L21.7553 12.6579ZM24.1286 11.0282C24.6922 10.7367 25.2762 10.4544 25.8807 10.1814L25.0576 8.35863C24.4221 8.64562 23.8061 8.94331 23.2097 9.25178L24.1286 11.0282ZM25.9047 10.1702C26.5555 9.85526 27.1682 9.51748 27.742 9.15623L26.6763 7.46377C26.1701 7.78252 25.6228 8.08474 25.0336 8.36984L25.9047 10.1702ZM27.7499 9.15118C28.3915 8.7387 28.9307 8.25802 29.3379 7.69817L27.7204 6.52183C27.4876 6.84197 27.1467 7.1613 26.6684 7.46882L27.7499 9.15118ZM29.3333 7.70439C29.8113 7.05765 30.0391 6.30499 30.0391 5.49H28.0391C28.0391 5.91501 27.9269 6.24236 27.725 6.51561L29.3333 7.70439ZM30.0391 5.49C30.0391 4.7787 29.823 4.10739 29.4371 3.49L27.7411 4.55C27.9553 4.89261 28.0391 5.2013 28.0391 5.49H30.0391ZM29.4529 3.51613C29.0563 2.83621 28.4538 2.3243 27.7164 1.95557L26.8219 3.74443C27.2845 3.9757 27.562 4.24379 27.7254 4.52387L29.4529 3.51613ZM27.7286 1.96178C26.9659 1.56731 26.066 1.4 25.0791 1.4V3.4C25.8523 3.4 26.4124 3.53269 26.8097 3.73822L27.7286 1.96178ZM25.0791 1.4C24.3456 1.4 23.6528 1.5032 23.012 1.72501L23.6663 3.61498C24.0655 3.4768 24.5327 3.4 25.0791 3.4V1.4ZM23.012 1.72501C22.4154 1.93154 21.8705 2.2014 21.3857 2.54077L22.5326 4.17923C22.8478 3.9586 23.2229 3.76846 23.6663 3.61498L23.012 1.72501ZM21.4142 2.52155C20.9671 2.81211 20.5702 3.12477 20.232 3.46289L21.6462 4.87711C21.8681 4.65523 22.1511 4.42789 22.5041 4.19844L21.4142 2.52155ZM20.2587 3.43721C19.9736 3.7019 19.7339 3.93102 19.542 4.12289L20.9562 5.53711C21.1244 5.36898 21.3446 5.1581 21.6196 4.90279L20.2587 3.43721ZM20.9869 4.15499L19.6969 2.74499L18.2213 4.09501L19.5113 5.50501L20.9869 4.15499ZM19.7274 4.06018C19.7705 4.00843 19.9324 3.84717 20.2808 3.53984L18.9575 2.04016C18.6258 2.33282 18.3478 2.59157 18.1909 2.77981L19.7274 4.06018ZM20.2835 3.53741C20.5917 3.26344 20.9945 2.96576 21.502 2.64623L20.4363 0.953767C19.8638 1.31424 19.3666 1.67656 18.9548 2.04259L20.2835 3.53741ZM21.4881 2.65479C21.971 2.36163 22.548 2.10165 23.2276 1.88122L22.6106 -0.0212231C21.8103 0.238351 21.0873 0.558367 20.4502 0.945212L21.4881 2.65479ZM23.2203 1.88358C23.8712 1.67803 24.5983 1.57 25.4091 1.57V-0.430001C24.42 -0.430001 23.4871 -0.298032 22.618 -0.0235825L23.2203 1.88358ZM25.4091 1.57C26.5114 1.57 27.3868 1.76885 28.0737 2.12025L28.9846 0.339751C27.9514 -0.18885 26.7469 -0.430001 25.4091 -0.430001V1.57ZM28.0984 2.13248C28.8341 2.48363 29.3507 2.93717 29.6964 3.47839L31.3818 2.40161C30.8076 1.50283 29.9841 0.816371 28.9599 0.327518L28.0984 2.13248ZM29.6964 3.47839C30.0556 4.04053 30.2291 4.63423 30.2291 5.28H32.2291C32.2291 4.24577 31.9427 3.27947 31.3818 2.40161L29.6964 3.47839ZM30.2291 5.28C30.2291 5.95028 30.0834 6.47589 29.8316 6.8955L31.5466 7.9245C32.0149 7.14411 32.2291 6.24972 32.2291 5.28H30.2291ZM29.8264 6.90428C29.5535 7.36994 29.1888 7.78641 28.7213 8.15368L29.957 9.72632C30.6095 9.21359 31.1448 8.61006 31.5518 7.91572L29.8264 6.90428ZM28.7252 8.15065C28.23 8.53583 27.7079 8.87466 27.1586 9.16765L28.0997 10.9324C28.7504 10.5853 29.3683 10.1842 29.9531 9.72935L28.7252 8.15065ZM27.1697 9.16178C26.6007 9.45612 26.0852 9.70887 25.6225 9.92093L26.4558 11.7391C26.9531 11.5111 27.4976 11.2439 28.0886 10.9382L27.1697 9.16178ZM25.6152 9.92431C24.6409 10.3804 23.8 10.8465 23.1026 11.326L24.2357 12.974C24.8183 12.5735 25.5574 12.1596 26.4631 11.7357L25.6152 9.92431ZM23.1026 11.326C22.4078 11.8036 21.822 12.3138 21.3682 12.8631L22.9101 14.1369C23.2163 13.7662 23.6505 13.3764 24.2357 12.974L23.1026 11.326ZM21.3823 12.8464C20.9576 13.3382 20.6078 13.8465 20.3447 14.3728L22.1336 15.2672C22.3104 14.9135 22.5607 14.5418 22.896 14.1536L21.3823 12.8464ZM20.3363 14.3901C20.0971 14.8924 19.9294 15.4195 19.8339 15.9687L21.8044 16.3113C21.8688 15.9405 21.9812 15.5876 22.142 15.2499L20.3363 14.3901ZM20.8191 17.14H31.5591V15.14H20.8191V17.14ZM30.5591 16.14V18H32.5591V16.14H30.5591ZM31.5591 17H18.6891V19H31.5591V17Z" fill="url(#paint0_linear_86_1712)" mask="url(#path-1-outside-1_86_1712)"/>
<defs>
<linearGradient id="paint0_linear_86_1712" x1="16.5" y1="-14" x2="16.5" y2="28" gradientUnits="userSpaceOnUse">
<stop stop-color="#3BB96D"/>
<stop offset="1" stop-color="#279A59"/>
</linearGradient>
</defs>
</svg>
