<svg width="32" height="23" viewBox="0 0 32 23" fill="none" xmlns="http://www.w3.org/2000/svg">
<mask id="path-1-outside-1_86_1715" maskUnits="userSpaceOnUse" x="-1" y="-1" width="35" height="25" fill="black">
<rect fill="white" x="-1" y="-1" width="35" height="25"/>
<path d="M15.71 9.21C15.71 10.97 15.38 12.54 14.72 13.92C14.08 15.28 13.19 16.35 12.05 17.13C10.91 17.91 9.62 18.3 8.18 18.3C6.74 18.3 5.45 17.91 4.31 17.13C3.19 16.35 2.3 15.28 1.64 13.92C0.98 12.54 0.65 10.97 0.65 9.21C0.65 7.45 0.98 5.89 1.64 4.53C2.3 3.15 3.19 2.07 4.31 1.29C5.45 0.49 6.74 0.0899999 8.18 0.0899999C9.62 0.0899999 10.91 0.49 12.05 1.29C13.19 2.07 14.08 3.15 14.72 4.53C15.38 5.89 15.71 7.45 15.71 9.21ZM13.64 9.21C13.64 7.79 13.41 6.54 12.95 5.46C12.49 4.38 11.85 3.54 11.03 2.94C10.21 2.32 9.26 2.01 8.18 2.01C7.1 2.01 6.15 2.32 5.33 2.94C4.51 3.54 3.86 4.38 3.38 5.46C2.92 6.54 2.69 7.79 2.69 9.21C2.69 10.63 2.92 11.88 3.38 12.96C3.86 14.04 4.51 14.88 5.33 15.48C6.15 16.08 7.1 16.38 8.18 16.38C9.26 16.38 10.21 16.08 11.03 15.48C11.85 14.86 12.49 14.02 12.95 12.96C13.41 11.88 13.64 10.63 13.64 9.21ZM27.6591 10.92C28.5591 11.06 29.3291 11.38 29.9691 11.88C30.6091 12.38 31.1091 13.01 31.4691 13.77C31.8291 14.53 32.0091 15.39 32.0091 16.35C32.0091 17.55 31.7191 18.61 31.1391 19.53C30.5591 20.45 29.7491 21.16 28.7091 21.66C27.6691 22.16 26.4591 22.41 25.0791 22.41C23.5591 22.41 22.2291 22.1 21.0891 21.48C19.9491 20.88 19.0891 20.04 18.5091 18.96L19.9191 17.67C20.3591 18.53 21.0091 19.22 21.8691 19.74C22.7291 20.28 23.7991 20.55 25.0791 20.55C26.5591 20.55 27.7291 20.18 28.5891 19.44C29.4691 18.72 29.9091 17.68 29.9091 16.32C29.9091 14.96 29.4491 13.88 28.5291 13.08C27.6291 12.26 26.3391 11.85 24.6591 11.85H23.9091V10.11H24.7191C26.2591 10.11 27.4391 9.75 28.2591 9.03C29.0791 8.31 29.4891 7.39 29.4891 6.27C29.4891 5.45 29.2991 4.77 28.9191 4.23C28.5391 3.69 28.0191 3.28 27.3591 3C26.7191 2.72 25.9791 2.58 25.1391 2.58C23.9991 2.58 22.9891 2.84 22.1091 3.36C21.2491 3.86 20.5991 4.56 20.1591 5.46L18.8391 4.2C19.1791 3.5 19.6691 2.89 20.3091 2.37C20.9491 1.85 21.6991 1.45 22.5591 1.17C23.4191 0.869999 24.3391 0.719999 25.3191 0.719999C26.5591 0.719999 27.6491 0.949999 28.5891 1.41C29.5291 1.85 30.2691 2.47 30.8091 3.27C31.3491 4.07 31.6191 5.01 31.6191 6.09C31.6191 6.89 31.4591 7.63 31.1391 8.31C30.8191 8.99 30.3591 9.56 29.7591 10.02C29.1791 10.48 28.4791 10.78 27.6591 10.92Z"/>
</mask>
<path d="M14.72 13.92L13.8178 13.4885L13.8152 13.4942L14.72 13.92ZM12.05 17.13L12.6147 17.9553L12.05 17.13ZM4.31 17.13L3.73849 17.9506L3.74532 17.9553L4.31 17.13ZM1.64 13.92L0.737851 14.3515L0.740344 14.3566L1.64 13.92ZM1.64 4.53L2.53967 4.9666L2.54213 4.96145L1.64 4.53ZM4.31 1.29L4.8815 2.11061L4.88443 2.10855L4.31 1.29ZM12.05 1.29L11.4755 2.10861L11.4853 2.1153L12.05 1.29ZM14.72 4.53L13.8128 4.95072L13.8165 4.95869L13.8203 4.9666L14.72 4.53ZM12.95 5.46L12.03 5.85186L12.95 5.46ZM11.03 2.94L10.4269 3.73766L10.4332 3.74239L10.4395 3.74703L11.03 2.94ZM5.33 2.94L5.92051 3.74703L5.92685 3.74239L5.93311 3.73766L5.33 2.94ZM3.38 5.46L2.46619 5.05386L2.46303 5.06098L2.45998 5.06814L3.38 5.46ZM3.38 12.96L2.45998 13.3519L2.46303 13.359L2.46619 13.3661L3.38 12.96ZM5.33 15.48L5.92051 14.673L5.33 15.48ZM11.03 15.48L11.6205 16.287L11.6268 16.2824L11.6331 16.2777L11.03 15.48ZM12.95 12.96L13.8674 13.3581L13.87 13.3519L12.95 12.96ZM14.71 9.21C14.71 10.8431 14.4044 12.2621 13.8179 13.4885L15.6221 14.3515C16.3556 12.8179 16.71 11.0969 16.71 9.21H14.71ZM13.8152 13.4942C13.2441 14.7078 12.4656 15.634 11.4853 16.3047L12.6147 17.9553C13.9144 17.066 14.9159 15.8522 15.6248 14.3458L13.8152 13.4942ZM11.4853 16.3047C10.519 16.9659 9.42755 17.3 8.18 17.3V19.3C9.81246 19.3 11.301 18.8541 12.6147 17.9553L11.4853 16.3047ZM8.18 17.3C6.93246 17.3 5.84102 16.9659 4.87468 16.3047L3.74532 17.9553C5.05898 18.8541 6.54755 19.3 8.18 19.3V17.3ZM4.88149 16.3094C3.91662 15.6374 3.13315 14.7064 2.53966 13.4834L0.740344 14.3566C1.46685 15.8536 2.46338 17.0626 3.73851 17.9506L4.88149 16.3094ZM2.54213 13.4885C1.9556 12.2621 1.65 10.8431 1.65 9.21H-0.35C-0.35 11.0969 0.00440252 12.8179 0.737866 14.3515L2.54213 13.4885ZM1.65 9.21C1.65 7.57648 1.95571 6.16987 2.53966 4.9666L0.740344 4.0934C0.00428653 5.61012 -0.35 7.32352 -0.35 9.21H1.65ZM2.54213 4.96145C3.13666 3.71836 3.92006 2.78017 4.88149 2.11061L3.73851 0.469393C2.45994 1.35983 1.46334 2.58164 0.737866 4.09854L2.54213 4.96145ZM4.88443 2.10855C5.85016 1.43084 6.93814 1.09 8.18 1.09V-0.91C6.54186 -0.91 5.04984 -0.450846 3.73557 0.471442L4.88443 2.10855ZM8.18 1.09C9.42186 1.09 10.5098 1.43084 11.4756 2.10855L12.6244 0.471442C11.3102 -0.450846 9.81814 -0.91 8.18 -0.91V1.09ZM11.4853 2.1153C12.4621 2.78362 13.2406 3.71692 13.8128 4.95072L15.6272 4.10927C14.9194 2.58307 13.9179 1.35638 12.6147 0.464692L11.4853 2.1153ZM13.8203 4.9666C14.4043 6.16987 14.71 7.57648 14.71 9.21H16.71C16.71 7.32352 16.3557 5.61012 15.6197 4.0934L13.8203 4.9666ZM14.64 9.21C14.64 7.68292 14.3926 6.29513 13.87 5.06814L12.03 5.85186C12.4274 6.78487 12.64 7.89708 12.64 9.21H14.64ZM13.87 5.06814C13.3506 3.84873 12.607 2.85479 11.6205 2.13297L10.4395 3.74703C11.093 4.22521 11.6294 4.91127 12.03 5.85186L13.87 5.06814ZM11.6331 2.14234C10.6303 1.38411 9.46592 1.01 8.18 1.01V3.01C9.05408 3.01 9.78971 3.25589 10.4269 3.73766L11.6331 2.14234ZM8.18 1.01C6.89408 1.01 5.72971 1.38411 4.72689 2.14234L5.93311 3.73766C6.57029 3.25589 7.30592 3.01 8.18 3.01V1.01ZM4.73949 2.13297C3.75703 2.85184 3.00542 3.84059 2.46619 5.05386L4.29381 5.86614C4.71458 4.9194 5.26297 4.22816 5.92051 3.74703L4.73949 2.13297ZM2.45998 5.06814C1.93737 6.29513 1.69 7.68292 1.69 9.21H3.69C3.69 7.89708 3.90263 6.78487 4.30002 5.85186L2.45998 5.06814ZM1.69 9.21C1.69 10.7371 1.93737 12.1249 2.45998 13.3519L4.30002 12.5681C3.90263 11.6351 3.69 10.5229 3.69 9.21H1.69ZM2.46619 13.3661C3.00542 14.5794 3.75703 15.5682 4.73949 16.287L5.92051 14.673C5.26297 14.1918 4.71458 13.5006 4.29381 12.5539L2.46619 13.3661ZM4.73949 16.287C5.74196 17.0205 6.90186 17.38 8.18 17.38V15.38C7.29814 15.38 6.55804 15.1395 5.92051 14.673L4.73949 16.287ZM8.18 17.38C9.45814 17.38 10.618 17.0205 11.6205 16.287L10.4395 14.673C9.80196 15.1395 9.06186 15.38 8.18 15.38V17.38ZM11.6331 16.2777C12.6069 15.5414 13.3474 14.5562 13.8673 13.3581L12.0327 12.5619C11.6326 13.4838 11.0931 14.1786 10.4269 14.6823L11.6331 16.2777ZM13.87 13.3519C14.3926 12.1249 14.64 10.7371 14.64 9.21H12.64C12.64 10.5229 12.4274 11.6351 12.03 12.5681L13.87 13.3519ZM27.6591 10.92L27.4908 9.93426L27.5054 11.9081L27.6591 10.92ZM31.4691 13.77L30.5654 14.1981L31.4691 13.77ZM31.1391 19.53L31.9851 20.0633L31.1391 19.53ZM28.7091 21.66L29.1424 22.5613L28.7091 21.66ZM21.0891 21.48L21.567 20.6014L21.5549 20.5951L21.0891 21.48ZM18.5091 18.96L17.8341 18.2222L17.2599 18.7475L17.6281 19.4331L18.5091 18.96ZM19.9191 17.67L20.8094 17.2145L20.2119 16.0468L19.2441 16.9322L19.9191 17.67ZM21.8691 19.74L22.4009 18.8931L22.3938 18.8886L22.3866 18.8843L21.8691 19.74ZM28.5891 19.44L27.9559 18.666L27.9463 18.6739L27.9369 18.682L28.5891 19.44ZM28.5291 13.08L27.8556 13.8192L27.8642 13.827L27.873 13.8346L28.5291 13.08ZM23.9091 11.85H22.9091V12.85H23.9091V11.85ZM23.9091 10.11V9.11H22.9091V10.11H23.9091ZM28.2591 9.03L27.5993 8.27856H27.5993L28.2591 9.03ZM27.3591 3L26.9583 3.91621L26.9686 3.92058L27.3591 3ZM22.1091 3.36L22.6118 4.22453L22.6179 4.22093L22.1091 3.36ZM20.1591 5.46L19.4687 6.18336L20.4573 7.12702L21.0575 5.89921L20.1591 5.46ZM18.8391 4.2L17.9396 3.7631L17.6208 4.41949L18.1487 4.92336L18.8391 4.2ZM20.3091 2.37L20.9397 3.14611L20.3091 2.37ZM22.5591 1.17L22.8687 2.12087L22.8787 2.11764L22.8885 2.1142L22.5591 1.17ZM28.5891 1.41L28.1496 2.30822L28.1574 2.31202L28.1652 2.31569L28.5891 1.41ZM30.8091 3.27L29.9803 3.82947H29.9803L30.8091 3.27ZM29.7591 10.02L29.1507 9.22639L29.1442 9.23139L29.1377 9.2365L29.7591 10.02ZM27.5054 11.9081C28.2578 12.0251 28.8636 12.2853 29.3535 12.668L30.5848 11.092C29.7947 10.4747 28.8605 10.0949 27.8128 9.93188L27.5054 11.9081ZM29.3535 12.668C29.8663 13.0687 30.2696 13.5737 30.5654 14.1981L32.3729 13.3419C31.9486 12.4463 31.352 11.6913 30.5848 11.092L29.3535 12.668ZM30.5654 14.1981C30.8536 14.8065 31.0091 15.5171 31.0091 16.35H33.0091C33.0091 15.2629 32.8047 14.2535 32.3729 13.3419L30.5654 14.1981ZM31.0091 16.35C31.0091 17.3814 30.7623 18.2526 30.2932 18.9967L31.9851 20.0633C32.676 18.9674 33.0091 17.7186 33.0091 16.35H31.0091ZM30.2932 18.9967C29.8197 19.7479 29.1573 20.335 28.2758 20.7587L29.1424 22.5613C30.341 21.985 31.2986 21.1521 31.9851 20.0633L30.2932 18.9967ZM28.2758 20.7587C27.395 21.1822 26.3382 21.41 25.0791 21.41V23.41C26.5801 23.41 27.9433 23.1378 29.1424 22.5613L28.2758 20.7587ZM25.0791 21.41C23.6974 21.41 22.537 21.1291 21.5669 20.6015L20.6114 22.3585C21.9213 23.0709 23.4209 23.41 25.0791 23.41V21.41ZM21.5549 20.5951C20.5818 20.0829 19.8709 19.3821 19.3901 18.4869L17.6281 19.4331C18.3074 20.6979 19.3165 21.6771 20.6234 22.3649L21.5549 20.5951ZM19.1842 19.6978L20.5942 18.4078L19.2441 16.9322L17.8341 18.2222L19.1842 19.6978ZM19.0289 18.1255C19.5571 19.1578 20.3394 19.9836 21.3517 20.5957L22.3866 18.8843C21.6789 18.4564 21.1612 17.9022 20.8094 17.2145L19.0289 18.1255ZM21.3374 20.5869C22.3934 21.25 23.6597 21.55 25.0791 21.55V19.55C23.9386 19.55 23.0649 19.31 22.4009 18.8931L21.3374 20.5869ZM25.0791 21.55C26.7243 21.55 28.1506 21.1366 29.2414 20.198L27.9369 18.682C27.3076 19.2234 26.394 19.55 25.0791 19.55V21.55ZM29.2224 20.214C30.3806 19.2663 30.9091 17.9148 30.9091 16.32H28.9091C28.9091 17.4452 28.5576 18.1737 27.9559 18.666L29.2224 20.214ZM30.9091 16.32C30.9091 14.708 30.3505 13.3386 29.1853 12.3254L27.873 13.8346C28.5478 14.4214 28.9091 15.212 28.9091 16.32H30.9091ZM29.2026 12.3408C28.0585 11.2983 26.4931 10.85 24.6591 10.85V12.85C26.1852 12.85 27.1998 13.2217 27.8556 13.8192L29.2026 12.3408ZM24.6591 10.85H23.9091V12.85H24.6591V10.85ZM24.9091 11.85V10.11H22.9091V11.85H24.9091ZM23.9091 11.11H24.7191V9.11H23.9091V11.11ZM24.7191 11.11C26.4028 11.11 27.8537 10.7168 28.9189 9.78144L27.5993 8.27856C27.0246 8.78321 26.1155 9.11 24.7191 9.11V11.11ZM28.9189 9.78144C29.9616 8.86592 30.4891 7.66909 30.4891 6.27H28.4891C28.4891 7.11091 28.1967 7.75407 27.5993 8.27856L28.9189 9.78144ZM30.4891 6.27C30.4891 5.29429 30.2615 4.39993 29.7369 3.65451L28.1013 4.80549C28.3368 5.14007 28.4891 5.60571 28.4891 6.27H30.4891ZM29.7369 3.65451C29.2403 2.94881 28.5662 2.42583 27.7497 2.07942L26.9686 3.92058C27.4721 4.13417 27.8379 4.43119 28.1013 4.80549L29.7369 3.65451ZM27.76 2.08384C26.9707 1.73853 26.0897 1.58 25.1391 1.58V3.58C25.8686 3.58 26.4676 3.70147 26.9583 3.91616L27.76 2.08384ZM25.1391 1.58C23.8413 1.58 22.6517 1.87784 21.6004 2.49907L22.6179 4.22093C23.3265 3.80216 24.157 3.58 25.1391 3.58V1.58ZM21.6065 2.49549C20.5741 3.09571 19.787 3.94432 19.2608 5.02079L21.0575 5.89921C21.4113 5.17568 21.9241 4.62428 22.6118 4.22451L21.6065 2.49549ZM20.8496 4.73664L19.5296 3.47664L18.1487 4.92336L19.4687 6.18336L20.8496 4.73664ZM19.7386 4.6369C20.0111 4.07602 20.4062 3.57964 20.9397 3.14611L19.6785 1.59389C18.9321 2.20036 18.3472 2.92397 17.9396 3.7631L19.7386 4.6369ZM20.9397 3.14611C21.4756 2.71076 22.1142 2.36652 22.8687 2.12087L22.2496 0.219127C21.284 0.53348 20.4227 0.989239 19.6785 1.59389L20.9397 3.14611ZM22.8885 2.1142C23.6349 1.85385 24.4427 1.72 25.3191 1.72V-0.280001C24.2355 -0.280001 23.2034 -0.113849 22.2298 0.225799L22.8885 2.1142ZM25.3191 1.72C26.4347 1.72 27.3695 1.92647 28.1496 2.30822L29.0287 0.511783C27.9288 -0.026474 26.6836 -0.280001 25.3191 -0.280001V1.72ZM28.1652 2.31569C28.9542 2.68501 29.5491 3.19066 29.9803 3.82947L31.638 2.71053C30.9892 1.74934 30.1041 1.01499 29.0131 0.504309L28.1652 2.31569ZM29.9803 3.82947C30.3957 4.44493 30.6191 5.18477 30.6191 6.09H32.6191C32.6191 4.83523 32.3026 3.69507 31.638 2.71053L29.9803 3.82947ZM30.6191 6.09C30.6191 6.75248 30.4876 7.3459 30.2343 7.8842L32.044 8.7358C32.4306 7.9141 32.6191 7.02752 32.6191 6.09H30.6191ZM30.2343 7.8842C29.9828 8.41879 29.6248 8.86296 29.1507 9.22639L30.3676 10.8136C31.0935 10.257 31.6555 9.56121 32.044 8.7358L30.2343 7.8842ZM29.1377 9.2365C28.705 9.57971 28.166 9.81898 27.4908 9.93426L27.8274 11.9057C28.7922 11.741 29.6533 11.3803 30.3805 10.8035L29.1377 9.2365Z" fill="url(#paint0_linear_86_1715)" mask="url(#path-1-outside-1_86_1715)"/>
<defs>
<linearGradient id="paint0_linear_86_1715" x1="16.5" y1="-14" x2="16.5" y2="28" gradientUnits="userSpaceOnUse">
<stop stop-color="#3BB96D"/>
<stop offset="1" stop-color="#279A59"/>
</linearGradient>
</defs>
</svg>
