<svg width="33" height="23" viewBox="0 0 33 23" fill="none" xmlns="http://www.w3.org/2000/svg">
<mask id="path-1-outside-1_86_1721" maskUnits="userSpaceOnUse" x="-1" y="-1" width="35" height="25" fill="black">
<rect fill="white" x="-1" y="-1" width="35" height="25"/>
<path d="M15.71 9.21C15.71 10.97 15.38 12.54 14.72 13.92C14.08 15.28 13.19 16.35 12.05 17.13C10.91 17.91 9.62 18.3 8.18 18.3C6.74 18.3 5.45 17.91 4.31 17.13C3.19 16.35 2.3 15.28 1.64 13.92C0.98 12.54 0.65 10.97 0.65 9.21C0.65 7.45 0.98 5.89 1.64 4.53C2.3 3.15 3.19 2.07 4.31 1.29C5.45 0.49 6.74 0.0899999 8.18 0.0899999C9.62 0.0899999 10.91 0.49 12.05 1.29C13.19 2.07 14.08 3.15 14.72 4.53C15.38 5.89 15.71 7.45 15.71 9.21ZM13.64 9.21C13.64 7.79 13.41 6.54 12.95 5.46C12.49 4.38 11.85 3.54 11.03 2.94C10.21 2.32 9.26 2.01 8.18 2.01C7.1 2.01 6.15 2.32 5.33 2.94C4.51 3.54 3.86 4.38 3.38 5.46C2.92 6.54 2.69 7.79 2.69 9.21C2.69 10.63 2.92 11.88 3.38 12.96C3.86 14.04 4.51 14.88 5.33 15.48C6.15 16.08 7.1 16.38 8.18 16.38C9.26 16.38 10.21 16.08 11.03 15.48C11.85 14.86 12.49 14.02 12.95 12.96C13.41 11.88 13.64 10.63 13.64 9.21ZM25.2291 22.47C23.7291 22.47 22.3691 22.09 21.1491 21.33C19.9291 20.59 19.0191 19.61 18.4191 18.39L19.7691 17.37C20.3291 18.35 21.0891 19.14 22.0491 19.74C23.0291 20.34 24.0991 20.64 25.2591 20.64C26.2591 20.64 27.1491 20.42 27.9291 19.98C28.7291 19.54 29.3591 18.93 29.8191 18.15C30.2991 17.37 30.5391 16.47 30.5391 15.45C30.5391 14.47 30.3091 13.61 29.8491 12.87C29.4091 12.11 28.7991 11.52 28.0191 11.1C27.2591 10.68 26.3991 10.47 25.4391 10.47C24.5191 10.47 23.6391 10.68 22.7991 11.1C21.9591 11.5 21.2791 12.09 20.7591 12.87H18.8691L21.2391 0.869999H31.5291V2.76H22.7691L21.2991 10.41C21.8191 9.85 22.4591 9.42 23.2191 9.12C23.9791 8.8 24.7991 8.64 25.6791 8.64C26.9791 8.64 28.1491 8.93 29.1891 9.51C30.2491 10.09 31.0891 10.89 31.7091 11.91C32.3291 12.93 32.6391 14.1 32.6391 15.42C32.6391 16.82 32.2991 18.05 31.6191 19.11C30.9591 20.17 30.0691 20.99 28.9491 21.57C27.8291 22.17 26.5891 22.47 25.2291 22.47Z"/>
</mask>
<path d="M14.72 13.92L13.8178 13.4885L13.8152 13.4942L14.72 13.92ZM12.05 17.13L12.6147 17.9553L12.05 17.13ZM4.31 17.13L3.73849 17.9506L3.74532 17.9553L4.31 17.13ZM1.64 13.92L0.737851 14.3515L0.740344 14.3566L1.64 13.92ZM1.64 4.53L2.53967 4.9666L2.54213 4.96145L1.64 4.53ZM4.31 1.29L4.8815 2.11061L4.88443 2.10855L4.31 1.29ZM12.05 1.29L11.4755 2.10861L11.4853 2.1153L12.05 1.29ZM14.72 4.53L13.8128 4.95072L13.8165 4.95869L13.8203 4.9666L14.72 4.53ZM12.95 5.46L12.03 5.85186L12.95 5.46ZM11.03 2.94L10.4269 3.73766L10.4332 3.74239L10.4395 3.74703L11.03 2.94ZM5.33 2.94L5.92051 3.74703L5.92685 3.74239L5.93311 3.73766L5.33 2.94ZM3.38 5.46L2.46619 5.05386L2.46303 5.06098L2.45998 5.06814L3.38 5.46ZM3.38 12.96L2.45998 13.3519L2.46303 13.359L2.46619 13.3661L3.38 12.96ZM5.33 15.48L5.92051 14.673L5.33 15.48ZM11.03 15.48L11.6205 16.287L11.6268 16.2824L11.6331 16.2777L11.03 15.48ZM12.95 12.96L13.8674 13.3581L13.87 13.3519L12.95 12.96ZM14.71 9.21C14.71 10.8431 14.4044 12.2621 13.8179 13.4885L15.6221 14.3515C16.3556 12.8179 16.71 11.0969 16.71 9.21H14.71ZM13.8152 13.4942C13.2441 14.7078 12.4656 15.634 11.4853 16.3047L12.6147 17.9553C13.9144 17.066 14.9159 15.8522 15.6248 14.3458L13.8152 13.4942ZM11.4853 16.3047C10.519 16.9659 9.42755 17.3 8.18 17.3V19.3C9.81246 19.3 11.301 18.8541 12.6147 17.9553L11.4853 16.3047ZM8.18 17.3C6.93246 17.3 5.84102 16.9659 4.87468 16.3047L3.74532 17.9553C5.05898 18.8541 6.54755 19.3 8.18 19.3V17.3ZM4.88149 16.3094C3.91662 15.6374 3.13315 14.7064 2.53966 13.4834L0.740344 14.3566C1.46685 15.8536 2.46338 17.0626 3.73851 17.9506L4.88149 16.3094ZM2.54213 13.4885C1.9556 12.2621 1.65 10.8431 1.65 9.21H-0.35C-0.35 11.0969 0.00440252 12.8179 0.737866 14.3515L2.54213 13.4885ZM1.65 9.21C1.65 7.57648 1.95571 6.16987 2.53966 4.9666L0.740344 4.0934C0.00428653 5.61012 -0.35 7.32352 -0.35 9.21H1.65ZM2.54213 4.96145C3.13666 3.71836 3.92006 2.78017 4.88149 2.11061L3.73851 0.469393C2.45994 1.35983 1.46334 2.58164 0.737866 4.09854L2.54213 4.96145ZM4.88443 2.10855C5.85016 1.43084 6.93814 1.09 8.18 1.09V-0.91C6.54186 -0.91 5.04984 -0.450846 3.73557 0.471442L4.88443 2.10855ZM8.18 1.09C9.42186 1.09 10.5098 1.43084 11.4756 2.10855L12.6244 0.471442C11.3102 -0.450846 9.81814 -0.91 8.18 -0.91V1.09ZM11.4853 2.1153C12.4621 2.78362 13.2406 3.71692 13.8128 4.95072L15.6272 4.10927C14.9194 2.58307 13.9179 1.35638 12.6147 0.464692L11.4853 2.1153ZM13.8203 4.9666C14.4043 6.16987 14.71 7.57648 14.71 9.21H16.71C16.71 7.32352 16.3557 5.61012 15.6197 4.0934L13.8203 4.9666ZM14.64 9.21C14.64 7.68292 14.3926 6.29513 13.87 5.06814L12.03 5.85186C12.4274 6.78487 12.64 7.89708 12.64 9.21H14.64ZM13.87 5.06814C13.3506 3.84873 12.607 2.85479 11.6205 2.13297L10.4395 3.74703C11.093 4.22521 11.6294 4.91127 12.03 5.85186L13.87 5.06814ZM11.6331 2.14234C10.6303 1.38411 9.46592 1.01 8.18 1.01V3.01C9.05408 3.01 9.78971 3.25589 10.4269 3.73766L11.6331 2.14234ZM8.18 1.01C6.89408 1.01 5.72971 1.38411 4.72689 2.14234L5.93311 3.73766C6.57029 3.25589 7.30592 3.01 8.18 3.01V1.01ZM4.73949 2.13297C3.75703 2.85184 3.00542 3.84059 2.46619 5.05386L4.29381 5.86614C4.71458 4.9194 5.26297 4.22816 5.92051 3.74703L4.73949 2.13297ZM2.45998 5.06814C1.93737 6.29513 1.69 7.68292 1.69 9.21H3.69C3.69 7.89708 3.90263 6.78487 4.30002 5.85186L2.45998 5.06814ZM1.69 9.21C1.69 10.7371 1.93737 12.1249 2.45998 13.3519L4.30002 12.5681C3.90263 11.6351 3.69 10.5229 3.69 9.21H1.69ZM2.46619 13.3661C3.00542 14.5794 3.75703 15.5682 4.73949 16.287L5.92051 14.673C5.26297 14.1918 4.71458 13.5006 4.29381 12.5539L2.46619 13.3661ZM4.73949 16.287C5.74196 17.0205 6.90186 17.38 8.18 17.38V15.38C7.29814 15.38 6.55804 15.1395 5.92051 14.673L4.73949 16.287ZM8.18 17.38C9.45814 17.38 10.618 17.0205 11.6205 16.287L10.4395 14.673C9.80196 15.1395 9.06186 15.38 8.18 15.38V17.38ZM11.6331 16.2777C12.6069 15.5414 13.3474 14.5562 13.8673 13.3581L12.0327 12.5619C11.6326 13.4838 11.0931 14.1786 10.4269 14.6823L11.6331 16.2777ZM13.87 13.3519C14.3926 12.1249 14.64 10.7371 14.64 9.21H12.64C12.64 10.5229 12.4274 11.6351 12.03 12.5681L13.87 13.3519ZM21.1491 21.33L21.6779 20.4812L21.6678 20.475L21.1491 21.33ZM18.4191 18.39L17.8163 17.5921L17.1572 18.0901L17.5218 18.8313L18.4191 18.39ZM19.7691 17.37L20.6374 16.8739L20.0734 15.8868L19.1663 16.5721L19.7691 17.37ZM22.0491 19.74L21.5191 20.588L21.527 20.5928L22.0491 19.74ZM27.9291 19.98L27.4472 19.1037L27.4378 19.109L27.9291 19.98ZM29.8191 18.15L28.9675 17.6259L28.9626 17.6339L28.9578 17.642L29.8191 18.15ZM29.8491 12.87L28.9837 13.371L28.9916 13.3846L28.9999 13.3979L29.8491 12.87ZM28.0191 11.1L27.5354 11.9753L27.545 11.9805L28.0191 11.1ZM22.7991 11.1L23.2291 12.0029L23.2378 11.9987L23.2464 11.9944L22.7991 11.1ZM20.7591 12.87V13.87H21.2943L21.5912 13.4247L20.7591 12.87ZM18.8691 12.87L17.8881 12.6762L17.6523 13.87H18.8691V12.87ZM21.2391 0.869999V-0.130001H20.4173L20.2581 0.676242L21.2391 0.869999ZM31.5291 0.869999H32.5291V-0.130001H31.5291V0.869999ZM31.5291 2.76V3.76H32.5291V2.76H31.5291ZM22.7691 2.76V1.76H21.943L21.7871 2.57129L22.7691 2.76ZM21.2991 10.41L20.3171 10.2213L19.6591 13.6459L22.0319 11.0905L21.2991 10.41ZM23.2191 9.12L23.5863 10.0502L23.5968 10.046L23.6072 10.0416L23.2191 9.12ZM29.1891 9.51L28.7021 10.3834L28.7091 10.3873L29.1891 9.51ZM31.6191 19.11L30.7774 18.57L30.7702 18.5814L31.6191 19.11ZM28.9491 21.57L28.4892 20.6819L28.4769 20.6885L28.9491 21.57ZM25.2291 21.47C23.9075 21.47 22.7321 21.138 21.6779 20.4812L20.6204 22.1788C22.0061 23.042 23.5508 23.47 25.2291 23.47V21.47ZM21.6678 20.475C20.6024 19.8288 19.828 18.9888 19.3165 17.9487L17.5218 18.8313C18.2103 20.2312 19.2559 21.3512 20.6305 22.185L21.6678 20.475ZM19.022 19.1879L20.372 18.1679L19.1663 16.5721L17.8163 17.5921L19.022 19.1879ZM18.9009 17.8661C19.5431 18.99 20.4195 19.9007 21.5191 20.588L22.5791 18.892C21.7588 18.3793 21.1152 17.71 20.6374 16.8739L18.9009 17.8661ZM21.527 20.5928C22.6657 21.29 23.9167 21.64 25.2591 21.64V19.64C24.2816 19.64 23.3926 19.39 22.5713 18.8871L21.527 20.5928ZM25.2591 21.64C26.4108 21.64 27.4736 21.3851 28.4205 20.851L27.4378 19.109C26.8247 19.4549 26.1075 19.64 25.2591 19.64V21.64ZM28.4111 20.8562C29.3669 20.3305 30.1286 19.5939 30.6805 18.658L28.9578 17.642C28.5897 18.2661 28.0914 18.7495 27.4472 19.1038L28.4111 20.8562ZM30.6708 18.6741C31.2585 17.719 31.5391 16.6334 31.5391 15.45H29.5391C29.5391 16.3066 29.3397 17.021 28.9675 17.6259L30.6708 18.6741ZM31.5391 15.45C31.5391 14.3073 31.2688 13.2597 30.6984 12.3421L28.9999 13.3979C29.3494 13.9603 29.5391 14.6327 29.5391 15.45H31.5391ZM30.7146 12.369C30.1809 11.4472 29.4348 10.7265 28.4932 10.2195L27.545 11.9805C28.1635 12.3135 28.6374 12.7728 28.9837 13.371L30.7146 12.369ZM28.5028 10.2248C27.5796 9.71453 26.5501 9.47 25.4391 9.47V11.47C26.2482 11.47 26.9387 11.6455 27.5355 11.9752L28.5028 10.2248ZM25.4391 9.47C24.3606 9.47 23.3278 9.71764 22.3519 10.2056L23.2464 11.9944C23.9505 11.6424 24.6777 11.47 25.4391 11.47V9.47ZM22.3692 10.1971C21.3649 10.6754 20.5464 11.3863 19.9271 12.3153L21.5912 13.4247C22.0118 12.7937 22.5534 12.3246 23.2291 12.0029L22.3692 10.1971ZM20.7591 11.87H18.8691V13.87H20.7591V11.87ZM19.8502 13.0638L22.2202 1.06376L20.2581 0.676242L17.8881 12.6762L19.8502 13.0638ZM21.2391 1.87H31.5291V-0.130001H21.2391V1.87ZM30.5291 0.869999V2.76H32.5291V0.869999H30.5291ZM31.5291 1.76H22.7691V3.76H31.5291V1.76ZM21.7871 2.57129L20.3171 10.2213L22.2812 10.5987L23.7512 2.9487L21.7871 2.57129ZM22.0319 11.0905C22.4433 10.6474 22.9555 10.2992 23.5863 10.0502L22.852 8.18984C21.9628 8.54084 21.195 9.05256 20.5663 9.72955L22.0319 11.0905ZM23.6072 10.0416C24.2363 9.77676 24.9234 9.64 25.6791 9.64V7.64C24.6749 7.64 23.722 7.82324 22.8311 8.19836L23.6072 10.0416ZM25.6791 9.64C26.8247 9.64 27.8244 9.89389 28.7021 10.3834L29.6762 8.63663C28.4739 7.96611 27.1336 7.64 25.6791 7.64V9.64ZM28.7091 10.3873C29.617 10.884 30.327 11.5614 30.8546 12.4294L32.5637 11.3906C31.8513 10.2186 30.8813 9.29597 29.6692 8.63274L28.7091 10.3873ZM30.8546 12.4294C31.3696 13.2766 31.6391 14.2632 31.6391 15.42H33.6391C33.6391 13.9368 33.2887 12.5834 32.5637 11.3906L30.8546 12.4294ZM31.6391 15.42C31.6391 16.6507 31.3428 17.6888 30.7774 18.57L32.4608 19.65C33.2555 18.4112 33.6391 16.9893 33.6391 15.42H31.6391ZM30.7702 18.5814C30.2063 19.4872 29.4514 20.1838 28.4893 20.682L29.409 22.458C30.6869 21.7962 31.712 20.8528 32.468 19.6386L30.7702 18.5814ZM28.4769 20.6885C27.5123 21.2053 26.4363 21.47 25.2291 21.47V23.47C26.742 23.47 28.146 23.1347 29.4214 22.4515L28.4769 20.6885Z" fill="url(#paint0_linear_86_1721)" mask="url(#path-1-outside-1_86_1721)"/>
<defs>
<linearGradient id="paint0_linear_86_1721" x1="16.5" y1="-14" x2="16.5" y2="28" gradientUnits="userSpaceOnUse">
<stop stop-color="#3BB96D"/>
<stop offset="1" stop-color="#279A59"/>
</linearGradient>
</defs>
</svg>
