<svg width="35" height="23" viewBox="0 0 35 23" fill="none" xmlns="http://www.w3.org/2000/svg">
<mask id="path-1-outside-1_86_1725" maskUnits="userSpaceOnUse" x="-1" y="-1" width="37" height="25" fill="black">
<rect fill="white" x="-1" y="-1" width="37" height="25"/>
<path d="M15.71 13.21C15.71 14.97 15.38 16.54 14.72 17.92C14.08 19.28 13.19 20.35 12.05 21.13C10.91 21.91 9.62 22.3 8.18 22.3C6.74 22.3 5.45 21.91 4.31 21.13C3.19 20.35 2.3 19.28 1.64 17.92C0.98 16.54 0.65 14.97 0.65 13.21C0.65 11.45 0.98 9.89 1.64 8.53C2.3 7.15 3.19 6.07 4.31 5.29C5.45 4.49 6.74 4.09 8.18 4.09C9.62 4.09 10.91 4.49 12.05 5.29C13.19 6.07 14.08 7.15 14.72 8.53C15.38 9.89 15.71 11.45 15.71 13.21ZM13.64 13.21C13.64 11.79 13.41 10.54 12.95 9.46C12.49 8.38 11.85 7.54 11.03 6.94C10.21 6.32 9.26 6.01 8.18 6.01C7.1 6.01 6.15 6.32 5.33 6.94C4.51 7.54 3.86 8.38 3.38 9.46C2.92 10.54 2.69 11.79 2.69 13.21C2.69 14.63 2.92 15.88 3.38 16.96C3.86 18.04 4.51 18.88 5.33 19.48C6.15 20.08 7.1 20.38 8.18 20.38C9.26 20.38 10.21 20.08 11.03 19.48C11.85 18.86 12.49 18.02 12.95 16.96C13.41 15.88 13.64 14.63 13.64 13.21ZM34.1391 14.98C34.1391 13.64 33.8091 12.43 33.1491 11.35C32.5091 10.25 31.6291 9.38 30.5091 8.74C29.4091 8.1 28.1791 7.78 26.8191 7.78C25.9191 7.78 25.0691 7.94 24.2691 8.26C23.4891 8.58 22.8091 9.03 22.2291 9.61C21.6491 10.19 21.2091 10.87 20.9091 11.65C20.9091 9.69 21.1491 8.02 21.6291 6.64C22.1291 5.26 22.8191 4.2 23.6991 3.46C24.5791 2.72 25.6091 2.35 26.7891 2.35C27.9091 2.35 28.9191 2.66 29.8191 3.28C30.7391 3.88 31.4091 4.69 31.8291 5.71L33.1491 4.51C32.5691 3.29 31.7191 2.33 30.5991 1.63C29.4791 0.909999 28.2091 0.549999 26.7891 0.549999C25.2291 0.549999 23.8591 1.02 22.6791 1.96C21.4991 2.9 20.5791 4.32 19.9191 6.22C19.2591 8.1 18.9291 10.49 18.9291 13.39C18.9291 15.23 19.2591 16.82 19.9191 18.16C20.5791 19.5 21.4791 20.53 22.6191 21.25C23.7791 21.95 25.0991 22.3 26.5791 22.3C27.9991 22.3 29.2791 21.97 30.4191 21.31C31.5591 20.65 32.4591 19.77 33.1191 18.67C33.7991 17.55 34.1391 16.32 34.1391 14.98ZM26.6391 20.5C25.6191 20.5 24.6891 20.25 23.8491 19.75C23.0091 19.25 22.3291 18.58 21.8091 17.74C21.3091 16.9 21.0591 15.98 21.0591 14.98C21.0591 13.96 21.3091 13.04 21.8091 12.22C22.3091 11.38 22.9791 10.71 23.8191 10.21C24.6791 9.71 25.6191 9.46 26.6391 9.46C27.6391 9.46 28.5591 9.71 29.3991 10.21C30.2391 10.71 30.9091 11.38 31.4091 12.22C31.9291 13.06 32.1891 13.98 32.1891 14.98C32.1891 15.98 31.9291 16.9 31.4091 17.74C30.9091 18.58 30.2391 19.25 29.3991 19.75C28.5591 20.25 27.6391 20.5 26.6391 20.5Z"/>
</mask>
<path d="M14.72 17.92L13.8178 17.4885L13.8152 17.4942L14.72 17.92ZM12.05 21.13L12.6147 21.9553L12.05 21.13ZM4.31 21.13L3.73849 21.9506L3.74532 21.9553L4.31 21.13ZM1.64 17.92L0.737851 18.3515L0.740344 18.3566L1.64 17.92ZM1.64 8.53L2.53967 8.9666L2.54213 8.96145L1.64 8.53ZM4.31 5.29L4.8815 6.11061L4.88443 6.10855L4.31 5.29ZM12.05 5.29L11.4755 6.10861L11.4853 6.1153L12.05 5.29ZM14.72 8.53L13.8128 8.95072L13.8165 8.95869L13.8203 8.9666L14.72 8.53ZM12.95 9.46L12.03 9.85186L12.95 9.46ZM11.03 6.94L10.4269 7.73766L10.4332 7.74239L10.4395 7.74703L11.03 6.94ZM5.33 6.94L5.92051 7.74703L5.92685 7.74239L5.93311 7.73766L5.33 6.94ZM3.38 9.46L2.46619 9.05386L2.46303 9.06098L2.45998 9.06814L3.38 9.46ZM3.38 16.96L2.45998 17.3519L2.46303 17.359L2.46619 17.3661L3.38 16.96ZM5.33 19.48L5.92051 18.673L5.33 19.48ZM11.03 19.48L11.6205 20.287L11.6268 20.2824L11.6331 20.2777L11.03 19.48ZM12.95 16.96L13.8674 17.3581L13.87 17.3519L12.95 16.96ZM14.71 13.21C14.71 14.8431 14.4044 16.2621 13.8179 17.4885L15.6221 18.3515C16.3556 16.8179 16.71 15.0969 16.71 13.21H14.71ZM13.8152 17.4942C13.2441 18.7078 12.4656 19.634 11.4853 20.3047L12.6147 21.9553C13.9144 21.066 14.9159 19.8522 15.6248 18.3458L13.8152 17.4942ZM11.4853 20.3047C10.519 20.9659 9.42755 21.3 8.18 21.3V23.3C9.81246 23.3 11.301 22.8541 12.6147 21.9553L11.4853 20.3047ZM8.18 21.3C6.93246 21.3 5.84102 20.9659 4.87468 20.3047L3.74532 21.9553C5.05898 22.8541 6.54755 23.3 8.18 23.3V21.3ZM4.88149 20.3094C3.91662 19.6374 3.13315 18.7064 2.53966 17.4834L0.740344 18.3566C1.46685 19.8536 2.46338 21.0626 3.73851 21.9506L4.88149 20.3094ZM2.54213 17.4885C1.9556 16.2621 1.65 14.8431 1.65 13.21H-0.35C-0.35 15.0969 0.00440252 16.8179 0.737866 18.3515L2.54213 17.4885ZM1.65 13.21C1.65 11.5765 1.95571 10.1699 2.53966 8.9666L0.740344 8.0934C0.00428653 9.61012 -0.35 11.3235 -0.35 13.21H1.65ZM2.54213 8.96145C3.13666 7.71836 3.92006 6.78017 4.88149 6.11061L3.73851 4.46939C2.45994 5.35983 1.46334 6.58164 0.737866 8.09854L2.54213 8.96145ZM4.88443 6.10855C5.85016 5.43084 6.93814 5.09 8.18 5.09V3.09C6.54186 3.09 5.04984 3.54915 3.73557 4.47144L4.88443 6.10855ZM8.18 5.09C9.42186 5.09 10.5098 5.43084 11.4756 6.10855L12.6244 4.47144C11.3102 3.54915 9.81814 3.09 8.18 3.09V5.09ZM11.4853 6.1153C12.4621 6.78362 13.2406 7.71692 13.8128 8.95072L15.6272 8.10927C14.9194 6.58307 13.9179 5.35638 12.6147 4.46469L11.4853 6.1153ZM13.8203 8.9666C14.4043 10.1699 14.71 11.5765 14.71 13.21H16.71C16.71 11.3235 16.3557 9.61012 15.6197 8.0934L13.8203 8.9666ZM14.64 13.21C14.64 11.6829 14.3926 10.2951 13.87 9.06814L12.03 9.85186C12.4274 10.7849 12.64 11.8971 12.64 13.21H14.64ZM13.87 9.06814C13.3506 7.84873 12.607 6.85479 11.6205 6.13297L10.4395 7.74703C11.093 8.22521 11.6294 8.91127 12.03 9.85186L13.87 9.06814ZM11.6331 6.14234C10.6303 5.38411 9.46592 5.01 8.18 5.01V7.01C9.05408 7.01 9.78971 7.25589 10.4269 7.73766L11.6331 6.14234ZM8.18 5.01C6.89408 5.01 5.72971 5.38411 4.72689 6.14234L5.93311 7.73766C6.57029 7.25589 7.30592 7.01 8.18 7.01V5.01ZM4.73949 6.13297C3.75703 6.85184 3.00542 7.84059 2.46619 9.05386L4.29381 9.86614C4.71458 8.9194 5.26297 8.22816 5.92051 7.74703L4.73949 6.13297ZM2.45998 9.06814C1.93737 10.2951 1.69 11.6829 1.69 13.21H3.69C3.69 11.8971 3.90263 10.7849 4.30002 9.85186L2.45998 9.06814ZM1.69 13.21C1.69 14.7371 1.93737 16.1249 2.45998 17.3519L4.30002 16.5681C3.90263 15.6351 3.69 14.5229 3.69 13.21H1.69ZM2.46619 17.3661C3.00542 18.5794 3.75703 19.5682 4.73949 20.287L5.92051 18.673C5.26297 18.1918 4.71458 17.5006 4.29381 16.5539L2.46619 17.3661ZM4.73949 20.287C5.74196 21.0205 6.90186 21.38 8.18 21.38V19.38C7.29814 19.38 6.55804 19.1395 5.92051 18.673L4.73949 20.287ZM8.18 21.38C9.45814 21.38 10.618 21.0205 11.6205 20.287L10.4395 18.673C9.80196 19.1395 9.06186 19.38 8.18 19.38V21.38ZM11.6331 20.2777C12.6069 19.5414 13.3474 18.5562 13.8673 17.3581L12.0327 16.5619C11.6326 17.4838 11.0931 18.1786 10.4269 18.6823L11.6331 20.2777ZM13.87 17.3519C14.3926 16.1249 14.64 14.7371 14.64 13.21H12.64C12.64 14.5229 12.4274 15.6351 12.03 16.5681L13.87 17.3519ZM33.1491 11.35L32.2848 11.8529L32.2902 11.8622L32.2959 11.8714L33.1491 11.35ZM30.5091 8.74L30.0062 9.60437L30.013 9.60824L30.5091 8.74ZM24.2691 8.26L23.8977 7.33149L23.8896 7.33483L24.2691 8.26ZM22.2291 9.61L21.522 8.90289L22.2291 9.61ZM20.9091 11.65H19.9091L21.8425 12.009L20.9091 11.65ZM21.6291 6.64L20.6889 6.29932L20.6846 6.31148L21.6291 6.64ZM23.6991 3.46L23.0555 2.69464H23.0555L23.6991 3.46ZM29.8191 3.28L29.2518 4.10351L29.2623 4.11069L29.2729 4.11761L29.8191 3.28ZM31.8291 5.71L30.9045 6.09075L31.4472 7.40872L32.5018 6.44994L31.8291 5.71ZM33.1491 4.51L33.8218 5.24994L34.3709 4.7508L34.0523 4.08064L33.1491 4.51ZM30.5991 1.63L30.0583 2.47125L30.0691 2.478L30.5991 1.63ZM22.6791 1.96L22.0561 1.17784L22.6791 1.96ZM19.9191 6.22L20.8627 6.55124L20.8638 6.54813L19.9191 6.22ZM19.9191 18.16L19.0221 18.6019L19.9191 18.16ZM22.6191 21.25L22.0851 22.0955L22.0938 22.1009L22.1025 22.1062L22.6191 21.25ZM30.4191 21.31L30.9202 22.1754L30.4191 21.31ZM33.1191 18.67L32.2643 18.151L32.2617 18.1555L33.1191 18.67ZM23.8491 19.75L23.3377 20.6093H23.3377L23.8491 19.75ZM21.8091 17.74L20.9498 18.2515L20.9543 18.259L20.9589 18.2664L21.8091 17.74ZM21.8091 12.22L22.663 12.7406L22.6684 12.7315L21.8091 12.22ZM23.8191 10.21L23.3165 9.34545L23.3077 9.35071L23.8191 10.21ZM29.3991 10.21L28.8877 11.0693L29.3991 10.21ZM31.4091 12.22L30.5498 12.7315L30.5543 12.739L30.5589 12.7464L31.4091 12.22ZM31.4091 17.74L30.5589 17.2136L30.5543 17.221L30.5498 17.2285L31.4091 17.74ZM29.3991 19.75L28.8877 18.8907L29.3991 19.75ZM35.1391 14.98C35.1391 13.4673 34.7641 12.0749 34.0024 10.8286L32.2959 11.8714C32.8542 12.7851 33.1391 13.8127 33.1391 14.98H35.1391ZM34.0135 10.8471C33.2838 9.5929 32.2758 8.59779 31.0053 7.87176L30.013 9.60824C30.9825 10.1622 31.7345 10.9071 32.2848 11.8529L34.0135 10.8471ZM31.012 7.87565C29.7488 7.14069 28.3432 6.78 26.8191 6.78V8.78C28.015 8.78 29.0695 9.05931 30.0062 9.60435L31.012 7.87565ZM26.8191 6.78C25.7977 6.78 24.8211 6.96218 23.8978 7.33152L24.6405 9.18848C25.3172 8.91782 26.0406 8.78 26.8191 8.78V6.78ZM23.8896 7.33483C22.9905 7.70367 22.1983 8.2266 21.522 8.90289L22.9362 10.3171C23.42 9.8334 23.9878 9.45632 24.6487 9.18517L23.8896 7.33483ZM21.522 8.90289C20.8412 9.58373 20.325 10.383 19.9758 11.291L21.8425 12.009C22.0932 11.357 22.4571 10.7963 22.9362 10.3171L21.522 8.90289ZM21.9091 11.65C21.9091 9.76611 22.1405 8.21372 22.5736 6.96852L20.6846 6.31148C20.1578 7.82627 19.9091 9.61389 19.9091 11.65H21.9091ZM22.5693 6.98065C23.0257 5.72099 23.6295 4.82513 24.3427 4.22536L23.0555 2.69464C22.0088 3.57487 21.2326 4.79901 20.6889 6.29935L22.5693 6.98065ZM24.3427 4.22536C25.0374 3.6412 25.8379 3.35 26.7891 3.35V1.35C25.3804 1.35 24.1209 1.7988 23.0555 2.69464L24.3427 4.22536ZM26.7891 3.35C27.7119 3.35 28.523 3.60145 29.2518 4.10351L30.3864 2.45649C29.3152 1.71855 28.1064 1.35 26.7891 1.35V3.35ZM29.2729 4.11761C30.0227 4.6066 30.5611 5.25694 30.9045 6.09075L32.7538 5.32925C32.2572 4.12305 31.4556 3.1534 30.3654 2.44239L29.2729 4.11761ZM32.5018 6.44994L33.8218 5.24994L32.4765 3.77006L31.1565 4.97006L32.5018 6.44994ZM34.0523 4.08064C33.3923 2.69251 32.4148 1.58551 31.1291 0.782001L30.0691 2.478C31.0235 3.07449 31.7459 3.88749 32.246 4.93936L34.0523 4.08064ZM31.1399 0.788821C29.8477 -0.0418577 28.3875 -0.450001 26.7891 -0.450001V1.55C28.0307 1.55 29.1105 1.86186 30.0584 2.47118L31.1399 0.788821ZM26.7891 -0.450001C25.0111 -0.450001 23.4195 0.091691 22.0561 1.17784L23.3022 2.74216C24.2988 1.94831 25.4472 1.55 26.7891 1.55V-0.450001ZM22.0561 1.17784C20.6864 2.26891 19.6764 3.87121 18.9745 5.89186L20.8638 6.54813C21.4819 4.76879 22.3119 3.53109 23.3022 2.74216L22.0561 1.17784ZM18.9756 5.88875C18.2654 7.91178 17.9291 10.4239 17.9291 13.39H19.9291C19.9291 10.5561 20.2529 8.28822 20.8627 6.55124L18.9756 5.88875ZM17.9291 13.39C17.9291 15.3484 18.2805 17.0962 19.0221 18.6019L20.8162 17.7181C20.2378 16.5438 19.9291 15.1116 19.9291 13.39H17.9291ZM19.0221 18.6019C19.7545 20.0889 20.7727 21.2666 22.0851 22.0955L23.1531 20.4045C22.1855 19.7934 21.4038 18.9111 20.8162 17.7181L19.0221 18.6019ZM22.1025 22.1062C23.4326 22.9089 24.9344 23.3 26.5791 23.3V21.3C25.2639 21.3 24.1257 20.9911 23.1358 20.3938L22.1025 22.1062ZM26.5791 23.3C28.1609 23.3 29.6161 22.9304 30.9202 22.1754L29.9181 20.4446C28.9422 21.0096 27.8374 21.3 26.5791 21.3V23.3ZM30.9202 22.1754C32.2027 21.4329 33.2271 20.4338 33.9766 19.1845L32.2617 18.1555C31.6912 19.1062 30.9156 19.8671 29.9181 20.4446L30.9202 22.1754ZM33.9739 19.189C34.7512 17.9088 35.1391 16.4987 35.1391 14.98H33.1391C33.1391 16.1413 32.8471 17.1912 32.2644 18.151L33.9739 19.189ZM26.6391 19.5C25.791 19.5 25.039 19.2945 24.3606 18.8907L23.3377 20.6093C24.3392 21.2055 25.4473 21.5 26.6391 21.5V19.5ZM24.3606 18.8907C23.6602 18.4738 23.0958 17.9186 22.6594 17.2136L20.9589 18.2664C21.5625 19.2414 22.3581 20.0262 23.3377 20.6093L24.3606 18.8907ZM22.6684 17.2285C22.2627 16.5469 22.0591 15.8043 22.0591 14.98H20.0591C20.0591 16.1557 20.3556 17.2531 20.9498 18.2515L22.6684 17.2285ZM22.0591 14.98C22.0591 14.1318 22.2646 13.394 22.6629 12.7406L20.9553 11.6994C20.3537 12.686 20.0591 13.7882 20.0591 14.98H22.0591ZM22.6684 12.7315C23.0833 12.0346 23.6337 11.4841 24.3306 11.0693L23.3077 9.35071C22.3246 9.93588 21.535 10.7254 20.9498 11.7085L22.6684 12.7315ZM24.3218 11.0745C25.0251 10.6656 25.791 10.46 26.6391 10.46V8.46C25.4473 8.46 24.3332 8.75442 23.3165 9.34549L24.3218 11.0745ZM26.6391 10.46C27.4634 10.46 28.2061 10.6636 28.8877 11.0693L29.9106 9.35071C28.9122 8.75642 27.8148 8.46 26.6391 8.46V10.46ZM28.8877 11.0693C29.5846 11.4841 30.135 12.0346 30.5498 12.7315L32.2684 11.7085C31.6833 10.7254 30.8937 9.93588 29.9106 9.35071L28.8877 11.0693ZM30.5589 12.7464C30.9797 13.4262 31.1891 14.1636 31.1891 14.98H33.1891C33.1891 13.7964 32.8785 12.6938 32.2594 11.6936L30.5589 12.7464ZM31.1891 14.98C31.1891 15.7964 30.9797 16.5338 30.5589 17.2136L32.2594 18.2664C32.8785 17.2662 33.1891 16.1636 33.1891 14.98H31.1891ZM30.5498 17.2285C30.135 17.9254 29.5846 18.4759 28.8877 18.8907L29.9106 20.6093C30.8937 20.0241 31.6833 19.2346 32.2684 18.2515L30.5498 17.2285ZM28.8877 18.8907C28.2061 19.2964 27.4634 19.5 26.6391 19.5V21.5C27.8148 21.5 28.9122 21.2036 29.9106 20.6093L28.8877 18.8907Z" fill="url(#paint0_linear_86_1725)" mask="url(#path-1-outside-1_86_1725)"/>
<defs>
<linearGradient id="paint0_linear_86_1725" x1="17.5" y1="-10" x2="17.5" y2="32" gradientUnits="userSpaceOnUse">
<stop stop-color="#3BB96D"/>
<stop offset="1" stop-color="#279A59"/>
</linearGradient>
</defs>
</svg>
