<svg width="34" height="23" viewBox="0 0 34 23" fill="none" xmlns="http://www.w3.org/2000/svg">
<mask id="path-1-outside-1_86_1731" maskUnits="userSpaceOnUse" x="-1" y="-1" width="36" height="25" fill="black">
<rect fill="white" x="-1" y="-1" width="36" height="25"/>
<path d="M15.71 13.21C15.71 14.97 15.38 16.54 14.72 17.92C14.08 19.28 13.19 20.35 12.05 21.13C10.91 21.91 9.62 22.3 8.18 22.3C6.74 22.3 5.45 21.91 4.31 21.13C3.19 20.35 2.3 19.28 1.64 17.92C0.98 16.54 0.65 14.97 0.65 13.21C0.65 11.45 0.98 9.89 1.64 8.53C2.3 7.15 3.19 6.07 4.31 5.29C5.45 4.49 6.74 4.09 8.18 4.09C9.62 4.09 10.91 4.49 12.05 5.29C13.19 6.07 14.08 7.15 14.72 8.53C15.38 9.89 15.71 11.45 15.71 13.21ZM13.64 13.21C13.64 11.79 13.41 10.54 12.95 9.46C12.49 8.38 11.85 7.54 11.03 6.94C10.21 6.32 9.26 6.01 8.18 6.01C7.1 6.01 6.15 6.32 5.33 6.94C4.51 7.54 3.86 8.38 3.38 9.46C2.92 10.54 2.69 11.79 2.69 13.21C2.69 14.63 2.92 15.88 3.38 16.96C3.86 18.04 4.51 18.88 5.33 19.48C6.15 20.08 7.1 20.38 8.18 20.38C9.26 20.38 10.21 20.08 11.03 19.48C11.85 18.86 12.49 18.02 12.95 16.96C13.41 15.88 13.64 14.63 13.64 13.21ZM33.6591 16.09C33.6591 17.33 33.3091 18.41 32.6091 19.33C31.9291 20.25 31.0191 20.97 29.8791 21.49C28.7591 21.99 27.5291 22.24 26.1891 22.24C24.7691 22.24 23.5091 21.96 22.4091 21.4C21.3091 20.82 20.4391 20.06 19.7991 19.12C19.1791 18.18 18.8691 17.13 18.8691 15.97C18.8691 15.07 19.0791 14.26 19.4991 13.54C19.9391 12.8 20.4791 12.18 21.1191 11.68C21.7791 11.18 22.4491 10.82 23.1291 10.6C22.5091 10.34 21.9291 10 21.3891 9.58C20.8491 9.14 20.4191 8.63 20.0991 8.05C19.7791 7.47 19.6191 6.83 19.6191 6.13C19.6191 5.25 19.8091 4.48 20.1891 3.82C20.5891 3.14 21.1091 2.57 21.7491 2.11C22.3891 1.63 23.0991 1.28 23.8791 1.06C24.6791 0.819999 25.4791 0.699999 26.2791 0.699999C27.0591 0.699999 27.8391 0.819999 28.6191 1.06C29.4191 1.28 30.1391 1.62 30.7791 2.08C31.4391 2.54 31.9591 3.11 32.3391 3.79C32.7391 4.45 32.9391 5.22 32.9391 6.1C32.9391 6.8 32.7691 7.45 32.4291 8.05C32.1091 8.63 31.6791 9.14 31.1391 9.58C30.5991 10 30.0091 10.34 29.3691 10.6C30.1491 10.86 30.8591 11.26 31.4991 11.8C32.1591 12.32 32.6791 12.94 33.0591 13.66C33.4591 14.38 33.6591 15.19 33.6591 16.09ZM31.5891 15.94C31.5891 15.22 31.4291 14.59 31.1091 14.05C30.8091 13.49 30.3891 13.02 29.8491 12.64C29.3291 12.26 28.7491 11.97 28.1091 11.77C27.4891 11.57 26.8591 11.47 26.2191 11.47C25.3591 11.47 24.5191 11.66 23.6991 12.04C22.8991 12.4 22.2391 12.92 21.7191 13.6C21.2191 14.26 20.9691 15.05 20.9691 15.97C20.9691 16.67 21.1191 17.29 21.4191 17.83C21.7391 18.37 22.1591 18.84 22.6791 19.24C23.1991 19.62 23.7691 19.91 24.3891 20.11C25.0291 20.31 25.6691 20.41 26.3091 20.41C27.1691 20.41 27.9991 20.23 28.7991 19.87C29.6191 19.49 30.2891 18.96 30.8091 18.28C31.3291 17.6 31.5891 16.82 31.5891 15.94ZM21.6591 6.22C21.6591 6.98 21.8891 7.64 22.3491 8.2C22.8291 8.74 23.4291 9.15 24.1491 9.43C24.8691 9.71 25.5691 9.85 26.2491 9.85C26.9691 9.85 27.6791 9.71 28.3791 9.43C29.0991 9.13 29.6891 8.71 30.1491 8.17C30.6291 7.61 30.8691 6.94 30.8691 6.16C30.8691 5.4 30.6491 4.75 30.2091 4.21C29.7691 3.67 29.1891 3.26 28.4691 2.98C27.7691 2.7 27.0191 2.56 26.2191 2.56C25.4591 2.56 24.7191 2.71 23.9991 3.01C23.2991 3.29 22.7291 3.71 22.2891 4.27C21.8691 4.81 21.6591 5.46 21.6591 6.22Z"/>
</mask>
<path d="M14.72 17.92L13.8178 17.4885L13.8152 17.4942L14.72 17.92ZM12.05 21.13L12.6147 21.9553L12.05 21.13ZM4.31 21.13L3.73849 21.9506L3.74532 21.9553L4.31 21.13ZM1.64 17.92L0.737851 18.3515L0.740344 18.3566L1.64 17.92ZM1.64 8.53L2.53967 8.9666L2.54213 8.96145L1.64 8.53ZM4.31 5.29L4.8815 6.11061L4.88443 6.10855L4.31 5.29ZM12.05 5.29L11.4755 6.10861L11.4853 6.1153L12.05 5.29ZM14.72 8.53L13.8128 8.95072L13.8165 8.95869L13.8203 8.9666L14.72 8.53ZM12.95 9.46L12.03 9.85186L12.95 9.46ZM11.03 6.94L10.4269 7.73766L10.4332 7.74239L10.4395 7.74703L11.03 6.94ZM5.33 6.94L5.92051 7.74703L5.92685 7.74239L5.93311 7.73766L5.33 6.94ZM3.38 9.46L2.46619 9.05386L2.46303 9.06098L2.45998 9.06814L3.38 9.46ZM3.38 16.96L2.45998 17.3519L2.46303 17.359L2.46619 17.3661L3.38 16.96ZM5.33 19.48L5.92051 18.673L5.33 19.48ZM11.03 19.48L11.6205 20.287L11.6268 20.2824L11.6331 20.2777L11.03 19.48ZM12.95 16.96L13.8674 17.3581L13.87 17.3519L12.95 16.96ZM14.71 13.21C14.71 14.8431 14.4044 16.2621 13.8179 17.4885L15.6221 18.3515C16.3556 16.8179 16.71 15.0969 16.71 13.21H14.71ZM13.8152 17.4942C13.2441 18.7078 12.4656 19.634 11.4853 20.3047L12.6147 21.9553C13.9144 21.066 14.9159 19.8522 15.6248 18.3458L13.8152 17.4942ZM11.4853 20.3047C10.519 20.9659 9.42755 21.3 8.18 21.3V23.3C9.81246 23.3 11.301 22.8541 12.6147 21.9553L11.4853 20.3047ZM8.18 21.3C6.93246 21.3 5.84102 20.9659 4.87468 20.3047L3.74532 21.9553C5.05898 22.8541 6.54755 23.3 8.18 23.3V21.3ZM4.88149 20.3094C3.91662 19.6374 3.13315 18.7064 2.53966 17.4834L0.740344 18.3566C1.46685 19.8536 2.46338 21.0626 3.73851 21.9506L4.88149 20.3094ZM2.54213 17.4885C1.9556 16.2621 1.65 14.8431 1.65 13.21H-0.35C-0.35 15.0969 0.00440252 16.8179 0.737866 18.3515L2.54213 17.4885ZM1.65 13.21C1.65 11.5765 1.95571 10.1699 2.53966 8.9666L0.740344 8.0934C0.00428653 9.61012 -0.35 11.3235 -0.35 13.21H1.65ZM2.54213 8.96145C3.13666 7.71836 3.92006 6.78017 4.88149 6.11061L3.73851 4.46939C2.45994 5.35983 1.46334 6.58164 0.737866 8.09854L2.54213 8.96145ZM4.88443 6.10855C5.85016 5.43084 6.93814 5.09 8.18 5.09V3.09C6.54186 3.09 5.04984 3.54915 3.73557 4.47144L4.88443 6.10855ZM8.18 5.09C9.42186 5.09 10.5098 5.43084 11.4756 6.10855L12.6244 4.47144C11.3102 3.54915 9.81814 3.09 8.18 3.09V5.09ZM11.4853 6.1153C12.4621 6.78362 13.2406 7.71692 13.8128 8.95072L15.6272 8.10927C14.9194 6.58307 13.9179 5.35638 12.6147 4.46469L11.4853 6.1153ZM13.8203 8.9666C14.4043 10.1699 14.71 11.5765 14.71 13.21H16.71C16.71 11.3235 16.3557 9.61012 15.6197 8.0934L13.8203 8.9666ZM14.64 13.21C14.64 11.6829 14.3926 10.2951 13.87 9.06814L12.03 9.85186C12.4274 10.7849 12.64 11.8971 12.64 13.21H14.64ZM13.87 9.06814C13.3506 7.84873 12.607 6.85479 11.6205 6.13297L10.4395 7.74703C11.093 8.22521 11.6294 8.91127 12.03 9.85186L13.87 9.06814ZM11.6331 6.14234C10.6303 5.38411 9.46592 5.01 8.18 5.01V7.01C9.05408 7.01 9.78971 7.25589 10.4269 7.73766L11.6331 6.14234ZM8.18 5.01C6.89408 5.01 5.72971 5.38411 4.72689 6.14234L5.93311 7.73766C6.57029 7.25589 7.30592 7.01 8.18 7.01V5.01ZM4.73949 6.13297C3.75703 6.85184 3.00542 7.84059 2.46619 9.05386L4.29381 9.86614C4.71458 8.9194 5.26297 8.22816 5.92051 7.74703L4.73949 6.13297ZM2.45998 9.06814C1.93737 10.2951 1.69 11.6829 1.69 13.21H3.69C3.69 11.8971 3.90263 10.7849 4.30002 9.85186L2.45998 9.06814ZM1.69 13.21C1.69 14.7371 1.93737 16.1249 2.45998 17.3519L4.30002 16.5681C3.90263 15.6351 3.69 14.5229 3.69 13.21H1.69ZM2.46619 17.3661C3.00542 18.5794 3.75703 19.5682 4.73949 20.287L5.92051 18.673C5.26297 18.1918 4.71458 17.5006 4.29381 16.5539L2.46619 17.3661ZM4.73949 20.287C5.74196 21.0205 6.90186 21.38 8.18 21.38V19.38C7.29814 19.38 6.55804 19.1395 5.92051 18.673L4.73949 20.287ZM8.18 21.38C9.45814 21.38 10.618 21.0205 11.6205 20.287L10.4395 18.673C9.80196 19.1395 9.06186 19.38 8.18 19.38V21.38ZM11.6331 20.2777C12.6069 19.5414 13.3474 18.5562 13.8673 17.3581L12.0327 16.5619C11.6326 17.4838 11.0931 18.1786 10.4269 18.6823L11.6331 20.2777ZM13.87 17.3519C14.3926 16.1249 14.64 14.7371 14.64 13.21H12.64C12.64 14.5229 12.4274 15.6351 12.03 16.5681L13.87 17.3519ZM32.6091 19.33L31.8132 18.7244L31.805 18.7356L32.6091 19.33ZM29.8791 21.49L30.2868 22.4032L30.2941 22.3998L29.8791 21.49ZM22.4091 21.4L21.9427 22.2846L21.9491 22.2879L21.9555 22.2912L22.4091 21.4ZM19.7991 19.12L18.9644 19.6706L18.9684 19.6767L18.9725 19.6828L19.7991 19.12ZM19.4991 13.54L18.6396 13.0289L18.6354 13.0361L19.4991 13.54ZM21.1191 11.68L20.5153 10.8829L20.5094 10.8874L20.5035 10.892L21.1191 11.68ZM23.1291 10.6L23.437 11.5514L26.0036 10.7211L23.5159 9.6778L23.1291 10.6ZM21.3891 9.58L20.7575 10.3552L20.7663 10.3624L20.7752 10.3694L21.3891 9.58ZM20.0991 8.05L20.9747 7.56692L20.0991 8.05ZM20.1891 3.82L19.3272 3.31296L19.3225 3.32104L20.1891 3.82ZM21.7491 2.11L22.3328 2.92201L22.341 2.91609L22.3491 2.91L21.7491 2.11ZM23.8791 1.06L24.1506 2.02245L24.1586 2.0202L24.1665 2.01783L23.8791 1.06ZM28.6191 1.06L28.3251 2.01578L28.3395 2.02021L28.354 2.02421L28.6191 1.06ZM30.7791 2.08L30.1955 2.89201L30.2014 2.89625L30.2073 2.9004L30.7791 2.08ZM32.3391 3.79L31.4662 4.27782L31.4748 4.29322L31.4839 4.3083L32.3391 3.79ZM32.4291 8.05L31.5591 7.55695L31.5536 7.56692L32.4291 8.05ZM31.1391 9.58L31.7531 10.3694L31.762 10.3624L31.7708 10.3552L31.1391 9.58ZM29.3691 10.6L28.9928 9.67353L26.4845 10.6925L29.0529 11.5487L29.3691 10.6ZM31.4991 11.8L30.8543 12.5643L30.8671 12.5751L30.8803 12.5855L31.4991 11.8ZM33.0591 13.66L32.1748 14.1268L32.1798 14.1363L32.185 14.1456L33.0591 13.66ZM31.1091 14.05L30.2277 14.5222L30.2379 14.5412L30.2488 14.5598L31.1091 14.05ZM29.8491 12.64L29.2591 13.4474L29.2663 13.4527L29.2736 13.4578L29.8491 12.64ZM28.1091 11.77L27.8021 12.7217L27.8109 12.7245L28.1091 11.77ZM23.6991 12.04L24.1095 12.952L24.1196 12.9473L23.6991 12.04ZM21.7191 13.6L20.9248 12.9925L20.922 12.9961L21.7191 13.6ZM21.4191 17.83L20.545 18.3156L20.5517 18.3278L20.5588 18.3398L21.4191 17.83ZM22.6791 19.24L22.0694 20.0326L22.0792 20.0401L22.0891 20.0474L22.6791 19.24ZM24.3891 20.11L24.0821 21.0617L24.0909 21.0645L24.3891 20.11ZM28.7991 19.87L29.2095 20.782L29.2196 20.7773L28.7991 19.87ZM30.8091 18.28L30.0148 17.6726L30.8091 18.28ZM22.3491 8.2L21.5764 8.83474L21.5888 8.8498L21.6017 8.86436L22.3491 8.2ZM24.1491 9.43L23.7867 10.362L24.1491 9.43ZM28.3791 9.43L28.7505 10.3585L28.7572 10.3558L28.7638 10.3531L28.3791 9.43ZM30.1491 8.17L29.3899 7.51921L29.3879 7.52153L30.1491 8.17ZM30.2091 4.21L30.9844 3.57833L30.9844 3.57832L30.2091 4.21ZM28.4691 2.98L28.0977 3.90852L28.1067 3.912L28.4691 2.98ZM23.9991 3.01L24.3705 3.93848L24.3772 3.93582L24.3838 3.93308L23.9991 3.01ZM22.2891 4.27L21.5028 3.65217L21.4998 3.65606L22.2891 4.27ZM32.6591 16.09C32.6591 17.1282 32.371 17.9916 31.8133 18.7245L33.405 19.9355C34.2473 18.8284 34.6591 17.5318 34.6591 16.09H32.6591ZM31.805 18.7356C31.2352 19.5064 30.4648 20.1237 29.4641 20.5802L30.2941 22.3998C31.5735 21.8163 32.623 20.9936 33.4133 19.9244L31.805 18.7356ZM29.4715 20.5769C28.4912 21.0145 27.4018 21.24 26.1891 21.24V23.24C27.6565 23.24 29.0271 22.9655 30.2868 22.4031L29.4715 20.5769ZM26.1891 21.24C24.903 21.24 23.8025 20.9872 22.8628 20.5088L21.9555 22.2912C23.2158 22.9328 24.6353 23.24 26.1891 23.24V21.24ZM22.8755 20.5154C21.9063 20.0044 21.1654 19.3498 20.6257 18.5572L18.9725 19.6828C19.7129 20.7702 20.712 21.6356 21.9427 22.2846L22.8755 20.5154ZM20.6339 18.5694C20.1251 17.7979 19.8691 16.9405 19.8691 15.97H17.8691C17.8691 17.3195 18.2332 18.562 18.9644 19.6706L20.6339 18.5694ZM19.8691 15.97C19.8691 15.2325 20.0392 14.5988 20.3629 14.0439L18.6354 13.0361C18.1191 13.9212 17.8691 14.9075 17.8691 15.97H19.8691ZM20.3587 14.0511C20.7391 13.4112 21.1983 12.8871 21.7348 12.468L20.5035 10.892C19.76 11.4729 19.1392 12.1888 18.6396 13.0289L20.3587 14.0511ZM21.723 12.4771C22.3076 12.0342 22.879 11.732 23.437 11.5514L22.8213 9.64856C22.0193 9.90804 21.2507 10.3258 20.5153 10.8829L21.723 12.4771ZM23.5159 9.6778C22.9786 9.45248 22.4748 9.15751 22.0031 8.79065L20.7752 10.3694C21.3835 10.8425 22.0397 11.2275 22.7424 11.5222L23.5159 9.6778ZM22.0208 8.80476C21.5749 8.44141 21.2297 8.0291 20.9747 7.56692L19.2236 8.53308C19.6086 9.2309 20.1234 9.83859 20.7575 10.3552L22.0208 8.80476ZM20.9747 7.56692C20.741 7.1433 20.6191 6.67097 20.6191 6.13H18.6191C18.6191 6.98903 18.8173 7.7967 19.2236 8.53308L20.9747 7.56692ZM20.6191 6.13C20.6191 5.39756 20.7759 4.80496 21.0558 4.31896L19.3225 3.32104C18.8423 4.15504 18.6191 5.10244 18.6191 6.13H20.6191ZM21.0511 4.32702C21.3806 3.76682 21.8059 3.30073 22.3328 2.92201L21.1655 1.29798C20.4124 1.83926 19.7977 2.51318 19.3272 3.31298L21.0511 4.32702ZM22.3491 2.91C22.8893 2.50491 23.4876 2.20945 24.1506 2.02245L23.6077 0.0975494C22.7107 0.350551 21.889 0.755092 21.1491 1.31L22.3491 2.91ZM24.1665 2.01783C24.8774 1.80455 25.5807 1.7 26.2791 1.7V-0.300001C25.3776 -0.300001 24.4809 -0.164556 23.5918 0.102174L24.1665 2.01783ZM26.2791 1.7C26.9549 1.7 27.6359 1.80373 28.3251 2.01578L28.9132 0.10422C28.0424 -0.163733 27.1634 -0.300001 26.2791 -0.300001V1.7ZM28.354 2.02421C29.0457 2.21443 29.6568 2.50482 30.1955 2.89201L31.3628 1.26798C30.6215 0.735178 29.7926 0.345564 28.8843 0.0957937L28.354 2.02421ZM30.2073 2.9004C30.7473 3.2767 31.1626 3.73445 31.4662 4.27782L33.2121 3.30218C32.7557 2.48555 32.131 1.80329 31.3509 1.2596L30.2073 2.9004ZM31.4839 4.3083C31.7765 4.79105 31.9391 5.37658 31.9391 6.1H33.9391C33.9391 5.06342 33.7018 4.10895 33.1943 3.2717L31.4839 4.3083ZM31.9391 6.1C31.9391 6.62991 31.8126 7.10968 31.5591 7.55699L33.2992 8.54301C33.7257 7.79032 33.9391 6.97009 33.9391 6.1H31.9391ZM31.5536 7.56692C31.2986 8.0291 30.9534 8.44141 30.5075 8.80476L31.7708 10.3552C32.4049 9.83859 32.9197 9.2309 33.3047 8.53308L31.5536 7.56692ZM30.5252 8.79065C30.0584 9.15369 29.5485 9.44777 28.9928 9.67353L29.7455 11.5265C30.4698 11.2322 31.1399 10.8463 31.7531 10.3694L30.5252 8.79065ZM29.0529 11.5487C29.7104 11.7679 30.3093 12.1045 30.8543 12.5643L32.144 11.0357C31.409 10.4155 30.5879 9.95215 29.6854 9.65132L29.0529 11.5487ZM30.8803 12.5855C31.4341 13.0218 31.8621 13.5344 32.1748 14.1268L33.9435 13.1932C33.4962 12.3456 32.8842 11.6182 32.118 11.0145L30.8803 12.5855ZM32.185 14.1456C32.4949 14.7036 32.6591 15.3438 32.6591 16.09H34.6591C34.6591 15.0362 34.4233 14.0564 33.9333 13.1744L32.185 14.1456ZM32.5891 15.94C32.5891 15.0674 32.3937 14.2561 31.9694 13.5402L30.2488 14.5598C30.4646 14.9239 30.5891 15.3726 30.5891 15.94H32.5891ZM31.9906 13.5778C31.614 12.8748 31.087 12.2883 30.4246 11.8222L29.2736 13.4578C29.6913 13.7517 30.0042 14.1052 30.2277 14.5222L31.9906 13.5778ZM30.4392 11.8326C29.827 11.3853 29.1477 11.0469 28.4074 10.8155L27.8109 12.7245C28.3506 12.8931 28.8313 13.1347 29.2591 13.4474L30.4392 11.8326ZM28.4161 10.8183C27.6988 10.5869 26.9652 10.47 26.2191 10.47V12.47C26.753 12.47 27.2795 12.5531 27.8021 12.7217L28.4161 10.8183ZM26.2191 10.47C25.2065 10.47 24.2236 10.6948 23.2787 11.1327L24.1196 12.9473C24.8147 12.6252 25.5117 12.47 26.2191 12.47V10.47ZM23.2888 11.1281C22.3414 11.5544 21.5481 12.1774 20.9248 12.9925L22.5135 14.2074C22.9302 13.6626 23.4569 13.2456 24.1095 12.9519L23.2888 11.1281ZM20.922 12.9961C20.2758 13.8492 19.9691 14.8575 19.9691 15.97H21.9691C21.9691 15.2425 22.1625 14.6708 22.5162 14.2039L20.922 12.9961ZM19.9691 15.97C19.9691 16.817 20.152 17.6082 20.545 18.3156L22.2933 17.3444C22.0863 16.9718 21.9691 16.523 21.9691 15.97H19.9691ZM20.5588 18.3398C20.9466 18.9941 21.4533 19.5587 22.0694 20.0326L23.2889 18.4474C22.865 18.1213 22.5317 17.7459 22.2794 17.3202L20.5588 18.3398ZM22.0891 20.0474C22.6962 20.491 23.3619 20.8294 24.0821 21.0617L24.6961 19.1583C24.1764 18.9906 23.7021 18.749 23.2692 18.4326L22.0891 20.0474ZM24.0909 21.0645C24.8228 21.2932 25.5632 21.41 26.3091 21.41V19.41C25.775 19.41 25.2355 19.3268 24.6874 19.1555L24.0909 21.0645ZM26.3091 21.41C27.3135 21.41 28.2832 21.1988 29.2095 20.7819L28.3888 18.9581C27.7151 19.2612 27.0248 19.41 26.3091 19.41V21.41ZM29.2196 20.7773C30.1782 20.3331 30.9795 19.7034 31.6035 18.8874L30.0148 17.6726C29.5988 18.2166 29.06 18.6469 28.3787 18.9627L29.2196 20.7773ZM31.6035 18.8875C32.2608 18.0278 32.5891 17.0329 32.5891 15.94H30.5891C30.5891 16.6071 30.3974 17.1722 30.0148 17.6726L31.6035 18.8875ZM20.6591 6.22C20.6591 7.19931 20.9619 8.08664 21.5764 8.83474L23.1219 7.56526C22.8164 7.19336 22.6591 6.76069 22.6591 6.22H20.6591ZM21.6017 8.86436C22.1943 9.53096 22.9295 10.0286 23.7867 10.362L24.5116 8.498C23.9288 8.27136 23.464 7.94904 23.0965 7.53563L21.6017 8.86436ZM23.7867 10.362C24.6067 10.6809 25.4295 10.85 26.2491 10.85V8.85C25.7088 8.85 25.1316 8.73912 24.5116 8.49799L23.7867 10.362ZM26.2491 10.85C27.1023 10.85 27.9381 10.6835 28.7505 10.3585L28.0077 8.50152C27.4202 8.73654 26.836 8.85 26.2491 8.85V10.85ZM28.7638 10.3531C29.6145 9.99862 30.3384 9.48997 30.9104 8.81847L29.3879 7.52153C29.0399 7.93003 28.5838 8.26138 27.9945 8.50692L28.7638 10.3531ZM30.9084 8.82079C31.5532 8.06854 31.8691 7.1638 31.8691 6.16H29.8691C29.8691 6.7162 29.7051 7.15146 29.3899 7.51921L30.9084 8.82079ZM31.8691 6.16C31.8691 5.19226 31.5833 4.31338 30.9844 3.57833L29.4339 4.84167C29.715 5.18662 29.8691 5.60774 29.8691 6.16H31.8691ZM30.9844 3.57832C30.4235 2.88997 29.6949 2.38371 28.8316 2.048L28.1067 3.912C28.6834 4.13629 29.1148 4.45002 29.4339 4.84167L30.9844 3.57832ZM28.8405 2.05152C28.0153 1.72144 27.1385 1.56 26.2191 1.56V3.56C26.8998 3.56 27.523 3.67856 28.0977 3.90848L28.8405 2.05152ZM26.2191 1.56C25.3236 1.56 24.4531 1.73751 23.6145 2.08692L24.3838 3.93308C24.9852 3.68249 25.5947 3.56 26.2191 3.56V1.56ZM23.6278 2.08152C22.7745 2.42283 22.0578 2.94578 21.5028 3.65218L23.0755 4.88782C23.4004 4.47422 23.8238 4.15717 24.3705 3.93848L23.6278 2.08152ZM21.4998 3.65606C20.9281 4.39113 20.6591 5.26371 20.6591 6.22H22.6591C22.6591 5.65629 22.8102 5.22887 23.0785 4.88394L21.4998 3.65606Z" fill="url(#paint0_linear_86_1731)" mask="url(#path-1-outside-1_86_1731)"/>
<defs>
<linearGradient id="paint0_linear_86_1731" x1="17.5" y1="-10" x2="17.5" y2="32" gradientUnits="userSpaceOnUse">
<stop stop-color="#3BB96D"/>
<stop offset="1" stop-color="#279A59"/>
</linearGradient>
</defs>
</svg>
