<svg width="34" height="23" viewBox="0 0 34 23" fill="none" xmlns="http://www.w3.org/2000/svg">
<mask id="path-1-outside-1_86_1734" maskUnits="userSpaceOnUse" x="-1" y="-1" width="36" height="25" fill="black">
<rect fill="white" x="-1" y="-1" width="36" height="25"/>
<path d="M15.71 9.21C15.71 10.97 15.38 12.54 14.72 13.92C14.08 15.28 13.19 16.35 12.05 17.13C10.91 17.91 9.62 18.3 8.18 18.3C6.74 18.3 5.45 17.91 4.31 17.13C3.19 16.35 2.3 15.28 1.64 13.92C0.98 12.54 0.65 10.97 0.65 9.21C0.65 7.45 0.98 5.89 1.64 4.53C2.3 3.15 3.19 2.07 4.31 1.29C5.45 0.49 6.74 0.0899999 8.18 0.0899999C9.62 0.0899999 10.91 0.49 12.05 1.29C13.19 2.07 14.08 3.15 14.72 4.53C15.38 5.89 15.71 7.45 15.71 9.21ZM13.64 9.21C13.64 7.79 13.41 6.54 12.95 5.46C12.49 4.38 11.85 3.54 11.03 2.94C10.21 2.32 9.26 2.01 8.18 2.01C7.1 2.01 6.15 2.32 5.33 2.94C4.51 3.54 3.86 4.38 3.38 5.46C2.92 6.54 2.69 7.79 2.69 9.21C2.69 10.63 2.92 11.88 3.38 12.96C3.86 14.04 4.51 14.88 5.33 15.48C6.15 16.08 7.1 16.38 8.18 16.38C9.26 16.38 10.21 16.08 11.03 15.48C11.85 14.86 12.49 14.02 12.95 12.96C13.41 11.88 13.64 10.63 13.64 9.21ZM18.4491 8.19C18.4491 9.53 18.7691 10.75 19.4091 11.85C20.0691 12.93 20.9591 13.79 22.0791 14.43C23.1991 15.07 24.4291 15.39 25.7691 15.39C26.6891 15.39 27.5391 15.23 28.3191 14.91C29.0991 14.59 29.7891 14.14 30.3891 13.56C30.9891 12.96 31.4291 12.28 31.7091 11.52C31.6891 13.48 31.4291 15.15 30.9291 16.53C30.4491 17.91 29.7691 18.97 28.8891 19.71C28.0291 20.45 26.9991 20.82 25.7991 20.82C24.6991 20.82 23.6891 20.51 22.7691 19.89C21.8491 19.27 21.1791 18.46 20.7591 17.46L19.4391 18.66C20.0191 19.88 20.8691 20.84 21.9891 21.54C23.1291 22.26 24.3991 22.62 25.7991 22.62C27.3591 22.62 28.7291 22.15 29.9091 21.21C31.0891 20.27 32.0091 18.86 32.6691 16.98C33.3291 15.08 33.6591 12.68 33.6591 9.78C33.6591 7.92 33.3291 6.33 32.6691 5.01C32.0291 3.67 31.1291 2.65 29.9691 1.95C28.8291 1.23 27.5091 0.869999 26.0091 0.869999C24.6091 0.869999 23.3291 1.2 22.1691 1.86C21.0291 2.52 20.1191 3.4 19.4391 4.5C18.7791 5.6 18.4491 6.83 18.4491 8.19ZM25.9791 2.67C26.9791 2.67 27.8991 2.92 28.7391 3.42C29.5991 3.92 30.2791 4.59 30.7791 5.43C31.2791 6.27 31.5291 7.19 31.5291 8.19C31.5291 9.19 31.2791 10.11 30.7791 10.95C30.2791 11.79 29.6091 12.46 28.7691 12.96C27.9291 13.46 26.9991 13.71 25.9791 13.71C24.9791 13.71 24.0491 13.46 23.1891 12.96C22.3491 12.46 21.6691 11.79 21.1491 10.95C20.6491 10.11 20.3991 9.19 20.3991 8.19C20.3991 7.17 20.6491 6.25 21.1491 5.43C21.6691 4.59 22.3491 3.92 23.1891 3.42C24.0291 2.92 24.9591 2.67 25.9791 2.67Z"/>
</mask>
<path d="M14.72 13.92L13.8178 13.4885L13.8152 13.4942L14.72 13.92ZM12.05 17.13L12.6147 17.9553L12.05 17.13ZM4.31 17.13L3.73849 17.9506L3.74532 17.9553L4.31 17.13ZM1.64 13.92L0.737851 14.3515L0.740344 14.3566L1.64 13.92ZM1.64 4.53L2.53967 4.9666L2.54213 4.96145L1.64 4.53ZM4.31 1.29L4.8815 2.11061L4.88443 2.10855L4.31 1.29ZM12.05 1.29L11.4755 2.10861L11.4853 2.1153L12.05 1.29ZM14.72 4.53L13.8128 4.95072L13.8165 4.95869L13.8203 4.9666L14.72 4.53ZM12.95 5.46L12.03 5.85186L12.95 5.46ZM11.03 2.94L10.4269 3.73766L10.4332 3.74239L10.4395 3.74703L11.03 2.94ZM5.33 2.94L5.92051 3.74703L5.92685 3.74239L5.93311 3.73766L5.33 2.94ZM3.38 5.46L2.46619 5.05386L2.46303 5.06098L2.45998 5.06814L3.38 5.46ZM3.38 12.96L2.45998 13.3519L2.46303 13.359L2.46619 13.3661L3.38 12.96ZM5.33 15.48L5.92051 14.673L5.33 15.48ZM11.03 15.48L11.6205 16.287L11.6268 16.2824L11.6331 16.2777L11.03 15.48ZM12.95 12.96L13.8674 13.3581L13.87 13.3519L12.95 12.96ZM14.71 9.21C14.71 10.8431 14.4044 12.2621 13.8179 13.4885L15.6221 14.3515C16.3556 12.8179 16.71 11.0969 16.71 9.21H14.71ZM13.8152 13.4942C13.2441 14.7078 12.4656 15.634 11.4853 16.3047L12.6147 17.9553C13.9144 17.066 14.9159 15.8522 15.6248 14.3458L13.8152 13.4942ZM11.4853 16.3047C10.519 16.9659 9.42755 17.3 8.18 17.3V19.3C9.81246 19.3 11.301 18.8541 12.6147 17.9553L11.4853 16.3047ZM8.18 17.3C6.93246 17.3 5.84102 16.9659 4.87468 16.3047L3.74532 17.9553C5.05898 18.8541 6.54755 19.3 8.18 19.3V17.3ZM4.88149 16.3094C3.91662 15.6374 3.13315 14.7064 2.53966 13.4834L0.740344 14.3566C1.46685 15.8536 2.46338 17.0626 3.73851 17.9506L4.88149 16.3094ZM2.54213 13.4885C1.9556 12.2621 1.65 10.8431 1.65 9.21H-0.35C-0.35 11.0969 0.00440252 12.8179 0.737866 14.3515L2.54213 13.4885ZM1.65 9.21C1.65 7.57648 1.95571 6.16987 2.53966 4.9666L0.740344 4.0934C0.00428653 5.61012 -0.35 7.32352 -0.35 9.21H1.65ZM2.54213 4.96145C3.13666 3.71836 3.92006 2.78017 4.88149 2.11061L3.73851 0.469393C2.45994 1.35983 1.46334 2.58164 0.737866 4.09854L2.54213 4.96145ZM4.88443 2.10855C5.85016 1.43084 6.93814 1.09 8.18 1.09V-0.91C6.54186 -0.91 5.04984 -0.450846 3.73557 0.471442L4.88443 2.10855ZM8.18 1.09C9.42186 1.09 10.5098 1.43084 11.4756 2.10855L12.6244 0.471442C11.3102 -0.450846 9.81814 -0.91 8.18 -0.91V1.09ZM11.4853 2.1153C12.4621 2.78362 13.2406 3.71692 13.8128 4.95072L15.6272 4.10927C14.9194 2.58307 13.9179 1.35638 12.6147 0.464692L11.4853 2.1153ZM13.8203 4.9666C14.4043 6.16987 14.71 7.57648 14.71 9.21H16.71C16.71 7.32352 16.3557 5.61012 15.6197 4.0934L13.8203 4.9666ZM14.64 9.21C14.64 7.68292 14.3926 6.29513 13.87 5.06814L12.03 5.85186C12.4274 6.78487 12.64 7.89708 12.64 9.21H14.64ZM13.87 5.06814C13.3506 3.84873 12.607 2.85479 11.6205 2.13297L10.4395 3.74703C11.093 4.22521 11.6294 4.91127 12.03 5.85186L13.87 5.06814ZM11.6331 2.14234C10.6303 1.38411 9.46592 1.01 8.18 1.01V3.01C9.05408 3.01 9.78971 3.25589 10.4269 3.73766L11.6331 2.14234ZM8.18 1.01C6.89408 1.01 5.72971 1.38411 4.72689 2.14234L5.93311 3.73766C6.57029 3.25589 7.30592 3.01 8.18 3.01V1.01ZM4.73949 2.13297C3.75703 2.85184 3.00542 3.84059 2.46619 5.05386L4.29381 5.86614C4.71458 4.9194 5.26297 4.22816 5.92051 3.74703L4.73949 2.13297ZM2.45998 5.06814C1.93737 6.29513 1.69 7.68292 1.69 9.21H3.69C3.69 7.89708 3.90263 6.78487 4.30002 5.85186L2.45998 5.06814ZM1.69 9.21C1.69 10.7371 1.93737 12.1249 2.45998 13.3519L4.30002 12.5681C3.90263 11.6351 3.69 10.5229 3.69 9.21H1.69ZM2.46619 13.3661C3.00542 14.5794 3.75703 15.5682 4.73949 16.287L5.92051 14.673C5.26297 14.1918 4.71458 13.5006 4.29381 12.5539L2.46619 13.3661ZM4.73949 16.287C5.74196 17.0205 6.90186 17.38 8.18 17.38V15.38C7.29814 15.38 6.55804 15.1395 5.92051 14.673L4.73949 16.287ZM8.18 17.38C9.45814 17.38 10.618 17.0205 11.6205 16.287L10.4395 14.673C9.80196 15.1395 9.06186 15.38 8.18 15.38V17.38ZM11.6331 16.2777C12.6069 15.5414 13.3474 14.5562 13.8673 13.3581L12.0327 12.5619C11.6326 13.4838 11.0931 14.1786 10.4269 14.6823L11.6331 16.2777ZM13.87 13.3519C14.3926 12.1249 14.64 10.7371 14.64 9.21H12.64C12.64 10.5229 12.4274 11.6351 12.03 12.5681L13.87 13.3519ZM19.4091 11.85L18.5448 12.3529L18.5502 12.3622L18.5559 12.3715L19.4091 11.85ZM22.0791 14.43L21.583 15.2982L22.0791 14.43ZM28.3191 14.91L27.9396 13.9848L28.3191 14.91ZM30.3891 13.56L31.0842 14.279L31.0903 14.2731L31.0962 14.2671L30.3891 13.56ZM31.7091 11.52L32.7091 11.5302L30.7708 11.1743L31.7091 11.52ZM30.9291 16.53L29.9889 16.1893L29.9846 16.2015L30.9291 16.53ZM28.8891 19.71L28.2455 18.9446L28.2369 18.952L28.8891 19.71ZM22.7691 19.89L23.328 19.0607L22.7691 19.89ZM20.7591 17.46L21.6811 17.0728L21.1333 15.7684L20.0865 16.7201L20.7591 17.46ZM19.4391 18.66L18.7665 17.9201L18.2174 18.4192L18.536 19.0894L19.4391 18.66ZM21.9891 21.54L22.5231 20.6945L22.5191 20.692L21.9891 21.54ZM29.9091 21.21L29.2861 20.4278L29.9091 21.21ZM32.6691 16.98L33.6127 17.3112L33.6138 17.3081L32.6691 16.98ZM32.6691 5.01L31.7668 5.44098L31.7707 5.44913L31.7747 5.45721L32.6691 5.01ZM29.9691 1.95L29.4351 2.79549L29.4438 2.80093L29.4525 2.80619L29.9691 1.95ZM22.1691 1.86L21.6746 0.99081L21.6681 0.994573L22.1691 1.86ZM19.4391 4.5L18.5885 3.97413L18.5816 3.9855L19.4391 4.5ZM28.7391 3.42L28.2276 4.27934L28.2365 4.28451L28.7391 3.42ZM30.7791 5.43L31.6384 4.91852V4.91851L30.7791 5.43ZM30.7791 10.95L29.9198 10.4385V10.4385L30.7791 10.95ZM28.7691 12.96L28.2577 12.1007L28.7691 12.96ZM23.1891 12.96L22.6776 13.8193L22.6865 13.8245L23.1891 12.96ZM21.1491 10.95L20.2898 11.4615L20.2943 11.469L20.2989 11.4764L21.1491 10.95ZM21.1491 5.43L20.2989 4.90363L20.2953 4.90939L21.1491 5.43ZM23.1891 3.42L22.6777 2.56071L23.1891 3.42ZM17.4491 8.19C17.4491 9.69694 17.8112 11.092 18.5448 12.3529L20.2735 11.3471C19.7271 10.408 19.4491 9.36306 19.4491 8.19H17.4491ZM18.5559 12.3715C19.3055 13.5982 20.3196 14.5763 21.583 15.2982L22.5753 13.5618C21.5987 13.0037 20.8328 12.2618 20.2624 11.3286L18.5559 12.3715ZM21.583 15.2982C22.8601 16.028 24.2621 16.39 25.7691 16.39V14.39C24.5961 14.39 23.5382 14.112 22.5753 13.5618L21.583 15.2982ZM25.7691 16.39C26.8074 16.39 27.7877 16.2089 28.6987 15.8352L27.9396 13.9848C27.2906 14.2511 26.5709 14.39 25.7691 14.39V16.39ZM28.6987 15.8352C29.5947 15.4676 30.3921 14.948 31.0842 14.279L29.6941 12.841C29.1862 13.332 28.6035 13.7124 27.9396 13.9848L28.6987 15.8352ZM31.0962 14.2671C31.7936 13.5698 32.3151 12.768 32.6475 11.8657L30.7708 11.1743C30.5432 11.792 30.1847 12.3502 29.682 12.8529L31.0962 14.2671ZM30.7092 11.5098C30.69 13.3925 30.4401 14.9442 29.989 16.1894L31.8693 16.8706C32.4182 15.3558 32.6883 13.5675 32.7091 11.5302L30.7092 11.5098ZM29.9846 16.2015C29.548 17.4568 28.9551 18.3479 28.2455 18.9446L29.5327 20.4754C30.5832 19.5921 31.3503 18.3632 31.8736 16.8585L29.9846 16.2015ZM28.2369 18.952C27.5694 19.5264 26.7748 19.82 25.7991 19.82V21.82C27.2235 21.82 28.4889 21.3736 29.5414 20.468L28.2369 18.952ZM25.7991 19.82C24.9001 19.82 24.0844 19.5705 23.328 19.0607L22.2103 20.7193C23.2939 21.4495 24.4982 21.82 25.7991 21.82V19.82ZM23.328 19.0607C22.5656 18.5469 22.0239 17.8889 21.6811 17.0728L19.8372 17.8472C20.3344 19.0311 21.1327 19.9931 22.2103 20.7193L23.328 19.0607ZM20.0865 16.7201L18.7665 17.9201L20.1118 19.3999L21.4318 18.1999L20.0865 16.7201ZM18.536 19.0894C19.1959 20.4775 20.1735 21.5845 21.4591 22.388L22.5191 20.692C21.5648 20.0955 20.8423 19.2825 20.3423 18.2306L18.536 19.0894ZM21.4551 22.3855C22.7613 23.2104 24.2177 23.62 25.7991 23.62V21.62C24.5805 21.62 23.497 21.3096 22.5231 20.6945L21.4551 22.3855ZM25.7991 23.62C27.5772 23.62 29.1688 23.0783 30.5322 21.9922L29.2861 20.4278C28.2895 21.2217 27.1411 21.62 25.7991 21.62V23.62ZM30.5322 21.9922C31.8995 20.903 32.9099 19.3131 33.6127 17.3112L31.7256 16.6488C31.1084 18.4069 30.2788 19.637 29.2861 20.4278L30.5322 21.9922ZM33.6138 17.3081C34.3227 15.2672 34.6591 12.7467 34.6591 9.78H32.6591C32.6591 12.6133 32.3355 14.8928 31.7245 16.6519L33.6138 17.3081ZM34.6591 9.78C34.6591 7.80413 34.3087 6.05303 33.5636 4.56279L31.7747 5.45721C32.3496 6.60697 32.6591 8.03587 32.6591 9.78H34.6591ZM33.5715 4.57902C32.8557 3.08028 31.8292 1.90445 30.4858 1.09381L29.4525 2.80619C30.4291 3.39555 31.2026 4.25972 31.7668 5.44098L33.5715 4.57902ZM30.5031 1.10451C29.1857 0.272458 27.6762 -0.130001 26.0091 -0.130001V1.87C27.3421 1.87 28.4726 2.18754 29.4351 2.79549L30.5031 1.10451ZM26.0091 -0.130001C24.4446 -0.130001 22.9928 0.240823 21.6746 0.990834L22.6637 2.72916C23.6655 2.15917 24.7737 1.87 26.0091 1.87V-0.130001ZM21.6681 0.994573C20.3881 1.73561 19.3569 2.73119 18.5885 3.97418L20.2897 5.02582C20.8813 4.06882 21.6702 3.30439 22.6702 2.72542L21.6681 0.994573ZM18.5816 3.9855C17.8227 5.25038 17.4491 6.66011 17.4491 8.19H19.4491C19.4491 6.99989 19.7356 5.94962 20.2966 5.0145L18.5816 3.9855ZM25.9791 3.67C26.8034 3.67 27.5461 3.87358 28.2277 4.27929L29.2506 2.56071C28.2522 1.96642 27.1549 1.67 25.9791 1.67V3.67ZM28.2365 4.28451C28.9523 4.70064 29.5084 5.25023 29.9198 5.94148L31.6384 4.91851C31.0499 3.92977 30.246 3.13936 29.2418 2.55549L28.2365 4.28451ZM29.9198 5.94148C30.3256 6.62308 30.5291 7.36571 30.5291 8.19H32.5291C32.5291 7.01429 32.2327 5.91692 31.6384 4.91852L29.9198 5.94148ZM30.5291 8.19C30.5291 9.01429 30.3256 9.75692 29.9198 10.4385L31.6384 11.4615C32.2327 10.4631 32.5291 9.36571 32.5291 8.19H30.5291ZM29.9198 10.4385C29.505 11.1354 28.9546 11.6859 28.2577 12.1007L29.2806 13.8193C30.2637 13.2341 31.0533 12.4446 31.6384 11.4615L29.9198 10.4385ZM28.2577 12.1007C27.5792 12.5045 26.8273 12.71 25.9791 12.71V14.71C27.171 14.71 28.279 14.4155 29.2806 13.8193L28.2577 12.1007ZM25.9791 12.71C25.1547 12.71 24.3983 12.5063 23.6918 12.0955L22.6865 13.8245C23.7 14.4137 24.8036 14.71 25.9791 14.71V12.71ZM23.7006 12.1007C23.0002 11.6838 22.4358 11.1286 21.9994 10.4236L20.2989 11.4764C20.9025 12.4514 21.6981 13.2362 22.6777 13.8193L23.7006 12.1007ZM22.0084 10.4385C21.6027 9.75692 21.3991 9.01429 21.3991 8.19H19.3991C19.3991 9.36571 19.6956 10.4631 20.2898 11.4615L22.0084 10.4385ZM21.3991 8.19C21.3991 7.34179 21.6046 6.60395 22.0029 5.95061L20.2953 4.90939C19.6937 5.89605 19.3991 6.99821 19.3991 8.19H21.3991ZM21.9994 5.95635C22.4358 5.25142 23.0002 4.69623 23.7006 4.27929L22.6777 2.56071C21.6981 3.14377 20.9025 3.92858 20.2989 4.90364L21.9994 5.95635ZM23.7006 4.27929C24.379 3.87548 25.131 3.67 25.9791 3.67V1.67C24.7873 1.67 23.6792 1.96452 22.6777 2.56071L23.7006 4.27929Z" fill="url(#paint0_linear_86_1734)" mask="url(#path-1-outside-1_86_1734)"/>
<defs>
<linearGradient id="paint0_linear_86_1734" x1="17" y1="-14" x2="17" y2="28" gradientUnits="userSpaceOnUse">
<stop stop-color="#3BB96D"/>
<stop offset="1" stop-color="#279A59"/>
</linearGradient>
</defs>
</svg>
