<svg width="29" height="19" viewBox="0 0 29 19" fill="none" xmlns="http://www.w3.org/2000/svg">
<mask id="path-1-outside-1_86_1737" maskUnits="userSpaceOnUse" x="-1" y="-1" width="31" height="21" fill="black">
<rect fill="white" x="-1" y="-1" width="31" height="21"/>
<path d="M11.18 16.14V18H1.01V16.14H5.27V3.3C5.11 3.54 4.84 3.8 4.46 4.08C4.08 4.36 3.64 4.62 3.14 4.86C2.66 5.1 2.18 5.3 1.7 5.46C1.22 5.62 0.78 5.7 0.38 5.7V3.72C0.84 3.72 1.34 3.59 1.88 3.33C2.42 3.07 2.94 2.77 3.44 2.43C3.94 2.09 4.36 1.77 4.7 1.47C5.04 1.17 5.23 0.969999 5.27 0.869999H7.37V16.14H11.18ZM28.542 9.21C28.542 10.97 28.212 12.54 27.552 13.92C26.912 15.28 26.022 16.35 24.882 17.13C23.742 17.91 22.452 18.3 21.012 18.3C19.572 18.3 18.282 17.91 17.142 17.13C16.022 16.35 15.132 15.28 14.472 13.92C13.812 12.54 13.482 10.97 13.482 9.21C13.482 7.45 13.812 5.89 14.472 4.53C15.132 3.15 16.022 2.07 17.142 1.29C18.282 0.49 19.572 0.0899999 21.012 0.0899999C22.452 0.0899999 23.742 0.49 24.882 1.29C26.022 2.07 26.912 3.15 27.552 4.53C28.212 5.89 28.542 7.45 28.542 9.21ZM26.472 9.21C26.472 7.79 26.242 6.54 25.782 5.46C25.322 4.38 24.682 3.54 23.862 2.94C23.042 2.32 22.092 2.01 21.012 2.01C19.932 2.01 18.982 2.32 18.162 2.94C17.342 3.54 16.692 4.38 16.212 5.46C15.752 6.54 15.522 7.79 15.522 9.21C15.522 10.63 15.752 11.88 16.212 12.96C16.692 14.04 17.342 14.88 18.162 15.48C18.982 16.08 19.932 16.38 21.012 16.38C22.092 16.38 23.042 16.08 23.862 15.48C24.682 14.86 25.322 14.02 25.782 12.96C26.242 11.88 26.472 10.63 26.472 9.21Z"/>
</mask>
<path d="M11.18 16.14H12.18V15.14H11.18V16.14ZM11.18 18V19H12.18V18H11.18ZM1.01 18H0.00999999V19H1.01V18ZM1.01 16.14V15.14H0.00999999V16.14H1.01ZM5.27 16.14V17.14H6.27V16.14H5.27ZM5.27 3.3H6.27V-0.00277424L4.43795 2.7453L5.27 3.3ZM4.46 4.08L5.0532 4.88506L4.46 4.08ZM3.14 4.86L2.70727 3.95848L2.7 3.96197L2.69279 3.96557L3.14 4.86ZM1.7 5.46L2.01623 6.40868L2.01623 6.40868L1.7 5.46ZM0.38 5.7H-0.62V6.7H0.38V5.7ZM0.38 3.72V2.72H-0.62V3.72H0.38ZM1.88 3.33L1.44618 2.429H1.44618L1.88 3.33ZM3.44 2.43L2.87769 1.60307L2.87769 1.60307L3.44 2.43ZM4.7 1.47L5.36162 2.21984L5.36162 2.21984L4.7 1.47ZM5.27 0.869999V-0.130001H4.59297L4.34152 0.49861L5.27 0.869999ZM7.37 0.869999H8.37V-0.130001H7.37V0.869999ZM7.37 16.14H6.37V17.14H7.37V16.14ZM10.18 16.14V18H12.18V16.14H10.18ZM11.18 17H1.01V19H11.18V17ZM2.01 18V16.14H0.00999999V18H2.01ZM1.01 17.14H5.27V15.14H1.01V17.14ZM6.27 16.14V3.3H4.27V16.14H6.27ZM4.43795 2.7453C4.37039 2.84664 4.20498 3.02576 3.8668 3.27494L5.0532 4.88506C5.47502 4.57424 5.84961 4.23336 6.10205 3.8547L4.43795 2.7453ZM3.8668 3.27494C3.54498 3.51207 3.16038 3.74098 2.70727 3.95848L3.57273 5.76152C4.11962 5.49902 4.61502 5.20793 5.0532 4.88506L3.8668 3.27494ZM2.69279 3.96557C2.25257 4.18568 1.81627 4.36715 1.38377 4.51132L2.01623 6.40868C2.54373 6.23285 3.06743 6.01432 3.58721 5.75443L2.69279 3.96557ZM1.38377 4.51132C0.979999 4.64591 0.648383 4.7 0.38 4.7V6.7C0.911617 6.7 1.46 6.59409 2.01623 6.40868L1.38377 4.51132ZM1.38 5.7V3.72H-0.62V5.7H1.38ZM0.38 4.72C1.02854 4.72 1.67788 4.53719 2.31382 4.231L1.44618 2.429C1.00212 2.64281 0.651462 2.72 0.38 2.72V4.72ZM2.31382 4.231C2.89882 3.94933 3.46174 3.62452 4.00231 3.25692L2.87769 1.60307C2.41826 1.91548 1.94118 2.19066 1.44618 2.429L2.31382 4.231ZM4.00231 3.25693C4.52634 2.90058 4.98179 2.55498 5.36162 2.21984L4.03838 0.720161C3.73821 0.98502 3.35366 1.27942 2.87769 1.60307L4.00231 3.25693ZM5.36162 2.21984C5.54159 2.06104 5.69862 1.91415 5.8225 1.78375C5.90927 1.69241 6.09836 1.49169 6.19848 1.24139L4.34152 0.49861C4.36434 0.441574 4.38735 0.402525 4.39807 0.385247C4.40987 0.366214 4.41788 0.355823 4.41827 0.355318C4.41909 0.354249 4.41609 0.358202 4.40781 0.367709C4.39971 0.377008 4.38816 0.389767 4.3725 0.40625C4.30638 0.475852 4.19841 0.578961 4.03838 0.720163L5.36162 2.21984ZM5.27 1.87H7.37V-0.130001H5.27V1.87ZM6.37 0.869999V16.14H8.37V0.869999H6.37ZM7.37 17.14H11.18V15.14H7.37V17.14ZM27.552 13.92L26.6499 13.4885L26.6472 13.4942L27.552 13.92ZM24.882 17.13L25.4467 17.9553L24.882 17.13ZM17.142 17.13L16.5705 17.9506L16.5773 17.9553L17.142 17.13ZM14.472 13.92L13.5699 14.3515L13.5724 14.3566L14.472 13.92ZM14.472 4.53L15.3717 4.9666L15.3742 4.96145L14.472 4.53ZM17.142 1.29L17.7135 2.11061L17.7165 2.10855L17.142 1.29ZM24.882 1.29L24.3076 2.10861L24.3173 2.1153L24.882 1.29ZM27.552 4.53L26.6448 4.95072L26.6485 4.95869L26.6524 4.9666L27.552 4.53ZM25.782 5.46L24.862 5.85186L25.782 5.46ZM23.862 2.94L23.2589 3.73766L23.2652 3.74239L23.2715 3.74703L23.862 2.94ZM18.162 2.94L18.7525 3.74703L18.7589 3.74239L18.7651 3.73766L18.162 2.94ZM16.212 5.46L15.2982 5.05386L15.2951 5.06098L15.292 5.06814L16.212 5.46ZM16.212 12.96L15.292 13.3519L15.2951 13.359L15.2982 13.3661L16.212 12.96ZM18.162 15.48L18.7525 14.673H18.7525L18.162 15.48ZM23.862 15.48L24.4525 16.287L24.4589 16.2824L24.4651 16.2777L23.862 15.48ZM25.782 12.96L26.6994 13.3581L26.7021 13.3519L25.782 12.96ZM27.542 9.21C27.542 10.8431 27.2364 12.2621 26.6499 13.4885L28.4542 14.3515C29.1876 12.8179 29.542 11.0969 29.542 9.21H27.542ZM26.6472 13.4942C26.0761 14.7078 25.2976 15.634 24.3173 16.3047L25.4467 17.9553C26.7464 17.066 27.7479 15.8522 28.4569 14.3458L26.6472 13.4942ZM24.3173 16.3047C23.351 16.9659 22.2596 17.3 21.012 17.3V19.3C22.6445 19.3 24.1331 18.8541 25.4467 17.9553L24.3173 16.3047ZM21.012 17.3C19.7645 17.3 18.6731 16.9659 17.7067 16.3047L16.5773 17.9553C17.891 18.8541 19.3796 19.3 21.012 19.3V17.3ZM17.7135 16.3094C16.7487 15.6374 15.9652 14.7064 15.3717 13.4834L13.5724 14.3566C14.2989 15.8536 15.2954 17.0626 16.5705 17.9506L17.7135 16.3094ZM15.3742 13.4885C14.7876 12.2621 14.482 10.8431 14.482 9.21H12.482C12.482 11.0969 12.8364 12.8179 13.5699 14.3515L15.3742 13.4885ZM14.482 9.21C14.482 7.57648 14.7877 6.16987 15.3717 4.9666L13.5724 4.0934C12.8363 5.61012 12.482 7.32352 12.482 9.21H14.482ZM15.3742 4.96145C15.9687 3.71836 16.7521 2.78017 17.7135 2.11061L16.5705 0.469393C15.292 1.35983 14.2954 2.58164 13.5699 4.09854L15.3742 4.96145ZM17.7165 2.10855C18.6822 1.43084 19.7702 1.09 21.012 1.09V-0.91C19.3739 -0.91 17.8819 -0.450846 16.5676 0.471442L17.7165 2.10855ZM21.012 1.09C22.2539 1.09 23.3419 1.43084 24.3076 2.10855L25.4565 0.471442C24.1422 -0.450846 22.6502 -0.91 21.012 -0.91V1.09ZM24.3173 2.1153C25.2941 2.78362 26.0726 3.71692 26.6448 4.95072L28.4592 4.10927C27.7514 2.58307 26.75 1.35638 25.4467 0.464692L24.3173 2.1153ZM26.6524 4.9666C27.2363 6.16987 27.542 7.57648 27.542 9.21H29.542C29.542 7.32352 29.1877 5.61012 28.4517 4.0934L26.6524 4.9666ZM27.472 9.21C27.472 7.68292 27.2247 6.29513 26.7021 5.06814L24.862 5.85186C25.2594 6.78487 25.472 7.89708 25.472 9.21H27.472ZM26.7021 5.06814C26.1827 3.84873 25.439 2.85479 24.4525 2.13297L23.2715 3.74703C23.925 4.22521 24.4614 4.91127 24.862 5.85186L26.7021 5.06814ZM24.4651 2.14234C23.4623 1.38411 22.298 1.01 21.012 1.01V3.01C21.8861 3.01 22.6217 3.25589 23.2589 3.73766L24.4651 2.14234ZM21.012 1.01C19.7261 1.01 18.5617 1.38411 17.5589 2.14234L18.7651 3.73766C19.4023 3.25589 20.138 3.01 21.012 3.01V1.01ZM17.5715 2.13297C16.5891 2.85184 15.8375 3.84059 15.2982 5.05386L17.1258 5.86614C17.5466 4.9194 18.095 4.22816 18.7525 3.74703L17.5715 2.13297ZM15.292 5.06814C14.7694 6.29513 14.522 7.68292 14.522 9.21H16.522C16.522 7.89708 16.7347 6.78487 17.1321 5.85186L15.292 5.06814ZM14.522 9.21C14.522 10.7371 14.7694 12.1249 15.292 13.3519L17.1321 12.5681C16.7347 11.6351 16.522 10.5229 16.522 9.21H14.522ZM15.2982 13.3661C15.8375 14.5794 16.5891 15.5682 17.5715 16.287L18.7525 14.673C18.095 14.1918 17.5466 13.5006 17.1258 12.5539L15.2982 13.3661ZM17.5715 16.287C18.574 17.0205 19.7339 17.38 21.012 17.38V15.38C20.1302 15.38 19.3901 15.1395 18.7525 14.673L17.5715 16.287ZM21.012 17.38C22.2902 17.38 23.4501 17.0205 24.4525 16.287L23.2715 14.673C22.634 15.1395 21.8939 15.38 21.012 15.38V17.38ZM24.4651 16.2777C25.4389 15.5414 26.1795 14.5562 26.6994 13.3581L24.8647 12.5619C24.4646 13.4838 23.9251 14.1786 23.2589 14.6823L24.4651 16.2777ZM26.7021 13.3519C27.2247 12.1249 27.472 10.7371 27.472 9.21H25.472C25.472 10.5229 25.2594 11.6351 24.862 12.5681L26.7021 13.3519Z" fill="url(#paint0_linear_86_1737)" mask="url(#path-1-outside-1_86_1737)"/>
<defs>
<linearGradient id="paint0_linear_86_1737" x1="15" y1="-14" x2="15" y2="28" gradientUnits="userSpaceOnUse">
<stop stop-color="#3BB96D"/>
<stop offset="1" stop-color="#279A59"/>
</linearGradient>
</defs>
</svg>
