<svg width="25" height="18" viewBox="0 0 25 18" fill="none" xmlns="http://www.w3.org/2000/svg">
<mask id="path-1-outside-1_86_1740" maskUnits="userSpaceOnUse" x="-1" y="-1" width="27" height="20" fill="black">
<rect fill="white" x="-1" y="-1" width="27" height="20"/>
<path d="M11.18 16.14V18H1.01V16.14H5.27V3.3C5.11 3.54 4.84 3.8 4.46 4.08C4.08 4.36 3.64 4.62 3.14 4.86C2.66 5.1 2.18 5.3 1.7 5.46C1.22 5.62 0.78 5.7 0.38 5.7V3.72C0.84 3.72 1.34 3.59 1.88 3.33C2.42 3.07 2.94 2.77 3.44 2.43C3.94 2.09 4.36 1.77 4.7 1.47C5.04 1.17 5.23 0.969999 5.27 0.869999H7.37V16.14H11.18ZM24.012 16.14V18H13.842V16.14H18.102V3.3C17.942 3.54 17.672 3.8 17.292 4.08C16.912 4.36 16.472 4.62 15.972 4.86C15.492 5.1 15.012 5.3 14.532 5.46C14.052 5.62 13.612 5.7 13.212 5.7V3.72C13.672 3.72 14.172 3.59 14.712 3.33C15.252 3.07 15.772 2.77 16.272 2.43C16.772 2.09 17.192 1.77 17.532 1.47C17.872 1.17 18.062 0.969999 18.102 0.869999H20.202V16.14H24.012Z"/>
</mask>
<path d="M11.18 16.14H12.18V15.14H11.18V16.14ZM11.18 18V19H12.18V18H11.18ZM1.01 18H0.00999999V19H1.01V18ZM1.01 16.14V15.14H0.00999999V16.14H1.01ZM5.27 16.14V17.14H6.27V16.14H5.27ZM5.27 3.3H6.27V-0.00277424L4.43795 2.7453L5.27 3.3ZM4.46 4.08L5.0532 4.88506L4.46 4.08ZM3.14 4.86L2.70727 3.95848L2.7 3.96197L2.69279 3.96557L3.14 4.86ZM1.7 5.46L2.01623 6.40868L2.01623 6.40868L1.7 5.46ZM0.38 5.7H-0.62V6.7H0.38V5.7ZM0.38 3.72V2.72H-0.62V3.72H0.38ZM1.88 3.33L1.44618 2.429H1.44618L1.88 3.33ZM3.44 2.43L2.87769 1.60307L2.87769 1.60307L3.44 2.43ZM4.7 1.47L5.36162 2.21984L5.36162 2.21984L4.7 1.47ZM5.27 0.869999V-0.130001H4.59297L4.34152 0.49861L5.27 0.869999ZM7.37 0.869999H8.37V-0.130001H7.37V0.869999ZM7.37 16.14H6.37V17.14H7.37V16.14ZM10.18 16.14V18H12.18V16.14H10.18ZM11.18 17H1.01V19H11.18V17ZM2.01 18V16.14H0.00999999V18H2.01ZM1.01 17.14H5.27V15.14H1.01V17.14ZM6.27 16.14V3.3H4.27V16.14H6.27ZM4.43795 2.7453C4.37039 2.84664 4.20498 3.02576 3.8668 3.27494L5.0532 4.88506C5.47502 4.57424 5.84961 4.23336 6.10205 3.8547L4.43795 2.7453ZM3.8668 3.27494C3.54498 3.51207 3.16038 3.74098 2.70727 3.95848L3.57273 5.76152C4.11962 5.49902 4.61502 5.20793 5.0532 4.88506L3.8668 3.27494ZM2.69279 3.96557C2.25257 4.18568 1.81627 4.36715 1.38377 4.51132L2.01623 6.40868C2.54373 6.23285 3.06743 6.01432 3.58721 5.75443L2.69279 3.96557ZM1.38377 4.51132C0.979999 4.64591 0.648383 4.7 0.38 4.7V6.7C0.911617 6.7 1.46 6.59409 2.01623 6.40868L1.38377 4.51132ZM1.38 5.7V3.72H-0.62V5.7H1.38ZM0.38 4.72C1.02854 4.72 1.67788 4.53719 2.31382 4.231L1.44618 2.429C1.00212 2.64281 0.651462 2.72 0.38 2.72V4.72ZM2.31382 4.231C2.89882 3.94933 3.46174 3.62452 4.00231 3.25692L2.87769 1.60307C2.41826 1.91548 1.94118 2.19066 1.44618 2.429L2.31382 4.231ZM4.00231 3.25693C4.52634 2.90058 4.98179 2.55498 5.36162 2.21984L4.03838 0.720161C3.73821 0.98502 3.35366 1.27942 2.87769 1.60307L4.00231 3.25693ZM5.36162 2.21984C5.54159 2.06104 5.69862 1.91415 5.8225 1.78375C5.90927 1.69241 6.09836 1.49169 6.19848 1.24139L4.34152 0.49861C4.36434 0.441574 4.38735 0.402525 4.39807 0.385247C4.40987 0.366214 4.41788 0.355823 4.41827 0.355318C4.41909 0.354249 4.41609 0.358202 4.40781 0.367709C4.39971 0.377008 4.38816 0.389767 4.3725 0.40625C4.30638 0.475852 4.19841 0.578961 4.03838 0.720163L5.36162 2.21984ZM5.27 1.87H7.37V-0.130001H5.27V1.87ZM6.37 0.869999V16.14H8.37V0.869999H6.37ZM7.37 17.14H11.18V15.14H7.37V17.14ZM24.012 16.14H25.012V15.14H24.012V16.14ZM24.012 18V19H25.012V18H24.012ZM13.842 18H12.842V19H13.842V18ZM13.842 16.14V15.14H12.842V16.14H13.842ZM18.102 16.14V17.14H19.102V16.14H18.102ZM18.102 3.3H19.102V-0.00277424L17.27 2.7453L18.102 3.3ZM17.292 4.08L17.8852 4.88506L17.292 4.08ZM15.972 4.86L15.5393 3.95848L15.532 3.96197L15.5248 3.96557L15.972 4.86ZM14.532 5.46L14.8483 6.40868L14.8483 6.40868L14.532 5.46ZM13.212 5.7H12.212V6.7H13.212V5.7ZM13.212 3.72V2.72H12.212V3.72H13.212ZM14.712 3.33L14.2782 2.429L14.712 3.33ZM16.272 2.43L15.7097 1.60307L15.7097 1.60307L16.272 2.43ZM17.532 1.47L18.1937 2.21984L18.1937 2.21984L17.532 1.47ZM18.102 0.869999V-0.130001H17.425L17.1736 0.49861L18.102 0.869999ZM20.202 0.869999H21.202V-0.130001H20.202V0.869999ZM20.202 16.14H19.202V17.14H20.202V16.14ZM23.012 16.14V18H25.012V16.14H23.012ZM24.012 17H13.842V19H24.012V17ZM14.842 18V16.14H12.842V18H14.842ZM13.842 17.14H18.102V15.14H13.842V17.14ZM19.102 16.14V3.3H17.102V16.14H19.102ZM17.27 2.7453C17.2024 2.84664 17.037 3.02576 16.6988 3.27494L17.8852 4.88506C18.307 4.57424 18.6816 4.23336 18.9341 3.8547L17.27 2.7453ZM16.6988 3.27494C16.377 3.51207 15.9924 3.74098 15.5393 3.95848L16.4048 5.76152C16.9517 5.49902 17.447 5.20793 17.8852 4.88506L16.6988 3.27494ZM15.5248 3.96557C15.0846 4.18568 14.6483 4.36715 14.2158 4.51132L14.8483 6.40868C15.3758 6.23285 15.8995 6.01432 16.4192 5.75443L15.5248 3.96557ZM14.2158 4.51132C13.812 4.64591 13.4804 4.7 13.212 4.7V6.7C13.7436 6.7 14.292 6.59409 14.8483 6.40868L14.2158 4.51132ZM14.212 5.7V3.72H12.212V5.7H14.212ZM13.212 4.72C13.8606 4.72 14.5099 4.53719 15.1458 4.231L14.2782 2.429C13.8342 2.64281 13.4835 2.72 13.212 2.72V4.72ZM15.1458 4.231C15.7308 3.94933 16.2938 3.62452 16.8343 3.25692L15.7097 1.60307C15.2503 1.91548 14.7732 2.19066 14.2782 2.429L15.1458 4.231ZM16.8343 3.25693C17.3584 2.90058 17.8138 2.55498 18.1937 2.21984L16.8704 0.720161C16.5702 0.98502 16.1857 1.27942 15.7097 1.60307L16.8343 3.25693ZM18.1937 2.21984C18.3736 2.06104 18.5307 1.91415 18.6545 1.78375C18.7413 1.69241 18.9304 1.49169 19.0305 1.24139L17.1736 0.49861C17.1964 0.441574 17.2194 0.402525 17.2301 0.385247C17.2419 0.366214 17.2499 0.355823 17.2503 0.355318C17.2511 0.354249 17.2481 0.358202 17.2398 0.367709C17.2317 0.377008 17.2202 0.389767 17.2045 0.40625C17.1384 0.475852 17.0304 0.578961 16.8704 0.720163L18.1937 2.21984ZM18.102 1.87H20.202V-0.130001H18.102V1.87ZM19.202 0.869999V16.14H21.202V0.869999H19.202ZM20.202 17.14H24.012V15.14H20.202V17.14Z" fill="url(#paint0_linear_86_1740)" mask="url(#path-1-outside-1_86_1740)"/>
<defs>
<linearGradient id="paint0_linear_86_1740" x1="12" y1="-14" x2="12" y2="28" gradientUnits="userSpaceOnUse">
<stop stop-color="#3BB96D"/>
<stop offset="1" stop-color="#279A59"/>
</linearGradient>
</defs>
</svg>
