<svg width="27" height="18" viewBox="0 0 27 18" fill="none" xmlns="http://www.w3.org/2000/svg">
<mask id="path-1-outside-1_86_1743" maskUnits="userSpaceOnUse" x="-1" y="-1" width="29" height="20" fill="black">
<rect fill="white" x="-1" y="-1" width="29" height="20"/>
<path d="M11.18 16.14V18H1.01V16.14H5.27V3.3C5.11 3.54 4.84 3.8 4.46 4.08C4.08 4.36 3.64 4.62 3.14 4.86C2.66 5.1 2.18 5.3 1.7 5.46C1.22 5.62 0.78 5.7 0.38 5.7V3.72C0.84 3.72 1.34 3.59 1.88 3.33C2.42 3.07 2.94 2.77 3.44 2.43C3.94 2.09 4.36 1.77 4.7 1.47C5.04 1.17 5.23 0.969999 5.27 0.869999H7.37V16.14H11.18ZM13.152 18C13.152 17.32 13.212 16.64 13.332 15.96C13.452 15.26 13.682 14.57 14.022 13.89C14.362 13.21 14.862 12.56 15.522 11.94C16.182 11.3 17.052 10.7 18.132 10.14C18.712 9.84 19.312 9.55 19.932 9.27C20.552 8.97 21.132 8.65 21.672 8.31C22.232 7.95 22.672 7.55 22.992 7.11C23.332 6.65 23.502 6.11 23.502 5.49C23.502 4.99 23.352 4.5 23.052 4.02C22.772 3.54 22.332 3.15 21.732 2.85C21.152 2.55 20.422 2.4 19.542 2.4C18.902 2.4 18.322 2.49 17.802 2.67C17.282 2.85 16.822 3.08 16.422 3.36C16.022 3.62 15.682 3.89 15.402 4.17C15.122 4.43 14.892 4.65 14.712 4.83L13.422 3.42C13.522 3.3 13.742 3.09 14.082 2.79C14.442 2.47 14.892 2.14 15.432 1.8C15.992 1.46 16.642 1.17 17.382 0.93C18.142 0.689999 18.972 0.569999 19.872 0.569999C21.092 0.569999 22.132 0.789999 22.992 1.23C23.872 1.65 24.542 2.22 25.002 2.94C25.462 3.66 25.692 4.44 25.692 5.28C25.692 6.1 25.512 6.81 25.152 7.41C24.812 7.99 24.362 8.5 23.802 8.94C23.262 9.36 22.692 9.73 22.092 10.05C21.512 10.35 20.982 10.61 20.502 10.83C19.562 11.27 18.772 11.71 18.132 12.15C17.492 12.59 16.982 13.04 16.602 13.5C16.222 13.94 15.922 14.38 15.702 14.82C15.502 15.24 15.362 15.68 15.282 16.14H26.022V18H13.152Z"/>
</mask>
<path d="M11.18 16.14H12.18V15.14H11.18V16.14ZM11.18 18V19H12.18V18H11.18ZM1.01 18H0.00999999V19H1.01V18ZM1.01 16.14V15.14H0.00999999V16.14H1.01ZM5.27 16.14V17.14H6.27V16.14H5.27ZM5.27 3.3H6.27V-0.00277424L4.43795 2.7453L5.27 3.3ZM4.46 4.08L5.0532 4.88506L4.46 4.08ZM3.14 4.86L2.70727 3.95848L2.7 3.96197L2.69279 3.96557L3.14 4.86ZM1.7 5.46L2.01623 6.40868L2.01623 6.40868L1.7 5.46ZM0.38 5.7H-0.62V6.7H0.38V5.7ZM0.38 3.72V2.72H-0.62V3.72H0.38ZM1.88 3.33L1.44618 2.429H1.44618L1.88 3.33ZM3.44 2.43L2.87769 1.60307L2.87769 1.60307L3.44 2.43ZM4.7 1.47L5.36162 2.21984L5.36162 2.21984L4.7 1.47ZM5.27 0.869999V-0.130001H4.59297L4.34152 0.49861L5.27 0.869999ZM7.37 0.869999H8.37V-0.130001H7.37V0.869999ZM7.37 16.14H6.37V17.14H7.37V16.14ZM10.18 16.14V18H12.18V16.14H10.18ZM11.18 17H1.01V19H11.18V17ZM2.01 18V16.14H0.00999999V18H2.01ZM1.01 17.14H5.27V15.14H1.01V17.14ZM6.27 16.14V3.3H4.27V16.14H6.27ZM4.43795 2.7453C4.37039 2.84664 4.20498 3.02576 3.8668 3.27494L5.0532 4.88506C5.47502 4.57424 5.84961 4.23336 6.10205 3.8547L4.43795 2.7453ZM3.8668 3.27494C3.54498 3.51207 3.16038 3.74098 2.70727 3.95848L3.57273 5.76152C4.11962 5.49902 4.61502 5.20793 5.0532 4.88506L3.8668 3.27494ZM2.69279 3.96557C2.25257 4.18568 1.81627 4.36715 1.38377 4.51132L2.01623 6.40868C2.54373 6.23285 3.06743 6.01432 3.58721 5.75443L2.69279 3.96557ZM1.38377 4.51132C0.979999 4.64591 0.648383 4.7 0.38 4.7V6.7C0.911617 6.7 1.46 6.59409 2.01623 6.40868L1.38377 4.51132ZM1.38 5.7V3.72H-0.62V5.7H1.38ZM0.38 4.72C1.02854 4.72 1.67788 4.53719 2.31382 4.231L1.44618 2.429C1.00212 2.64281 0.651462 2.72 0.38 2.72V4.72ZM2.31382 4.231C2.89882 3.94933 3.46174 3.62452 4.00231 3.25692L2.87769 1.60307C2.41826 1.91548 1.94118 2.19066 1.44618 2.429L2.31382 4.231ZM4.00231 3.25693C4.52634 2.90058 4.98179 2.55498 5.36162 2.21984L4.03838 0.720161C3.73821 0.98502 3.35366 1.27942 2.87769 1.60307L4.00231 3.25693ZM5.36162 2.21984C5.54159 2.06104 5.69862 1.91415 5.8225 1.78375C5.90927 1.69241 6.09836 1.49169 6.19848 1.24139L4.34152 0.49861C4.36434 0.441574 4.38735 0.402525 4.39807 0.385247C4.40987 0.366214 4.41788 0.355823 4.41827 0.355318C4.41909 0.354249 4.41609 0.358202 4.40781 0.367709C4.39971 0.377008 4.38816 0.389767 4.3725 0.40625C4.30638 0.475852 4.19841 0.578961 4.03838 0.720163L5.36162 2.21984ZM5.27 1.87H7.37V-0.130001H5.27V1.87ZM6.37 0.869999V16.14H8.37V0.869999H6.37ZM7.37 17.14H11.18V15.14H7.37V17.14ZM13.152 18H12.152V19H13.152V18ZM13.332 15.96L14.3168 16.1338L14.3177 16.129L13.332 15.96ZM14.022 13.89L14.9165 14.3372H14.9165L14.022 13.89ZM15.522 11.94L16.2067 12.6688L16.2125 12.6634L16.2182 12.6579L15.522 11.94ZM18.132 10.14L17.6726 9.25178L17.6717 9.25224L18.132 10.14ZM19.932 9.27L20.3436 10.1814L20.3557 10.1759L20.3676 10.1702L19.932 9.27ZM21.672 8.31L22.2049 9.15627L22.2128 9.15118L21.672 8.31ZM22.992 7.11L22.1878 6.51559L22.1833 6.52183L22.992 7.11ZM23.052 4.02L22.1883 4.52387L22.1959 4.53706L22.204 4.55L23.052 4.02ZM21.732 2.85L21.2726 3.7383L21.2848 3.74443L21.732 2.85ZM17.802 2.67L18.1291 3.61498L17.802 2.67ZM16.422 3.36L16.967 4.19844L16.9814 4.18908L16.9955 4.17923L16.422 3.36ZM15.402 4.17L16.0825 4.90279L16.096 4.8902L16.1091 4.87711L15.402 4.17ZM14.712 4.83L13.9742 5.50501L14.6799 6.27634L15.4191 5.53711L14.712 4.83ZM13.422 3.42L12.6538 2.77981L12.0947 3.45069L12.6842 4.09501L13.422 3.42ZM14.082 2.79L14.7437 3.53984L14.7464 3.53741L14.082 2.79ZM15.432 1.8L14.9131 0.945212L14.9061 0.949433L14.8992 0.953767L15.432 1.8ZM17.382 0.93L17.0809 -0.0236111L17.0735 -0.0212231L17.382 0.93ZM22.992 1.23L22.5366 2.12025L22.5488 2.12654L22.5613 2.13248L22.992 1.23ZM25.002 2.94L24.1593 3.47839L25.002 2.94ZM25.152 7.41L24.2945 6.89548L24.2893 6.90428L25.152 7.41ZM23.802 8.94L24.416 9.72936L24.4199 9.72632L23.802 8.94ZM22.092 10.05L22.5515 10.9383L22.5626 10.9324L22.092 10.05ZM20.502 10.83L20.0854 9.92091L20.0781 9.92431L20.502 10.83ZM16.602 13.5L17.3589 14.1536L17.366 14.1453L17.373 14.1369L16.602 13.5ZM15.702 14.82L14.8076 14.3728L14.8033 14.3814L14.7992 14.3901L15.702 14.82ZM15.282 16.14L14.2968 15.9687L14.0931 17.14H15.282V16.14ZM26.022 16.14H27.022V15.14H26.022V16.14ZM26.022 18V19H27.022V18H26.022ZM14.152 18C14.152 17.3792 14.2068 16.7573 14.3168 16.1338L12.3472 15.7862C12.2173 16.5227 12.152 17.2608 12.152 18H14.152ZM14.3177 16.129C14.4199 15.5323 14.6173 14.9356 14.9165 14.3372L13.1276 13.4428C12.7468 14.2044 12.4841 14.9877 12.3464 15.791L14.3177 16.129ZM14.9165 14.3372C15.1947 13.7807 15.6167 13.2231 16.2067 12.6688L14.8374 11.2112C14.1074 11.8969 13.5294 12.6393 13.1276 13.4428L14.9165 14.3372ZM16.2182 12.6579C16.7899 12.1035 17.5727 11.5565 18.5923 11.0278L17.6717 9.25224C16.5314 9.84352 15.5742 10.4965 14.8259 11.2221L16.2182 12.6579ZM18.5915 11.0282C19.1551 10.7367 19.7391 10.4544 20.3436 10.1814L19.5204 8.35863C18.885 8.64562 18.269 8.94331 17.6726 9.25178L18.5915 11.0282ZM20.3676 10.1702C21.0184 9.85526 21.6311 9.51748 22.2048 9.15623L21.1392 7.46377C20.633 7.78252 20.0857 8.08474 19.4965 8.36984L20.3676 10.1702ZM22.2128 9.15118C22.8544 8.7387 23.3936 8.25802 23.8008 7.69817L22.1833 6.52183C21.9505 6.84197 21.6096 7.1613 21.1313 7.46882L22.2128 9.15118ZM23.7962 7.70439C24.2742 7.05765 24.502 6.30499 24.502 5.49H22.502C22.502 5.91501 22.3898 6.24236 22.1879 6.51561L23.7962 7.70439ZM24.502 5.49C24.502 4.7787 24.2859 4.10739 23.9 3.49L22.204 4.55C22.4182 4.89261 22.502 5.2013 22.502 5.49H24.502ZM23.9158 3.51613C23.5192 2.83621 22.9167 2.3243 22.1792 1.95557L21.2848 3.74443C21.7474 3.9757 22.0249 4.24379 22.1883 4.52387L23.9158 3.51613ZM22.1915 1.96178C21.4288 1.56731 20.5288 1.4 19.542 1.4V3.4C20.3152 3.4 20.8752 3.53269 21.2726 3.73822L22.1915 1.96178ZM19.542 1.4C18.8085 1.4 18.1157 1.5032 17.4749 1.72501L18.1291 3.61498C18.5283 3.4768 18.9956 3.4 19.542 3.4V1.4ZM17.4749 1.72501C16.8783 1.93154 16.3334 2.2014 15.8486 2.54077L16.9955 4.17923C17.3107 3.9586 17.6858 3.76846 18.1291 3.61498L17.4749 1.72501ZM15.877 2.52155C15.43 2.81211 15.033 3.12477 14.6949 3.46289L16.1091 4.87711C16.331 4.65523 16.614 4.42789 16.967 4.19844L15.877 2.52155ZM14.7216 3.43721C14.4365 3.7019 14.1968 3.93102 14.0049 4.12289L15.4191 5.53711C15.5873 5.36898 15.8075 5.1581 16.0825 4.90279L14.7216 3.43721ZM15.4498 4.15499L14.1598 2.74499L12.6842 4.09501L13.9742 5.50501L15.4498 4.15499ZM14.1903 4.06018C14.2334 4.00843 14.3953 3.84717 14.7437 3.53984L13.4204 2.04016C13.0887 2.33282 12.8107 2.59157 12.6538 2.77981L14.1903 4.06018ZM14.7464 3.53741C15.0546 3.26344 15.4574 2.96576 15.9648 2.64623L14.8992 0.953767C14.3267 1.31424 13.8295 1.67656 13.4177 2.04259L14.7464 3.53741ZM15.951 2.65479C16.4339 2.36163 17.0109 2.10165 17.6905 1.88122L17.0735 -0.0212231C16.2732 0.238351 15.5502 0.558367 14.9131 0.945212L15.951 2.65479ZM17.6832 1.88358C18.3341 1.67803 19.0612 1.57 19.872 1.57V-0.430001C18.8829 -0.430001 17.95 -0.298032 17.0809 -0.0235825L17.6832 1.88358ZM19.872 1.57C20.9743 1.57 21.8497 1.76885 22.5366 2.12025L23.4475 0.339751C22.4143 -0.18885 21.2098 -0.430001 19.872 -0.430001V1.57ZM22.5613 2.13248C23.297 2.48363 23.8136 2.93717 24.1593 3.47839L25.8447 2.40161C25.2705 1.50283 24.447 0.816371 23.4228 0.327518L22.5613 2.13248ZM24.1593 3.47839C24.5185 4.04053 24.692 4.63423 24.692 5.28H26.692C26.692 4.24577 26.4056 3.27947 25.8447 2.40161L24.1593 3.47839ZM24.692 5.28C24.692 5.95028 24.5463 6.47589 24.2945 6.8955L26.0095 7.9245C26.4778 7.14411 26.692 6.24972 26.692 5.28H24.692ZM24.2893 6.90428C24.0164 7.36994 23.6516 7.78641 23.1842 8.15368L24.4199 9.72632C25.0724 9.21359 25.6077 8.61006 26.0147 7.91572L24.2893 6.90428ZM23.1881 8.15065C22.6929 8.53583 22.1708 8.87466 21.6214 9.16765L22.5626 10.9324C23.2133 10.5853 23.8312 10.1842 24.416 9.72935L23.1881 8.15065ZM21.6326 9.16178C21.0636 9.45612 20.5481 9.70887 20.0854 9.92093L20.9187 11.7391C21.416 11.5111 21.9605 11.2439 22.5515 10.9382L21.6326 9.16178ZM20.0781 9.92431C19.1038 10.3804 18.2629 10.8465 17.5655 11.326L18.6986 12.974C19.2812 12.5735 20.0202 12.1596 20.926 11.7357L20.0781 9.92431ZM17.5655 11.326C16.8707 11.8036 16.2849 12.3138 15.8311 12.8631L17.373 14.1369C17.6792 13.7662 18.1134 13.3764 18.6986 12.974L17.5655 11.326ZM15.8452 12.8464C15.4205 13.3382 15.0707 13.8465 14.8076 14.3728L16.5965 15.2672C16.7733 14.9135 17.0236 14.5418 17.3589 14.1536L15.8452 12.8464ZM14.7992 14.3901C14.56 14.8924 14.3923 15.4195 14.2968 15.9687L16.2672 16.3113C16.3317 15.9405 16.4441 15.5876 16.6049 15.2499L14.7992 14.3901ZM15.282 17.14H26.022V15.14H15.282V17.14ZM25.022 16.14V18H27.022V16.14H25.022ZM26.022 17H13.152V19H26.022V17Z" fill="url(#paint0_linear_86_1743)" mask="url(#path-1-outside-1_86_1743)"/>
<defs>
<linearGradient id="paint0_linear_86_1743" x1="13.5" y1="-14" x2="13.5" y2="28" gradientUnits="userSpaceOnUse">
<stop stop-color="#3BB96D"/>
<stop offset="1" stop-color="#279A59"/>
</linearGradient>
</defs>
</svg>
