<svg width="27" height="23" viewBox="0 0 27 23" fill="none" xmlns="http://www.w3.org/2000/svg">
<mask id="path-1-outside-1_86_1746" maskUnits="userSpaceOnUse" x="-1" y="-1" width="29" height="25" fill="black">
<rect fill="white" x="-1" y="-1" width="29" height="25"/>
<path d="M11.18 16.14V18H1.01V16.14H5.27V3.3C5.11 3.54 4.84 3.8 4.46 4.08C4.08 4.36 3.64 4.62 3.14 4.86C2.66 5.1 2.18 5.3 1.7 5.46C1.22 5.62 0.78 5.7 0.38 5.7V3.72C0.84 3.72 1.34 3.59 1.88 3.33C2.42 3.07 2.94 2.77 3.44 2.43C3.94 2.09 4.36 1.77 4.7 1.47C5.04 1.17 5.23 0.969999 5.27 0.869999H7.37V16.14H11.18ZM22.122 10.92C23.022 11.06 23.792 11.38 24.432 11.88C25.072 12.38 25.572 13.01 25.932 13.77C26.292 14.53 26.472 15.39 26.472 16.35C26.472 17.55 26.182 18.61 25.602 19.53C25.022 20.45 24.212 21.16 23.172 21.66C22.132 22.16 20.922 22.41 19.542 22.41C18.022 22.41 16.692 22.1 15.552 21.48C14.412 20.88 13.552 20.04 12.972 18.96L14.382 17.67C14.822 18.53 15.472 19.22 16.332 19.74C17.192 20.28 18.262 20.55 19.542 20.55C21.022 20.55 22.192 20.18 23.052 19.44C23.932 18.72 24.372 17.68 24.372 16.32C24.372 14.96 23.912 13.88 22.992 13.08C22.092 12.26 20.802 11.85 19.122 11.85H18.372V10.11H19.182C20.722 10.11 21.902 9.75 22.722 9.03C23.542 8.31 23.952 7.39 23.952 6.27C23.952 5.45 23.762 4.77 23.382 4.23C23.002 3.69 22.482 3.28 21.822 3C21.182 2.72 20.442 2.58 19.602 2.58C18.462 2.58 17.452 2.84 16.572 3.36C15.712 3.86 15.062 4.56 14.622 5.46L13.302 4.2C13.642 3.5 14.132 2.89 14.772 2.37C15.412 1.85 16.162 1.45 17.022 1.17C17.882 0.869999 18.802 0.719999 19.782 0.719999C21.022 0.719999 22.112 0.949999 23.052 1.41C23.992 1.85 24.732 2.47 25.272 3.27C25.812 4.07 26.082 5.01 26.082 6.09C26.082 6.89 25.922 7.63 25.602 8.31C25.282 8.99 24.822 9.56 24.222 10.02C23.642 10.48 22.942 10.78 22.122 10.92Z"/>
</mask>
<path d="M11.18 16.14H12.18V15.14H11.18V16.14ZM11.18 18V19H12.18V18H11.18ZM1.01 18H0.00999999V19H1.01V18ZM1.01 16.14V15.14H0.00999999V16.14H1.01ZM5.27 16.14V17.14H6.27V16.14H5.27ZM5.27 3.3H6.27V-0.00277424L4.43795 2.7453L5.27 3.3ZM4.46 4.08L5.0532 4.88506L4.46 4.08ZM3.14 4.86L2.70727 3.95848L2.7 3.96197L2.69279 3.96557L3.14 4.86ZM1.7 5.46L2.01623 6.40868L2.01623 6.40868L1.7 5.46ZM0.38 5.7H-0.62V6.7H0.38V5.7ZM0.38 3.72V2.72H-0.62V3.72H0.38ZM1.88 3.33L1.44618 2.429H1.44618L1.88 3.33ZM3.44 2.43L2.87769 1.60307L2.87769 1.60307L3.44 2.43ZM4.7 1.47L5.36162 2.21984L5.36162 2.21984L4.7 1.47ZM5.27 0.869999V-0.130001H4.59297L4.34152 0.49861L5.27 0.869999ZM7.37 0.869999H8.37V-0.130001H7.37V0.869999ZM7.37 16.14H6.37V17.14H7.37V16.14ZM10.18 16.14V18H12.18V16.14H10.18ZM11.18 17H1.01V19H11.18V17ZM2.01 18V16.14H0.00999999V18H2.01ZM1.01 17.14H5.27V15.14H1.01V17.14ZM6.27 16.14V3.3H4.27V16.14H6.27ZM4.43795 2.7453C4.37039 2.84664 4.20498 3.02576 3.8668 3.27494L5.0532 4.88506C5.47502 4.57424 5.84961 4.23336 6.10205 3.8547L4.43795 2.7453ZM3.8668 3.27494C3.54498 3.51207 3.16038 3.74098 2.70727 3.95848L3.57273 5.76152C4.11962 5.49902 4.61502 5.20793 5.0532 4.88506L3.8668 3.27494ZM2.69279 3.96557C2.25257 4.18568 1.81627 4.36715 1.38377 4.51132L2.01623 6.40868C2.54373 6.23285 3.06743 6.01432 3.58721 5.75443L2.69279 3.96557ZM1.38377 4.51132C0.979999 4.64591 0.648383 4.7 0.38 4.7V6.7C0.911617 6.7 1.46 6.59409 2.01623 6.40868L1.38377 4.51132ZM1.38 5.7V3.72H-0.62V5.7H1.38ZM0.38 4.72C1.02854 4.72 1.67788 4.53719 2.31382 4.231L1.44618 2.429C1.00212 2.64281 0.651462 2.72 0.38 2.72V4.72ZM2.31382 4.231C2.89882 3.94933 3.46174 3.62452 4.00231 3.25692L2.87769 1.60307C2.41826 1.91548 1.94118 2.19066 1.44618 2.429L2.31382 4.231ZM4.00231 3.25693C4.52634 2.90058 4.98179 2.55498 5.36162 2.21984L4.03838 0.720161C3.73821 0.98502 3.35366 1.27942 2.87769 1.60307L4.00231 3.25693ZM5.36162 2.21984C5.54159 2.06104 5.69862 1.91415 5.8225 1.78375C5.90927 1.69241 6.09836 1.49169 6.19848 1.24139L4.34152 0.49861C4.36434 0.441574 4.38735 0.402525 4.39807 0.385247C4.40987 0.366214 4.41788 0.355823 4.41827 0.355318C4.41909 0.354249 4.41609 0.358202 4.40781 0.367709C4.39971 0.377008 4.38816 0.389767 4.3725 0.40625C4.30638 0.475852 4.19841 0.578961 4.03838 0.720163L5.36162 2.21984ZM5.27 1.87H7.37V-0.130001H5.27V1.87ZM6.37 0.869999V16.14H8.37V0.869999H6.37ZM7.37 17.14H11.18V15.14H7.37V17.14ZM22.122 10.92L21.9537 9.93426L21.9683 11.9081L22.122 10.92ZM25.932 13.77L25.0283 14.1981L25.932 13.77ZM25.602 19.53L26.448 20.0633L25.602 19.53ZM23.172 21.66L23.6053 22.5613L23.172 21.66ZM15.552 21.48L16.0298 20.6014L16.0178 20.5951L15.552 21.48ZM12.972 18.96L12.297 18.2222L11.7228 18.7475L12.091 19.4331L12.972 18.96ZM14.382 17.67L15.2723 17.2145L14.6748 16.0468L13.707 16.9322L14.382 17.67ZM16.332 19.74L16.8638 18.8931L16.8567 18.8886L16.8495 18.8843L16.332 19.74ZM23.052 19.44L22.4188 18.666L22.4092 18.6739L22.3998 18.682L23.052 19.44ZM22.992 13.08L22.3185 13.8192L22.3271 13.827L22.3359 13.8346L22.992 13.08ZM18.372 11.85H17.372V12.85H18.372V11.85ZM18.372 10.11V9.11H17.372V10.11H18.372ZM22.722 9.03L22.0622 8.27856H22.0622L22.722 9.03ZM21.822 3L21.4212 3.91621L21.4315 3.92058L21.822 3ZM16.572 3.36L17.0747 4.22453L17.0808 4.22093L16.572 3.36ZM14.622 5.46L13.9316 6.18336L14.9202 7.12702L15.5204 5.89921L14.622 5.46ZM13.302 4.2L12.4025 3.7631L12.0837 4.41949L12.6116 4.92336L13.302 4.2ZM14.772 2.37L15.4026 3.14611L14.772 2.37ZM17.022 1.17L17.3316 2.12087L17.3415 2.11764L17.3514 2.1142L17.022 1.17ZM23.052 1.41L22.6125 2.30822L22.6203 2.31202L22.6281 2.31569L23.052 1.41ZM25.272 3.27L24.4432 3.82947H24.4432L25.272 3.27ZM24.222 10.02L23.6136 9.22639L23.6071 9.23139L23.6006 9.2365L24.222 10.02ZM21.9683 11.9081C22.7207 12.0251 23.3265 12.2853 23.8164 12.668L25.0477 11.092C24.2576 10.4747 23.3234 10.0949 22.2757 9.93188L21.9683 11.9081ZM23.8164 12.668C24.3292 13.0687 24.7325 13.5737 25.0283 14.1981L26.8358 13.3419C26.4115 12.4463 25.8148 11.6913 25.0477 11.092L23.8164 12.668ZM25.0283 14.1981C25.3165 14.8065 25.472 15.5171 25.472 16.35H27.472C27.472 15.2629 27.2676 14.2535 26.8358 13.3419L25.0283 14.1981ZM25.472 16.35C25.472 17.3814 25.2252 18.2526 24.7561 18.9967L26.448 20.0633C27.1389 18.9674 27.472 17.7186 27.472 16.35H25.472ZM24.7561 18.9967C24.2825 19.7479 23.6202 20.335 22.7387 20.7587L23.6053 22.5613C24.8039 21.985 25.7615 21.1521 26.448 20.0633L24.7561 18.9967ZM22.7387 20.7587C21.8579 21.1822 20.8011 21.41 19.542 21.41V23.41C21.043 23.41 22.4062 23.1378 23.6053 22.5613L22.7387 20.7587ZM19.542 21.41C18.1602 21.41 16.9999 21.1291 16.0298 20.6015L15.0743 22.3585C16.3842 23.0709 17.8838 23.41 19.542 23.41V21.41ZM16.0178 20.5951C15.0447 20.0829 14.3338 19.3821 13.853 18.4869L12.091 19.4331C12.7703 20.6979 13.7794 21.6771 15.0863 22.3649L16.0178 20.5951ZM13.647 19.6978L15.057 18.4078L13.707 16.9322L12.297 18.2222L13.647 19.6978ZM13.4918 18.1255C14.02 19.1578 14.8023 19.9836 15.8146 20.5957L16.8495 18.8843C16.1418 18.4564 15.6241 17.9022 15.2723 17.2145L13.4918 18.1255ZM15.8003 20.5869C16.8563 21.25 18.1226 21.55 19.542 21.55V19.55C18.4015 19.55 17.5278 19.31 16.8638 18.8931L15.8003 20.5869ZM19.542 21.55C21.1872 21.55 22.6135 21.1366 23.7043 20.198L22.3998 18.682C21.7705 19.2234 20.8569 19.55 19.542 19.55V21.55ZM23.6853 20.214C24.8435 19.2663 25.372 17.9148 25.372 16.32H23.372C23.372 17.4452 23.0205 18.1737 22.4188 18.666L23.6853 20.214ZM25.372 16.32C25.372 14.708 24.8134 13.3386 23.6482 12.3254L22.3359 13.8346C23.0107 14.4214 23.372 15.212 23.372 16.32H25.372ZM23.6655 12.3408C22.5214 11.2983 20.9559 10.85 19.122 10.85V12.85C20.6481 12.85 21.6627 13.2217 22.3185 13.8192L23.6655 12.3408ZM19.122 10.85H18.372V12.85H19.122V10.85ZM19.372 11.85V10.11H17.372V11.85H19.372ZM18.372 11.11H19.182V9.11H18.372V11.11ZM19.182 11.11C20.8657 11.11 22.3166 10.7168 23.3818 9.78144L22.0622 8.27856C21.4875 8.78321 20.5784 9.11 19.182 9.11V11.11ZM23.3818 9.78144C24.4245 8.86592 24.952 7.66909 24.952 6.27H22.952C22.952 7.11091 22.6596 7.75407 22.0622 8.27856L23.3818 9.78144ZM24.952 6.27C24.952 5.29429 24.7244 4.39993 24.1998 3.65451L22.5642 4.80549C22.7997 5.14007 22.952 5.60571 22.952 6.27H24.952ZM24.1998 3.65451C23.7032 2.94881 23.0291 2.42583 22.2126 2.07942L21.4315 3.92058C21.9349 4.13417 22.3008 4.43119 22.5642 4.80549L24.1998 3.65451ZM22.2229 2.08384C21.4336 1.73853 20.5526 1.58 19.602 1.58V3.58C20.3315 3.58 20.9305 3.70147 21.4212 3.91616L22.2229 2.08384ZM19.602 1.58C18.3042 1.58 17.1146 1.87784 16.0633 2.49907L17.0808 4.22093C17.7894 3.80216 18.6198 3.58 19.602 3.58V1.58ZM16.0694 2.49549C15.037 3.09571 14.2499 3.94432 13.7236 5.02079L15.5204 5.89921C15.8741 5.17568 16.387 4.62428 17.0747 4.22451L16.0694 2.49549ZM15.3125 4.73664L13.9925 3.47664L12.6116 4.92336L13.9316 6.18336L15.3125 4.73664ZM14.2015 4.6369C14.474 4.07602 14.8691 3.57964 15.4026 3.14611L14.1414 1.59389C13.395 2.20036 12.8101 2.92397 12.4025 3.7631L14.2015 4.6369ZM15.4026 3.14611C15.9384 2.71076 16.5771 2.36652 17.3316 2.12087L16.7124 0.219127C15.7469 0.53348 14.8856 0.989239 14.1414 1.59389L15.4026 3.14611ZM17.3514 2.1142C18.0977 1.85385 18.9056 1.72 19.782 1.72V-0.280001C18.6984 -0.280001 17.6663 -0.113849 16.6927 0.225799L17.3514 2.1142ZM19.782 1.72C20.8976 1.72 21.8324 1.92647 22.6125 2.30822L23.4916 0.511783C22.3917 -0.026474 21.1464 -0.280001 19.782 -0.280001V1.72ZM22.6281 2.31569C23.4171 2.68501 24.012 3.19066 24.4432 3.82947L26.1009 2.71053C25.4521 1.74934 24.567 1.01499 23.476 0.504309L22.6281 2.31569ZM24.4432 3.82947C24.8586 4.44493 25.082 5.18477 25.082 6.09H27.082C27.082 4.83523 26.7654 3.69507 26.1009 2.71053L24.4432 3.82947ZM25.082 6.09C25.082 6.75248 24.9505 7.3459 24.6972 7.8842L26.5069 8.7358C26.8935 7.9141 27.082 7.02752 27.082 6.09H25.082ZM24.6972 7.8842C24.4456 8.41879 24.0876 8.86296 23.6136 9.22639L24.8305 10.8136C25.5564 10.257 26.1184 9.56121 26.5069 8.7358L24.6972 7.8842ZM23.6006 9.2365C23.1679 9.57971 22.6289 9.81898 21.9537 9.93426L22.2903 11.9057C23.2551 11.741 24.1162 11.3803 24.8434 10.8035L23.6006 9.2365Z" fill="url(#paint0_linear_86_1746)" mask="url(#path-1-outside-1_86_1746)"/>
<defs>
<linearGradient id="paint0_linear_86_1746" x1="13.5" y1="-14" x2="13.5" y2="28" gradientUnits="userSpaceOnUse">
<stop stop-color="#3BB96D"/>
<stop offset="1" stop-color="#279A59"/>
</linearGradient>
</defs>
</svg>
