<svg width="28" height="28" viewBox="0 0 28 28" fill="none" xmlns="http://www.w3.org/2000/svg">
<g clip-path="url(#clip0_98_4712)">
<path d="M27.8378 21.9476C27.7361 21.8459 27.5949 21.7874 27.4512 21.7874C27.3074 21.7874 27.1662 21.8459 27.0645 21.9476C26.9628 22.0495 26.9043 22.1905 26.9043 22.3343C26.9043 22.4783 26.9628 22.6193 27.0645 22.7209C27.1662 22.8226 27.3074 22.8812 27.4512 22.8812C27.5949 22.8812 27.7361 22.8226 27.8378 22.7209C27.9395 22.6193 27.998 22.4783 27.998 22.3343C27.998 22.1905 27.9395 22.0495 27.8378 21.9476Z" fill="white"/>
<path d="M20.2798 14.3892L20.2815 13.1147C20.2847 10.9727 19.4522 8.95914 17.9376 7.44455L16.6211 6.12799C16.4075 5.91437 16.0612 5.91437 15.8476 6.12799C15.6341 6.3414 15.6341 6.68768 15.8476 6.90131L17.1641 8.21786C18.4717 9.52545 19.1905 11.2639 19.1878 13.1133L19.1856 14.6146C19.1854 14.7599 19.2431 14.8994 19.3458 15.0021L25.5183 21.1745C25.6251 21.2813 25.765 21.3347 25.9049 21.3347C26.0449 21.3347 26.185 21.2813 26.2916 21.1745C26.5052 20.9609 26.5052 20.6146 26.2916 20.4012L20.2798 14.3892Z" fill="white"/>
<path d="M14.251 20.0974C14.1485 19.9949 14.0094 19.9372 13.8644 19.9372C13.8641 19.9372 13.8637 19.9372 13.8635 19.9372L11.5406 19.9406C11.5371 19.9406 11.5339 19.9406 11.5307 19.9406C10.1554 19.9406 8.82498 19.5358 7.68274 18.7698L4.26242 16.4763C4.03577 16.324 3.88303 16.0924 3.83304 15.8239C3.78284 15.5554 3.84137 15.2843 3.99817 15.0606C4.30173 14.6272 4.8941 14.5024 5.34677 14.7767L6.82504 15.6731C7.16385 15.8784 7.58704 15.8013 7.83142 15.4896C8.07602 15.1779 8.04996 14.7485 7.7699 14.4685L1.37915 8.07751C1.19522 7.89359 1.09375 7.64877 1.09375 7.38837C1.09375 7.12796 1.19522 6.88315 1.37936 6.69901C1.56329 6.51508 1.80811 6.4136 2.06851 6.4136C2.29474 6.4136 2.50922 6.4903 2.68225 6.63129L7.73444 11.6758C7.94785 11.8894 8.29413 11.8894 8.50775 11.6758C8.72138 11.4622 8.72138 11.1159 8.50775 10.9023L2.17319 4.57538C1.79315 4.19534 1.79315 3.57712 2.17319 3.19708C2.55322 2.81683 3.17166 2.81705 3.5517 3.19708L9.88263 9.5278C10.096 9.74142 10.4423 9.74142 10.6559 9.5278C10.8696 9.31418 10.8696 8.9679 10.6559 8.75427L5.60761 3.70615C5.46683 3.5329 5.38992 3.31863 5.38992 3.09219C5.38992 2.83179 5.49139 2.58719 5.67554 2.40305C6.05557 2.02301 6.6738 2.02301 7.05383 2.40305L10.7461 6.10278C10.7634 6.12009 12.0306 7.37961 12.0306 7.37961C12.2442 7.59323 12.5905 7.59323 12.8041 7.37961C13.0175 7.1662 13.0175 6.81992 12.8041 6.60629L8.8801 2.68225C8.73911 2.50922 8.66242 2.29474 8.66242 2.0683C8.66242 1.80811 8.76367 1.56329 8.94782 1.37915C9.13196 1.19501 9.37677 1.09375 9.63718 1.09375C9.89737 1.09375 10.1422 1.19501 10.3263 1.37915L12.7548 3.80762C12.9684 4.02124 13.3147 4.02124 13.5281 3.80762C13.7417 3.59421 13.7417 3.24792 13.5281 3.0343L11.0999 0.605835C10.7087 0.215118 10.1894 0 9.63696 0C9.08432 0 8.56479 0.215118 8.17429 0.605835C7.92755 0.852356 7.7511 1.15036 7.65433 1.47549C6.84299 0.827362 5.65311 0.878418 4.90201 1.62973C4.65442 1.87711 4.48309 2.17255 4.3876 2.48615L4.32501 2.42355C3.51859 1.61713 2.2063 1.61713 1.39987 2.42355C1.00916 2.81427 0.794037 3.33359 0.794037 3.88623C0.794037 4.43866 1.00916 4.95798 1.39987 5.34869L1.46118 5.41C1.1416 5.50784 0.848724 5.68259 0.605835 5.92569C0.215118 6.31641 0 6.83594 0 7.38837C0 7.9408 0.215118 8.46033 0.605835 8.85104L5.36215 13.6071C4.53116 13.3884 3.61728 13.6977 3.10223 14.4332C2.7756 14.8998 2.6532 15.4648 2.75787 16.0247C2.86234 16.5846 3.18042 17.0674 3.65338 17.3846L7.0737 19.6781C8.39987 20.5676 9.94565 21.0342 11.5421 21.0342L13.6381 21.0312L20.4467 27.8398C20.5535 27.9466 20.6935 28 20.8334 28C20.9733 28 21.1132 27.9466 21.22 27.8398C21.4337 27.6262 21.4337 27.2801 21.22 27.0665L14.251 20.0974Z" fill="white"/>
<path d="M14.8984 12.3222C15.8029 12.3222 16.5391 11.5861 16.5391 10.6816C16.5391 9.77689 15.8029 9.04095 14.8984 9.04095C13.9937 9.04095 13.2578 9.77689 13.2578 10.6816C13.2578 11.5861 13.9937 12.3222 14.8984 12.3222ZM14.8984 10.1347C15.1999 10.1347 15.4453 10.3799 15.4453 10.6816C15.4453 10.983 15.1999 11.2285 14.8984 11.2285C14.5968 11.2285 14.3516 10.983 14.3516 10.6816C14.3516 10.3799 14.5968 10.1347 14.8984 10.1347Z" fill="white"/>
<path d="M11.7852 18.3007C12.6898 18.3007 13.4258 17.5645 13.4258 16.66C13.4258 15.7553 12.6898 15.0194 11.7852 15.0194C10.8805 15.0194 10.1445 15.7553 10.1445 16.66C10.1445 17.5645 10.8805 18.3007 11.7852 18.3007ZM11.7852 16.1132C12.0868 16.1132 12.332 16.3584 12.332 16.66C12.332 16.9615 12.0868 17.2069 11.7852 17.2069C11.4837 17.2069 11.2383 16.9615 11.2383 16.66C11.2383 16.3584 11.4837 16.1132 11.7852 16.1132Z" fill="white"/>
<path d="M20.2773 18.1573C19.3727 18.1573 18.6367 18.8935 18.6367 19.798C18.6367 20.7027 19.3727 21.4386 20.2773 21.4386C21.182 21.4386 21.918 20.7027 21.918 19.798C21.918 18.8935 21.182 18.1573 20.2773 18.1573ZM20.2773 20.3448C19.9759 20.3448 19.7305 20.0996 19.7305 19.798C19.7305 19.4966 19.9759 19.2511 20.2773 19.2511C20.579 19.2511 20.8242 19.4966 20.8242 19.798C20.8242 20.0996 20.579 20.3448 20.2773 20.3448Z" fill="white"/>
<path d="M24.8105 24.717C23.9059 24.717 23.1699 25.4532 23.1699 26.3577C23.1699 27.2624 23.9059 27.9983 24.8105 27.9983C25.7152 27.9983 26.4512 27.2624 26.4512 26.3577C26.4512 25.4532 25.7152 24.717 24.8105 24.717ZM24.8105 26.9045C24.5091 26.9045 24.2637 26.6593 24.2637 26.3577C24.2637 26.0562 24.5091 25.8108 24.8105 25.8108C25.1122 25.8108 25.3574 26.0562 25.3574 26.3577C25.3574 26.6593 25.1122 26.9045 24.8105 26.9045Z" fill="white"/>
<path d="M11.3046 12.5875C11.4063 12.4852 11.4648 12.3446 11.4648 12.2009C11.4648 12.0565 11.4063 11.9159 11.3046 11.8136C11.2029 11.7119 11.0617 11.654 10.918 11.654C10.7736 11.654 10.633 11.7119 10.5313 11.8136C10.429 11.9153 10.3711 12.0565 10.3711 12.2009C10.3711 12.3446 10.429 12.4856 10.5313 12.5875C10.633 12.6892 10.7736 12.7471 10.918 12.7471C11.0617 12.7471 11.2029 12.6892 11.3046 12.5875Z" fill="white"/>
<path d="M17.3203 15.4261C17.4219 15.3244 17.4805 15.1834 17.4805 15.0397C17.4805 14.8953 17.4219 14.7547 17.3203 14.653C17.2186 14.5511 17.0774 14.4928 16.9336 14.4928C16.7892 14.4928 16.6486 14.5511 16.5469 14.653C16.4446 14.7547 16.3867 14.8953 16.3867 15.0397C16.3867 15.1834 16.4446 15.3244 16.5469 15.4261C16.6486 15.528 16.7892 15.5865 16.9336 15.5865C17.0774 15.5865 17.2186 15.528 17.3203 15.4261Z" fill="white"/>
<path d="M15.8011 18.6593C15.6992 18.761 15.6406 18.9022 15.6406 19.046C15.6406 19.1904 15.6992 19.3309 15.8011 19.4326C15.9027 19.5343 16.0437 19.5928 16.1875 19.5928C16.3315 19.5928 16.4725 19.5343 16.5742 19.4326C16.6761 19.3309 16.7344 19.1897 16.7344 19.046C16.7344 18.9022 16.6761 18.761 16.5742 18.6593C16.4725 18.5576 16.3315 18.4991 16.1875 18.4991C16.0437 18.4991 15.9027 18.5576 15.8011 18.6593Z" fill="white"/>
<path d="M21.1973 23.1875C21.0533 23.1875 20.9123 23.246 20.8106 23.3477C20.7089 23.4494 20.6504 23.5906 20.6504 23.7344C20.6504 23.8781 20.7089 24.0193 20.8106 24.121C20.9123 24.2227 21.0533 24.2812 21.1973 24.2812C21.341 24.2812 21.482 24.2227 21.5839 24.121C21.6856 24.0193 21.7441 23.8781 21.7441 23.7344C21.7441 23.5906 21.6856 23.4494 21.5839 23.3477C21.482 23.246 21.341 23.1875 21.1973 23.1875Z" fill="white"/>
<path d="M14.6875 5.51465C14.8319 5.51465 14.9725 5.45612 15.0742 5.35443C15.1761 5.25275 15.2344 5.11154 15.2344 4.96777C15.2344 4.82401 15.1761 4.6828 15.0742 4.58112C14.9725 4.47943 14.8315 4.4209 14.6875 4.4209C14.5437 4.4209 14.4027 4.47943 14.3011 4.58112C14.1992 4.6828 14.1406 4.82401 14.1406 4.96777C14.1406 5.11154 14.1992 5.25275 14.3011 5.35443C14.4027 5.45612 14.5437 5.51465 14.6875 5.51465Z" fill="white"/>
</g>
<defs>
<clipPath id="clip0_98_4712">
<rect width="28" height="28" fill="white"/>
</clipPath>
</defs>
</svg>
