<svg width="29" height="29" viewBox="0 0 29 29" fill="none" xmlns="http://www.w3.org/2000/svg">
<g clip-path="url(#clip0_98_4647)">
<path d="M8.46444 4.63786L8.09766 5.41284L8.94324 5.81304L9.31002 5.03806L8.46444 4.63786Z" fill="white"/>
<path d="M7.70992 6.23126L2.54464 17.1353C2.10403 18.0656 1.87109 19.1017 1.87109 20.1312H2.80658C2.80658 19.2396 3.00864 18.3416 3.39032 17.5352L8.55559 6.63118L7.70992 6.23126Z" fill="white"/>
<path d="M19.1774 9.35484C17.3804 9.35484 15.6998 9.84831 14.2488 10.6945L9.30994 0.267548C9.23229 0.104306 9.06765 0 8.8871 0C8.70655 0 8.5419 0.104306 8.46426 0.267548L0.853629 16.3345C0.295145 17.5127 0 18.8261 0 20.1311C0 25.0214 3.97861 29 8.90534 29C10.7029 29 12.4298 28.4635 13.9069 27.4527C15.4317 28.427 17.2372 29 19.1774 29C24.5939 29 29 24.5934 29 19.1774C29 13.7614 24.5939 9.35484 19.1774 9.35484ZM8.86886 28.0645C4.49406 28.0645 0.935484 24.5059 0.935484 20.1311C0.935484 18.9637 1.19929 17.7892 1.69931 16.7344L8.8871 1.56039L13.4574 11.2085C10.9779 12.9929 9.35484 15.8962 9.35484 19.1774C9.35484 22.2926 10.817 25.0682 13.086 26.869C11.8315 27.6496 10.3932 28.0645 8.86886 28.0645ZM19.1774 28.0645C14.2769 28.0645 10.2903 24.078 10.2903 19.1774C10.2903 14.2769 14.2769 10.2903 19.1774 10.2903C24.078 10.2903 28.0645 14.2769 28.0645 19.1774C28.0645 24.078 24.078 28.0645 19.1774 28.0645Z" fill="white"/>
<path d="M19.1765 11.6935C16.8555 11.6935 14.9668 13.1627 14.9668 14.9677C14.9668 16.7728 16.8555 18.2419 19.1765 18.2419C21.4974 18.2419 23.3862 16.7728 23.3862 14.9677C23.3862 13.1627 21.4974 11.6935 19.1765 11.6935ZM19.1765 17.3064C17.371 17.3064 15.9023 16.2573 15.9023 14.9677C15.9023 13.6782 17.371 12.629 19.1765 12.629C20.982 12.629 22.4507 13.6782 22.4507 14.9677C22.4507 16.2573 20.982 17.3064 19.1765 17.3064Z" fill="white"/>
<path d="M20.4315 13.8288C19.6368 14.0987 18.7209 14.0987 17.9258 13.8288L17.625 14.7152C18.1199 14.8826 18.6428 14.9677 19.1788 14.9677C19.7149 14.9677 20.2378 14.8826 20.7322 14.7152L20.4315 13.8288Z" fill="white"/>
<path d="M23.6332 20.3089C23.4115 20.6653 23.1289 20.9848 22.7926 21.2603C22.4568 21.5363 22.0873 21.7505 21.6953 21.8974L22.0241 22.7734C22.5125 22.5901 22.9708 22.3249 23.3862 21.9839C23.8016 21.6434 24.1519 21.2463 24.4274 20.8033L23.6332 20.3089Z" fill="white"/>
<path d="M26.5457 19.2813C26.0943 18.6999 25.411 18.336 24.6219 18.2583C23.5288 18.1465 22.3431 18.5736 21.3664 19.4202C19.6442 20.9123 19.1343 23.2748 20.2293 24.6865C20.6807 25.2679 21.3641 25.6318 22.1532 25.7094C22.2654 25.7207 22.3781 25.7263 22.4918 25.7263C23.4862 25.7263 24.5321 25.3072 25.4086 24.5471C27.1309 23.055 27.6412 20.6924 26.5457 19.2813ZM24.7964 23.8403C24.0241 24.5097 23.0704 24.8591 22.2453 24.7786C21.7069 24.7258 21.2654 24.4957 20.9688 24.113C20.1732 23.0877 20.6264 21.2996 21.9791 20.1274C22.6775 19.5222 23.5241 19.1774 24.2903 19.1774C24.3712 19.1774 24.4512 19.1816 24.5297 19.1891C25.0681 19.242 25.5097 19.4721 25.8062 19.8547C26.6023 20.8805 26.1491 22.6682 24.7964 23.8403Z" fill="white"/>
<path d="M15.5596 21.2603C15.2238 20.9848 14.9412 20.6653 14.72 20.3089L13.9258 20.8033C14.2013 21.2463 14.5516 21.6434 14.9665 21.9839C15.3819 22.3249 15.8402 22.5901 16.3286 22.7734L16.6574 21.8974C16.2654 21.7505 15.8959 21.5363 15.5596 21.2603Z" fill="white"/>
<path d="M16.9889 19.4207C16.0118 18.5741 14.8237 18.147 13.7334 18.2588C12.9444 18.3364 12.2615 18.6999 11.8096 19.2818C10.7142 20.6934 11.2245 23.0555 12.9467 24.5481C13.8237 25.3077 14.8691 25.7272 15.8635 25.7272C15.9772 25.7272 16.0904 25.7216 16.2022 25.7104C16.9913 25.6328 17.6742 25.2693 18.126 24.6874C19.2215 23.2753 18.7111 20.9128 16.9889 19.4207ZM17.387 24.1131C17.0904 24.4952 16.6489 24.7258 16.1105 24.7787C15.2826 24.8586 14.3312 24.5097 13.5594 23.8404C12.2063 22.6682 11.7535 20.8805 12.5491 19.8547C12.8457 19.4726 13.2872 19.242 13.8256 19.1891C13.9042 19.1817 13.9841 19.1774 14.0651 19.1774C14.8312 19.1774 15.6783 19.5222 16.3766 20.1274C17.7294 21.2996 18.1826 23.0873 17.387 24.1131Z" fill="white"/>
</g>
<defs>
<clipPath id="clip0_98_4647">
<rect width="29" height="29" fill="white"/>
</clipPath>
</defs>
</svg>
