<svg width="28" height="28" viewBox="0 0 28 28" fill="none" xmlns="http://www.w3.org/2000/svg">
<g clip-path="url(#clip0_98_4687)">
<path d="M3.89066 7.14584C4.11719 7.14584 4.30084 6.96218 4.30084 6.73565V4.35001C4.30084 4.12347 4.11719 3.93982 3.89066 3.93982C3.66412 3.93982 3.48047 4.12347 3.48047 4.35001V6.73571C3.48047 6.96218 3.66407 7.14584 3.89066 7.14584Z" fill="white"/>
<path d="M5.99026 7.14584C6.2168 7.14584 6.40045 6.96218 6.40045 6.73565V4.35001C6.40045 4.12347 6.2168 3.93982 5.99026 3.93982C5.76373 3.93982 5.58008 4.12347 5.58008 4.35001V6.73571C5.58008 6.96218 5.76368 7.14584 5.99026 7.14584Z" fill="white"/>
<path d="M8.08792 7.14584C8.31445 7.14584 8.49811 6.96218 8.49811 6.73565V4.35001C8.49811 4.12347 8.31445 3.93982 8.08792 3.93982C7.86139 3.93982 7.67773 4.12347 7.67773 4.35001V6.73571C7.67773 6.96218 7.86133 7.14584 8.08792 7.14584Z" fill="white"/>
<path d="M10.1875 7.14584C10.4141 7.14584 10.5977 6.96218 10.5977 6.73565V4.35001C10.5977 4.12347 10.4141 3.93982 10.1875 3.93982C9.961 3.93982 9.77734 4.12347 9.77734 4.35001V6.73571C9.77734 6.96218 9.961 7.14584 10.1875 7.14584Z" fill="white"/>
<path d="M12.2852 7.14584C12.5117 7.14584 12.6954 6.96218 12.6954 6.73565V4.35001C12.6954 4.12347 12.5117 3.93982 12.2852 3.93982C12.0587 3.93982 11.875 4.12347 11.875 4.35001V6.73571C11.875 6.96218 12.0587 7.14584 12.2852 7.14584Z" fill="white"/>
<path d="M14.3868 7.14584C14.6133 7.14584 14.7969 6.96218 14.7969 6.73565V4.35001C14.7969 4.12347 14.6133 3.93982 14.3868 3.93982C14.1602 3.93982 13.9766 4.12347 13.9766 4.35001V6.73571C13.9766 6.96218 14.1602 7.14584 14.3868 7.14584Z" fill="white"/>
<path d="M16.4844 7.14584C16.7109 7.14584 16.8946 6.96218 16.8946 6.73565V4.35001C16.8946 4.12347 16.7109 3.93982 16.4844 3.93982C16.2579 3.93982 16.0742 4.12347 16.0742 4.35001V6.73571C16.0742 6.96218 16.2579 7.14584 16.4844 7.14584Z" fill="white"/>
<path d="M18.5821 7.14584C18.8086 7.14584 18.9922 6.96218 18.9922 6.73565V4.35001C18.9922 4.12347 18.8086 3.93982 18.5821 3.93982C18.3555 3.93982 18.1719 4.12347 18.1719 4.35001V6.73571C18.1719 6.96218 18.3555 7.14584 18.5821 7.14584Z" fill="white"/>
<path d="M25.4275 3.36552C25.1594 2.89408 24.4639 3.26062 24.7019 3.7483C25.3742 5.02267 25.7151 6.07904 25.7151 6.88809C25.5684 10.4632 20.4742 10.4493 20.3119 6.88804C20.3119 4.79811 22.2293 2.08869 23.0062 1.07673C23.1668 1.29451 23.3773 1.58837 23.6091 1.9338C23.7354 2.12189 23.9902 2.17204 24.1783 2.04576C24.3664 1.91947 24.4165 1.66466 24.2903 1.47658C23.7627 0.690717 23.3513 0.173882 23.334 0.152224C23.1748 -0.0472361 22.8643 -0.0512832 22.6999 0.143637C22.6355 0.220096 21.857 1.15089 21.0831 2.42335H2.8725C2.09631 2.42335 1.46484 3.05481 1.46484 3.831V7.25469C1.46484 7.98685 2.0268 8.58998 2.74206 8.65605L4.80437 25.452C4.98271 26.9047 6.22312 28 7.68967 28H8.92669C9.15322 28 9.33687 27.8164 9.33687 27.5898C9.33687 27.3633 9.15322 27.1796 8.92669 27.1796H7.68967C6.63686 27.1796 5.74654 26.3939 5.61861 25.352L5.19388 21.8928H10.3032C11.3554 21.8928 12.2115 21.0384 12.2115 19.9883V17.833H19.8775L18.9542 25.352C18.8263 26.3939 17.9359 27.1796 16.8832 27.1796H11.0468C10.8203 27.1796 10.6366 27.3633 10.6366 27.5898C10.6366 27.8164 10.8203 28 11.0468 28H16.8831C18.3497 28 19.5901 26.9046 19.7684 25.452L21.65 10.1282C23.9038 11.1187 26.5756 9.35763 26.5354 6.88804C26.5355 5.94428 26.1627 4.75911 25.4275 3.36552ZM2.28522 7.25469V3.831C2.28522 3.50717 2.54867 3.24372 2.8725 3.24372H20.6144C19.8604 4.70792 19.2102 6.29469 19.6235 7.84197H2.8725C2.54867 7.84197 2.28522 7.57852 2.28522 7.25469ZM11.3911 19.9884C11.3911 20.5862 10.9031 21.0725 10.3032 21.0725H5.09314L4.80918 18.76H8.39148C8.61801 18.76 8.80166 18.5763 8.80166 18.3498C8.80166 18.1233 8.61801 17.9396 8.39148 17.9396H4.70849L4.48601 16.1278H8.39148C8.61801 16.1278 8.80166 15.9441 8.80166 15.7176C8.80166 15.4911 8.61801 15.3074 8.39148 15.3074H4.38526L4.10557 13.0297H10.3032C10.9031 13.0297 11.3911 13.5161 11.3911 14.1138V19.9884ZM19.9782 17.0127H12.2115V14.1138C12.2115 13.0636 11.3554 12.2093 10.3032 12.2093H4.00488L3.56938 8.66229H19.9745C20.2072 9.0576 20.5151 9.40368 20.8785 9.68097L19.9782 17.0127Z" fill="white"/>
<path d="M22.1426 6.93353C22.1262 6.39181 21.3389 6.3911 21.3223 6.93353C21.3223 7.83895 22.0603 8.57554 22.9673 8.57554C23.5093 8.55869 23.5096 7.77201 22.9673 7.75517C22.5126 7.75517 22.1426 7.3866 22.1426 6.93353Z" fill="white"/>
</g>
<defs>
<clipPath id="clip0_98_4687">
<rect width="28" height="28" fill="white"/>
</clipPath>
</defs>
</svg>
