<svg width="29" height="29" viewBox="0 0 29 29" fill="none" xmlns="http://www.w3.org/2000/svg">
<g clip-path="url(#clip0_98_4514)">
<path d="M21.3515 9.48959C20.9449 9.48959 20.5458 9.52185 20.1562 9.58323C20.1163 8.23223 19.6499 6.90187 18.7871 5.69702C18.718 5.6252 18.0156 4.7137 16.9906 3.84238C16.7991 3.69289 16.6021 3.55042 16.4002 3.4151C15.4486 2.77726 14.3912 2.29741 13.287 1.99372C12.1211 1.67308 10.9025 1.55249 9.6972 1.6584C8.32275 1.77922 6.97326 2.17905 5.74837 2.81281C4.56226 3.42642 3.48291 4.26526 2.64061 5.30511C2.53704 5.43295 2.44189 5.56649 2.34178 5.69685C1.32655 7.11331 0.859919 8.70516 0.992341 10.3004C1.14056 12.0851 2.00875 13.7832 3.57287 15.3474L5.8958 17.6703L0.591169 22.9749C0.373256 23.1928 0.373256 23.5462 0.591169 23.7641L4.47136 27.6443C4.57599 27.749 4.71795 27.8078 4.86595 27.8078C5.01394 27.8078 5.1559 27.749 5.26053 27.6443L10.5652 22.3397L15.8698 27.6443C15.9745 27.749 16.1164 27.8078 16.2644 27.8078C16.4125 27.8078 16.5545 27.7489 16.6591 27.6442L19.6989 24.6029C20.2313 24.7207 20.7842 24.7833 21.3515 24.7833C25.5685 24.7833 28.9991 21.3526 28.9991 17.1356C28.9991 12.9196 25.5685 9.48959 21.3515 9.48959ZM10.5652 2.73613C13.2688 2.73613 15.9729 3.99406 17.5927 5.97341L14.8353 8.73078C12.0662 7.39852 9.0631 7.39914 6.29491 8.73223L3.53609 5.97341C5.15596 3.99406 7.86064 2.73613 10.5652 2.73613ZM13.994 9.57207L10.5644 13.0017L7.13553 9.57285C9.39195 8.59077 11.7368 8.59088 13.994 9.57207ZM4.36204 14.5582C1.95233 12.1485 1.43285 9.39116 2.88743 6.90321L9.77515 13.7909L6.68497 16.8811L4.36204 14.5582ZM4.86595 26.4605L1.77493 23.3695L7.07912 18.0653C7.07928 18.0652 7.07945 18.065 7.07962 18.0649C7.07979 18.0647 7.0799 18.0645 7.08006 18.0644L18.2402 6.90433C18.7825 7.84065 19.0553 8.84211 19.0417 9.8464C15.9512 10.8279 13.7054 13.7243 13.7054 17.1356C13.7054 17.2936 13.7108 17.4504 13.7203 17.6061L4.86595 26.4605ZM16.2643 26.4605L11.3543 21.5505L13.9295 18.9753C14.5224 21.3677 16.2441 23.3191 18.4945 24.2291L16.2643 26.4605ZM21.3515 23.6673C17.7508 23.6673 14.8215 20.7372 14.8215 17.1356C14.8215 13.535 17.7508 10.6056 21.3515 10.6056C24.9531 10.6056 27.8831 13.535 27.8831 17.1356C27.8831 20.7372 24.953 23.6673 21.3515 23.6673Z" fill="white"/>
<path d="M24.9577 15.0843H23.4056V13.5323C23.4056 13.2241 23.1558 12.9742 22.8476 12.9742H19.8595C19.5513 12.9742 19.3015 13.2241 19.3015 13.5323V15.0843H17.7494C17.4412 15.0843 17.1914 15.3342 17.1914 15.6424V18.6289C17.1914 18.937 17.4412 19.1869 17.7494 19.1869H19.3015V20.7406C19.3015 21.0487 19.5513 21.2986 19.8595 21.2986H22.8476C23.1558 21.2986 23.4056 21.0487 23.4056 20.7406V19.1869H24.9577C25.2659 19.1869 25.5157 18.937 25.5157 18.6289V15.6424C25.5157 15.3342 25.2659 15.0843 24.9577 15.0843ZM24.3997 18.0708H22.8476C22.5394 18.0708 22.2896 18.3207 22.2896 18.6289V20.1826H20.4176V18.6289C20.4176 18.3207 20.1677 18.0708 19.8595 18.0708H18.3075V16.2004H19.8595C20.1677 16.2004 20.4176 15.9505 20.4176 15.6424V14.0903H22.2896V15.6424C22.2896 15.9505 22.5394 16.2004 22.8476 16.2004H24.3997V18.0708Z" fill="white"/>
</g>
<defs>
<clipPath id="clip0_98_4514">
<rect width="28.5714" height="28.5714" fill="white" transform="translate(0.427734 0.428589)"/>
</clipPath>
</defs>
</svg>
