<svg width="416" height="419" viewBox="0 0 416 419" fill="none" xmlns="http://www.w3.org/2000/svg">
<path d="M239.583 42.7783C192.322 19.3831 70.3725 34.5577 60.3087 72.2777C50.2448 109.998 55.2606 273.807 139.477 297.159C254.854 329.16 291.296 205.883 295.949 166.095C300.601 126.307 273.882 59.7492 239.583 42.7783Z" fill="#95E6B8"/>
<path d="M392.309 117.379C376.769 54.0967 210.888 42.1786 177.439 84.6153C116.744 161.612 200.625 359.56 288.117 318.836C348.759 290.63 405.971 173.033 392.309 117.379Z" fill="#279A59"/>
<path d="M233.592 52.3864H230.427C230.279 52.3818 230.131 52.4063 229.993 52.4587C229.854 52.511 229.727 52.5902 229.619 52.6916C229.511 52.7929 229.425 52.9146 229.364 53.0496C229.303 53.1846 229.269 53.3302 229.265 53.4782C229.269 53.6278 229.243 53.7767 229.188 53.916C229.133 54.0553 229.051 54.1823 228.947 54.2894C228.842 54.3964 228.717 54.4814 228.579 54.5393C228.441 54.5972 228.293 54.6269 228.143 54.6264H215.379C215.083 54.6359 214.795 54.5284 214.577 54.327C214.36 54.1257 214.231 53.8468 214.217 53.5508C214.221 53.4011 214.195 53.2521 214.141 53.1126C214.086 52.9731 214.004 52.846 213.9 52.7387C213.795 52.6314 213.67 52.5462 213.532 52.488C213.394 52.4298 213.246 52.3998 213.096 52.3999H209.89C209.593 52.3999 209.307 52.518 209.097 52.7283C208.887 52.9386 208.769 53.2238 208.769 53.5212V79.0677C208.769 81.0233 209.545 82.8988 210.928 84.2816C212.311 85.6644 214.187 86.4412 216.143 86.4412H227.336C228.305 86.4412 229.265 86.2502 230.16 85.8792C231.056 85.5081 231.869 84.9643 232.554 84.2787C233.239 83.5932 233.782 82.7794 234.152 81.8838C234.522 80.9883 234.712 80.0286 234.711 79.0596V53.5132C234.712 53.3657 234.683 53.2195 234.627 53.083C234.571 52.9465 234.489 52.8224 234.385 52.7177C234.281 52.613 234.158 52.5299 234.022 52.4731C233.885 52.4162 233.74 52.3868 233.592 52.3864ZM223.566 58.773H219.916C219.51 58.773 219.121 58.6118 218.834 58.3249C218.547 58.0379 218.386 57.6488 218.386 57.2429C218.386 56.8371 218.547 56.4479 218.834 56.161C219.121 55.874 219.51 55.7128 219.916 55.7128H223.566C223.972 55.7128 224.361 55.874 224.648 56.161C224.935 56.4479 225.096 56.8371 225.096 57.2429C225.096 57.4439 225.057 57.6428 224.98 57.8285C224.903 58.0141 224.79 58.1828 224.648 58.3249C224.506 58.467 224.337 58.5797 224.151 58.6566C223.966 58.7335 223.767 58.773 223.566 58.773Z" fill="#FFFFFD"/>
<path d="M211.282 69.2283V79.0596C211.284 80.3487 211.796 81.5845 212.708 82.496C213.62 83.4074 214.856 83.9201 216.145 83.9215H227.335C228.625 83.9201 229.861 83.4074 230.772 82.496C231.684 81.5845 232.196 80.3487 232.198 79.0596V69.2283H211.282Z" fill="#BADBC7"/>
<path d="M177.824 52.2009H174.661C174.362 52.1915 174.071 52.3011 173.853 52.5058C173.634 52.7105 173.506 52.9935 173.496 53.2927C173.5 53.442 173.474 53.5907 173.42 53.7298C173.365 53.869 173.284 53.9958 173.179 54.1029C173.075 54.2099 172.95 54.295 172.813 54.353C172.675 54.4111 172.527 54.441 172.378 54.4409H159.614C159.317 54.4511 159.028 54.3439 158.81 54.1425C158.592 53.9411 158.462 53.6618 158.449 53.3653C158.453 53.2158 158.427 53.067 158.373 52.9277C158.318 52.7884 158.236 52.6614 158.132 52.5541C158.028 52.4469 157.903 52.3616 157.766 52.3032C157.628 52.2449 157.48 52.2146 157.33 52.2143H154.122C153.825 52.215 153.54 52.3335 153.33 52.5437C153.121 52.7539 153.003 53.0387 153.003 53.3357V78.8822C153.003 80.8377 153.78 82.7132 155.163 84.096C156.546 85.4788 158.422 86.2557 160.377 86.2557H171.565C173.521 86.2557 175.397 85.4788 176.78 84.096C178.163 82.7132 178.94 80.8377 178.94 78.8822V53.3357C178.942 53.1877 178.914 53.0409 178.859 52.9037C178.804 52.7664 178.722 52.6414 178.618 52.536C178.514 52.4305 178.391 52.3466 178.254 52.2891C178.118 52.2315 177.972 52.2016 177.824 52.2009ZM167.8 58.5875H164.148C163.742 58.5875 163.353 58.4263 163.066 58.1393C162.779 57.8524 162.618 57.4632 162.618 57.0574C162.618 56.6516 162.779 56.2624 163.066 55.9755C163.353 55.6885 163.742 55.5273 164.148 55.5273H167.8C168.001 55.5273 168.2 55.5669 168.386 55.6438C168.571 55.7207 168.74 55.8334 168.882 55.9755C169.024 56.1175 169.137 56.2862 169.214 56.4719C169.291 56.6575 169.33 56.8565 169.33 57.0574C169.33 57.2583 169.291 57.4573 169.214 57.6429C169.137 57.8286 169.024 57.9973 168.882 58.1393C168.74 58.2814 168.571 58.3941 168.386 58.471C168.2 58.5479 168.001 58.5875 167.8 58.5875Z" fill="#FFFFFD"/>
<path d="M155.515 69.0427V78.8795C155.517 80.168 156.03 81.4032 156.941 82.314C157.853 83.2249 159.088 83.7373 160.377 83.7387H171.565C172.854 83.7373 174.089 83.2249 175.001 82.314C175.912 81.4032 176.426 80.168 176.428 78.8795V69.0427H155.515Z" fill="#BADBC7"/>
<path d="M221.739 85.2903C220.378 103.724 225.38 120.848 219.434 135.894C213.754 150.267 198.758 156.931 196.63 164.896C194.503 172.861 208.364 183.055 207.805 198.289" stroke="#FFFFFD" stroke-width="2.08" stroke-miterlimit="10"/>
<path d="M165.974 85.2903C166.226 147.696 192.021 138.551 192.021 163.713C192.021 172.917 185.703 185.43 186.542 201.072" stroke="#FFFFFD" stroke-width="2.08" stroke-miterlimit="10"/>
<path d="M194.503 292.101V372.626" stroke="#CFC0C0" stroke-width="8.31" stroke-linecap="round" stroke-linejoin="round"/>
<path d="M194.503 50.7595V292.101" stroke="#FFFFFD" stroke-width="8.31" stroke-miterlimit="10"/>
<path d="M186.123 50.7595H221.113C221.409 50.7595 221.694 50.8774 221.904 51.0872C222.113 51.297 222.231 51.5815 222.231 51.8782V57.1112" stroke="#FFFFFD" stroke-width="4.16" stroke-miterlimit="10" stroke-linecap="round"/>
<path d="M202.886 50.7595H167.335C167.188 50.7595 167.043 50.7885 166.907 50.8447C166.772 50.901 166.648 50.9834 166.545 51.0873C166.441 51.1912 166.359 51.3146 166.303 51.4503C166.247 51.586 166.218 51.7314 166.219 51.8782V57.1112" stroke="#FFFFFD" stroke-width="4.16" stroke-miterlimit="10" stroke-linecap="round"/>
<path d="M191.599 163.056L199.215 167.846" stroke="#FFFFFD" stroke-width="4.16" stroke-miterlimit="10" stroke-linecap="round"/>
<path d="M237.978 379.97V377.819C237.978 376.445 237.432 375.127 236.46 374.155C235.488 373.183 234.17 372.637 232.795 372.637H170.524C169.15 372.637 167.832 373.183 166.86 374.155C165.888 375.127 165.342 376.445 165.342 377.819V379.949" stroke="#CFC0C0" stroke-width="8.31" stroke-linecap="round" stroke-linejoin="round"/>
<path d="M206.689 379.352V372.739" stroke="#CFC0C0" stroke-width="8.31" stroke-linecap="round" stroke-linejoin="round"/>
<path d="M206.689 384.822C208.691 384.822 210.314 383.199 210.314 381.197C210.314 379.195 208.691 377.572 206.689 377.572C204.687 377.572 203.063 379.195 203.063 381.197C203.063 383.199 204.687 384.822 206.689 384.822Z" stroke="#CFC0C0" stroke-width="4.16" stroke-miterlimit="10"/>
<path d="M165.342 384.822C167.344 384.822 168.968 383.199 168.968 381.197C168.968 379.195 167.344 377.572 165.342 377.572C163.34 377.572 161.717 379.195 161.717 381.197C161.717 383.199 163.34 384.822 165.342 384.822Z" stroke="#CFC0C0" stroke-width="4.16" stroke-miterlimit="10"/>
<path d="M237.978 384.822C239.98 384.822 241.603 383.199 241.603 381.197C241.603 379.195 239.98 377.572 237.978 377.572C235.976 377.572 234.353 379.195 234.353 381.197C234.353 383.199 235.976 384.822 237.978 384.822Z" stroke="#CFC0C0" stroke-width="4.16" stroke-miterlimit="10"/>
<path d="M223.905 113.169L221.249 113.091C220.961 113.082 220.721 113.309 220.712 113.597L220.469 121.825C220.461 122.113 220.687 122.353 220.975 122.361L223.631 122.44C223.92 122.448 224.16 122.222 224.168 121.934L224.411 113.706C224.42 113.418 224.193 113.178 223.905 113.169Z" fill="#FFFFFD"/>
<path d="M222.98 116.633L221.969 116.603C221.681 116.594 221.44 116.821 221.432 117.109L221.332 120.48C221.324 120.768 221.551 121.008 221.839 121.017L222.849 121.046C223.137 121.055 223.378 120.828 223.386 120.54L223.486 117.17C223.494 116.882 223.268 116.641 222.98 116.633Z" fill="#6D84BF"/>
<path d="M365.046 378.228C364.239 375.851 363.604 373.151 364.368 370.139C362.036 367.912 356.528 366.038 354.509 367.587C354.472 369.936 354.01 372.26 353.145 374.444C352.107 377.08 365.527 379.661 365.046 378.228Z" fill="#FFBAA8"/>
<path d="M367.06 381.971C366.675 380.825 365.882 379.113 365.347 377.451C365.303 377.328 365.216 377.225 365.103 377.161C364.989 377.097 364.856 377.077 364.728 377.104C361.216 377.838 360.014 374.829 358.115 373.541C356.786 372.637 353.357 372.758 352.811 374.079C351.711 376.768 350.028 379.156 347.785 380.366C345.633 380.417 343.864 380.524 343.527 380.721C341.766 381.753 341.669 385.338 342.842 385.338H365.702C366.971 385.349 367.791 384.168 367.06 381.971Z" fill="#AB483C"/>
<path d="M351.327 378.986C352.734 378.948 355.055 379.078 355.848 379.344" stroke="#210602" stroke-linecap="round" stroke-linejoin="round"/>
<path d="M353.341 376.983C354.655 376.939 355.967 377.089 357.238 377.426" stroke="#210602" stroke-linecap="round" stroke-linejoin="round"/>
<path d="M297.839 382.659C297.839 382.659 285.467 376.254 288.235 374.054C291.419 371.543 293.175 367.469 293.175 367.469C293.175 367.469 300.668 368.031 302.994 370.263C302.322 372.253 302.279 374.896 302.424 377.418C302.54 379.239 298.982 382.659 297.839 382.659Z" fill="#FFBAA8"/>
<path d="M301.903 385.472H263.955C262.804 385.472 262.387 382.213 263.939 380.949C264.372 380.6 267.266 380.298 270.576 379.836C270.576 379.836 270.592 379.836 270.606 379.836C276.133 379.118 284.537 376.302 287.751 374.068C287.848 374.005 287.967 373.982 288.081 374.006C288.195 374.03 288.295 374.097 288.359 374.194C289.722 376.058 296.284 379.174 302.301 377.421C302.363 377.402 302.429 377.397 302.494 377.407C302.558 377.417 302.62 377.441 302.673 377.478C302.727 377.515 302.772 377.564 302.804 377.62C302.837 377.677 302.856 377.74 302.86 377.806C302.97 379.486 303.062 381.1 303.266 382.42C303.581 384.464 303.078 385.472 301.903 385.472Z" fill="#AB483C"/>
<path d="M283.228 376.956L283.981 378.884" stroke="#210602" stroke-linecap="round" stroke-linejoin="round"/>
<path d="M280.339 377.816L281.092 379.747" stroke="#210602" stroke-linecap="round" stroke-linejoin="round"/>
<path d="M364.903 232.989C349.256 233.422 334.725 234.764 336.04 243.77C339.633 268.359 351.031 356.013 350.939 370.965C350.918 374.479 372.909 372.465 373.122 370.696C374.09 362.696 373.611 321.329 372.622 300.671C371.882 285.214 368.934 232.876 364.903 232.989Z" fill="#B3CFE3"/>
<path d="M367.624 269.518C369.211 282.426 371.284 356.777 370.736 369.945" stroke="#210602" stroke-linecap="round" stroke-linejoin="round"/>
<path d="M297.747 247.814C297.747 267.571 293.062 353.566 290.023 369.857C289.378 373.312 310.544 375.896 310.917 374.159C314.234 358.756 321.167 326.229 325.19 301.779C326.535 293.661 328.149 282.23 329.703 269.65C331.551 254.669 331.855 243.756 331.839 239.922C331.828 237.8 297.747 240.963 297.747 247.814Z" fill="#B3CFE3"/>
<path d="M319.335 269.518C317.872 290.555 308.847 357.554 304.944 372.957" stroke="#210602" stroke-linecap="round" stroke-linejoin="round"/>
<path d="M261.731 135.894C259.982 134.729 258.315 133.447 256.739 132.057C255.521 130.838 253.762 125.941 252.468 125.301C251.032 124.594 247.111 124.699 243.625 124.844C241.24 124.944 236.964 124.323 236.923 124.739C236.679 127.299 244.099 128.071 244.204 128.614C244.309 129.158 223.74 133.648 222.309 136.233C221.771 137.195 227.992 141.718 232.677 142.358C234.643 142.627 250.048 139.96 250.467 140.562C250.887 141.165 257.417 145.37 257.417 145.37L261.731 135.894Z" fill="#FFBAA8"/>
<path d="M244.204 128.614C244.626 129.421 248.679 131.605 249.785 131.54" stroke="#210602" stroke-linecap="round" stroke-linejoin="round"/>
<path d="M230.571 141.716C230.302 141.121 239.557 138.489 241.24 138.408" stroke="#210602" stroke-linecap="round" stroke-linejoin="round"/>
<path d="M227.059 140.065C227.344 138.879 237.308 136.601 238.502 136.233" stroke="#210602" stroke-linecap="round" stroke-linejoin="round"/>
<path d="M224.415 138.411C224.146 136.477 235.205 133.968 236.187 133.686" stroke="#210602" stroke-linecap="round" stroke-linejoin="round"/>
<path d="M287.687 129.16C291.317 129.661 294.83 130.518 298.375 131.263L289.768 96.3587C287.445 98.8326 283.384 114.085 279.949 128.257C282.531 128.571 285.124 128.808 287.687 129.16Z" fill="#FFFFFD"/>
<path d="M286.713 132.688C284.191 132.339 281.641 132.108 279.102 131.801C276.356 143.324 274.178 153.314 273.928 153.809C271.975 157.746 277.771 169.994 279.307 170.812C292.821 177.997 301.36 143.383 301.36 143.383L299.34 135.181C295.131 134.372 291 133.28 286.713 132.688Z" fill="#FFFFFD"/>
<path d="M253.679 148.74C253.679 148.74 278.021 180.563 286.858 170.591C289.604 167.491 292.751 157.848 289.163 153.209C282.517 144.604 261.228 134.025 261.228 134.025L253.679 148.74Z" fill="#FFFFFD"/>
<path d="M276.685 142.692C278.298 143.942 280.928 149.92 281.157 151.835" stroke="#210602" stroke-linecap="round" stroke-linejoin="round"/>
<path d="M261.229 134.025C261.804 134.243 275.972 142.63 276.531 142.791C277.091 142.953 277.946 136.698 278.056 136.233" stroke="#210602" stroke-width="2.08" stroke-linecap="round" stroke-linejoin="round"/>
<path d="M372.574 268.671H295.387L294.809 155.46C294.809 155.46 281.579 106.459 290.637 95.0275C292.504 92.68 293.074 93.1102 298.555 88.3478C299.919 86.4466 302.858 79.939 304.916 79.2318C305.166 78.4465 305.039 77.6559 306.26 76.0613C309.539 71.7372 313.272 72.353 317.825 70.8391C318.053 70.7584 318.287 70.6777 318.521 70.589C321.609 69.4192 323.68 74.3215 324.785 74.6576C326.13 75.0744 331.328 77.8469 335.718 81.0093C342.589 85.2822 348.385 88.8238 351.913 92.6719C353.678 94.5758 354.872 96.5576 355.383 98.7304C356.297 102.683 357.607 116.271 358.798 130.941C358.795 130.967 358.795 130.994 358.798 131.021C358.814 131.25 358.836 131.476 358.849 131.702C358.989 133.458 359.134 135.222 359.274 136.986C359.543 140.417 359.793 143.835 360.035 147.148C360.503 153.499 360.907 159.448 361.205 164.234C361.324 166.224 361.434 167.999 361.515 169.54C361.515 169.54 366.409 192.822 367.448 200.682C369.691 217.575 372.574 268.671 372.574 268.671Z" fill="#FFFFFD"/>
<path d="M360.038 147.14C359.769 149.138 359.43 151.02 359.021 152.752V152.776C357.865 157.708 356.181 161.432 353.911 163.056C343.872 170.247 312.521 155.073 303.081 146.841C303.31 146.51 308.094 130.932 308.094 130.932C308.094 130.932 326.748 137.585 335.319 139.508C336.562 135.571 333.283 97.8269 347.077 92.8386C348.18 92.4456 349.347 92.2632 350.517 92.3008C351.006 92.3116 351.485 92.4369 351.916 92.6665C359.269 96.3156 362.797 127.238 360.038 147.14Z" fill="#FFFFFD"/>
<path d="M300.927 268.671H295.4L294.822 155.46C296.549 159.545 297.896 181.496 298.138 201.495C298.31 216.631 300.075 252.268 300.927 268.671Z" fill="#F2ECE6"/>
<path d="M302.377 89.5229C302.848 91.5694 305.177 93.9707 305.844 93.8255C306.511 93.6803 308.041 86.9898 308.573 86.8849C308.993 86.8043 311.744 93.0699 314.253 93.9788C314.95 94.2289 321.413 83.9834 321.819 82.8351C318.417 87.1754 314.288 91.7092 313.788 91.8598C313.1 92.0722 308.807 85.5807 308.442 85.6345C308.076 85.6883 306.252 91.8894 305.889 91.8544C305.099 91.7899 302.377 89.5229 302.377 89.5229Z" fill="#EDE5DC"/>
<path d="M309.584 115.9L308.439 104.399L307.363 90.803L306.341 92.4783C306.341 92.4783 307.449 101.46 307.624 102.885C307.798 104.31 307.274 106.999 307.409 108.013C307.508 108.718 309.366 115.586 309.584 115.9Z" fill="#EDE5DC"/>
<path d="M335.422 82.9481C335.422 82.9481 334.346 96.5146 333.569 97.0901C332.792 97.6656 324.312 96.2834 324.403 96.7351C324.495 97.1869 328.916 101.576 329.115 102.086C329.314 102.597 310.225 117.374 310.225 117.374L327.459 101.075L322.289 96.0306L332.843 95.6407L335.422 82.9481Z" fill="#EDE5DC"/>
<path d="M296.406 95.6756C296.406 95.6756 295.021 103.283 295.433 103.713C295.844 104.144 299.908 101.602 300.096 101.844C300.285 102.086 299.004 105.701 298.996 106.123C298.988 106.545 309.854 121.125 309.854 121.125L309.778 119.8L300.008 105.222L301.425 100.516L296.229 102.74L296.406 95.6756Z" fill="#EDE5DC"/>
<path d="M324.782 74.6495C323.233 83.2815 312.489 102.716 309.571 116.228C309.571 116.228 303.837 94.7156 301.949 88.4957" stroke="#210602" stroke-linecap="round" stroke-linejoin="round"/>
<path d="M335.661 81.7703L332.842 95.6407L322.289 96.0306L327.458 101.075L309.772 117.802" stroke="#210602" stroke-linecap="round" stroke-linejoin="round"/>
<path d="M296.538 90.3673L296.229 102.74L301.424 100.516L300.007 105.222L309.915 120.055" stroke="#210602" stroke-linecap="round" stroke-linejoin="round"/>
<path d="M301.949 88.4957C301.949 88.4957 302.998 81.8778 304.068 81.106" stroke="#210602" stroke-linecap="round" stroke-linejoin="round"/>
<path d="M308.726 88.5145C307.688 88.3855 308.404 90.171 308.995 90.0366C309.587 89.9021 309.657 88.6302 308.726 88.5145Z" stroke="#210602" stroke-linecap="round" stroke-linejoin="round"/>
<path d="M309.657 101.71C308.621 101.581 309.334 103.366 309.926 103.232C310.518 103.098 310.587 101.826 309.657 101.71Z" stroke="#210602" stroke-linecap="round" stroke-linejoin="round"/>
<path d="M311.416 118.407C309.829 118.21 310.921 120.94 311.806 120.735C312.691 120.531 312.825 118.589 311.416 118.407Z" stroke="#210602" stroke-linecap="round" stroke-linejoin="round"/>
<path d="M314.105 157.737C312.521 157.541 313.61 160.268 314.495 160.066C315.38 159.865 315.525 157.915 314.105 157.737Z" stroke="#210602" stroke-linecap="round" stroke-linejoin="round"/>
<path d="M314.105 177.129C312.521 176.932 313.61 179.659 314.495 179.455C315.38 179.25 315.525 177.306 314.105 177.129Z" stroke="#210602" stroke-linecap="round" stroke-linejoin="round"/>
<path d="M315.37 196.374C313.786 196.175 314.878 198.905 315.762 198.701C316.647 198.496 316.795 196.549 315.37 196.374Z" stroke="#210602" stroke-linecap="round" stroke-linejoin="round"/>
<path d="M315.039 215.604C313.455 215.408 314.547 218.135 315.431 217.933C316.316 217.731 316.461 215.782 315.039 215.604Z" stroke="#210602" stroke-width="2.08" stroke-linecap="round" stroke-linejoin="round"/>
<path d="M321.819 82.8459C319.299 86.0244 314.181 91.8275 313.788 91.8705C312.963 91.9593 308.826 85.6453 308.442 85.6453C308.057 85.6453 306.514 91.7415 305.89 91.8652C305.266 91.9889 302.272 89.6198 302.184 89.2755" stroke="#210602" stroke-linecap="round" stroke-linejoin="round"/>
<path d="M307.342 90.3673C307.342 90.3673 308.219 110.536 309.916 120.055C310.265 122.026 310.706 128.163 311.013 131.559" stroke="#210602" stroke-linecap="round" stroke-linejoin="round"/>
<path d="M287.709 115.9C287.765 116.68 287.948 118.858 288.024 119.571" stroke="#210602" stroke-linecap="round" stroke-linejoin="round"/>
<path d="M295.39 268.668C295.39 268.668 295.535 158.265 294.814 155.457C294.093 152.65 291.334 140.492 291.138 139.513" stroke="#210602" stroke-linecap="round" stroke-linejoin="round"/>
<path d="M338.09 268.668H330.406" stroke="#210602" stroke-width="2.08" stroke-linecap="round" stroke-linejoin="round"/>
<path d="M311.868 153.209C312.264 156.406 314.458 265.56 314.216 268.668" stroke="#210602" stroke-linecap="round" stroke-linejoin="round"/>
<path d="M296.893 208.943C299.332 222.744 305.125 234.557 308.083 239.26" stroke="#210602" stroke-width="2.08" stroke-linecap="round" stroke-linejoin="round"/>
<path d="M270.582 95.1808L292.687 140.264L271.4 152.467L245.691 109.395L270.582 95.1808Z" fill="#1C7342"/>
<path d="M307.895 131.559L304.743 141.716C304.509 141.662 301.699 138.879 299.284 138.325L298.356 138.669C296.374 139.447 294.191 139.552 292.143 138.969C290.095 138.386 288.295 137.147 287.02 135.442L285.014 135.907C285.096 136.177 285.114 136.463 285.066 136.741C285.018 137.019 284.905 137.282 284.737 137.508C284.569 137.735 284.35 137.919 284.097 138.045C283.845 138.172 283.567 138.237 283.284 138.236H282.012C281.075 138.236 280.163 137.926 279.422 137.352C278.68 136.779 278.149 135.976 277.913 135.068L276.23 128.614L274.635 130.959C274.373 131.344 274.026 131.661 273.619 131.887C273.213 132.113 272.76 132.241 272.295 132.261C271.948 132.277 271.6 132.229 271.271 132.118C271.138 132.077 271.017 132.006 270.917 131.91C270.817 131.815 270.741 131.697 270.694 131.566C270.647 131.436 270.631 131.296 270.648 131.159C270.665 131.021 270.713 130.889 270.789 130.774L275.076 124.237C275.388 123.759 275.847 123.396 276.383 123.201L284.368 120.297C285.138 120.016 285.962 119.913 286.777 119.997C287.592 120.081 288.378 120.349 289.075 120.781C289.075 120.781 300.908 128.292 301.492 128.488C302.317 128.76 307.895 131.559 307.895 131.559Z" fill="#FFBAA8"/>
<path d="M276.262 128.614C276.172 128.234 276.227 127.834 276.417 127.493C276.608 127.151 276.918 126.894 277.289 126.77L282.87 124.904" stroke="#210602" stroke-linecap="round" stroke-linejoin="round"/>
<path d="M276.99 131.54C276.9 131.16 276.956 130.759 277.146 130.417C277.336 130.076 277.647 129.817 278.018 129.693L283.596 127.829" stroke="#210602" stroke-linecap="round" stroke-linejoin="round"/>
<path d="M277.765 134.646C277.675 134.266 277.73 133.865 277.92 133.523C278.11 133.181 278.421 132.923 278.792 132.799L284.373 130.935" stroke="#210602" stroke-linecap="round" stroke-linejoin="round"/>
<path d="M285.011 135.894L282.063 136.569" stroke="#210602" stroke-linecap="round" stroke-linejoin="round"/>
<path d="M308.086 130.935C308.086 130.935 326.743 137.583 335.306 139.511C335.752 138.099 335.62 132.342 335.9 125.301" stroke="#210602" stroke-linecap="round" stroke-linejoin="round"/>
<path d="M304.477 142.549C303.732 144.916 303.132 146.728 303.07 146.852C312.521 155.083 343.872 170.247 353.901 163.065C357.028 160.825 359.01 154.801 360 147.148" stroke="#210602" stroke-linecap="round" stroke-linejoin="round"/>
<path d="M319.877 50.5686C320.019 58.0335 316.706 63.116 315.21 63.8178C313.382 64.6729 304.41 52.0422 305.932 49.7995C307.454 47.5568 319.809 47.0082 319.877 50.5686Z" fill="#8F3535"/>
<path d="M308.189 85.3091C306.992 85.769 304.746 82.4183 304.622 82.058C303.428 78.5971 301.634 74.7275 300.997 72.3772L301.029 72.345C301.029 72.345 313.721 59.1146 313.939 59.5932C315.684 63.4064 317.653 68.5641 320.181 72.466C321.052 73.7944 310.932 84.255 308.189 85.3091Z" fill="#FFBAA8"/>
<path d="M319.876 50.5686C319.825 51.214 311.808 63.7156 311.461 63.8797C311.135 63.9151 310.807 63.9151 310.482 63.8797C306.122 63.6968 288.8 62.0672 288.16 61.3492C286.936 59.9643 283.262 52.7629 284.419 48.5249C284.795 48.8664 285.387 49.3316 285.47 49.1003C283.434 45.7175 284.488 42.6465 289.026 37.9056C289.294 38.5591 289.133 40.1053 289.206 40.3473L289.276 40.1698C289.87 38.7607 292.304 35.5984 294.235 34.3694C294.66 34.8911 295.464 35.9829 295.919 36.4293C295.916 36.4187 295.916 36.4076 295.919 36.397C296.128 35.2945 296.814 34.8293 296.994 34.1382C297.971 34.122 300.703 33.8693 303.379 35.8189C303.629 35.55 303.575 34.7163 303.379 34.4205C305.894 34.235 309.008 35.9049 310.608 37.271C310.39 37.0478 310.45 36.2464 310.226 36.0232C312.757 36.2411 314.798 38.3359 316.052 40.5087C316.947 42.0522 317.453 43.628 317.48 44.6069C317.926 44.4401 317.902 43.7087 318.225 43.1601C319.384 44.5477 320.021 48.8153 319.876 50.5686Z" fill="#9C4747"/>
<path d="M319.877 50.5686C319.826 51.214 311.809 63.7156 311.462 63.8797C311.136 63.9151 310.808 63.9151 310.483 63.8797L306.505 62.2904L302.724 50.3051C302.724 50.3051 306.736 50.7488 307.027 50.7515C307.317 50.7542 305.838 48.4442 306.427 48.264C307.016 48.0839 309.939 50.332 310.155 50.3481C310.37 50.3642 308.931 45.3867 307.659 43.3215C309.428 43.7087 312.72 47.624 313.137 47.4089C313.554 47.1938 312.882 43.3484 311.83 41.5305C312.739 41.7268 315.036 43.2758 316.179 45.1124C316.746 44.5531 317.085 42.6573 316.079 40.506C316.975 42.0495 317.481 43.6253 317.507 44.6042C317.954 44.4374 317.93 43.706 318.252 43.1574C319.385 44.5477 320.022 48.8153 319.877 50.5686Z" fill="#8F3535"/>
<path d="M294.276 48.705C292.568 47.7235 293.485 44.2035 294.647 43.4694C293.776 45.3706 293.571 46.7958 296.242 48.4684C298.912 50.141 294.276 48.705 294.276 48.705Z" fill="#8F3535"/>
<path d="M297.358 39.1614C297.243 38.6801 296.471 37.3194 295.936 36.4051C296.145 35.3026 296.831 34.8373 297.011 34.1462C297.31 35.2273 298.049 38.3654 297.358 39.1614Z" fill="#8F3535"/>
<path d="M294.243 34.3775C294.243 34.3775 290.209 40.9846 289.214 40.3554L289.284 40.1779C289.878 38.7688 292.32 35.6118 294.243 34.3775Z" fill="#8F3535"/>
<path d="M288.787 42.8347C288.335 44.6795 286.864 48.1511 291.896 49.5145C296.927 50.8779 288.195 50.4073 288.195 50.4073C288.195 50.4073 285.401 46.5592 288.787 42.8347Z" fill="#8F3535"/>
<path d="M314.586 60.7899C314.794 62.444 314.872 64.1118 314.82 65.7782C314.473 73.3426 311.725 75.0878 305.765 79.7776C304.259 80.9635 299.337 81.5874 298.331 81.1652C295.838 80.1192 289.809 70.3201 289.268 68.2037C289.125 67.3378 289.268 64.958 289.12 64.1701C288.999 63.5946 286.837 59.6282 286.734 58.8537C286.568 57.5952 286.164 51.2651 287.305 49.5198C291.511 48.5061 295.741 47.4869 300.851 47.9736C301.489 48.2802 303.312 51.4694 305.676 54.1343C306.324 54.8658 308.721 54.5807 309.441 55.21C310.762 56.3206 311.181 59.924 311.692 61.0615C311.803 61.3035 312.994 60.7469 313.037 60.6205C313.161 60.2198 312.892 59.1926 313.115 57.9986C313.319 56.9122 314.344 58.6655 314.586 60.7899Z" fill="#FFBAA8"/>
<path d="M317.115 52.9216C319.95 54.293 317.255 65.5281 313.081 60.045C312.013 55.0782 313.672 51.2543 317.115 52.9216Z" fill="#FFBAA8"/>
<path d="M314.874 55.6107C316.237 54.7878 317.351 58.6036 315.742 59.2114C313.857 59.924 313.763 56.283 314.874 55.6107Z" fill="#EB776C"/>
<path d="M314.151 58.1196C313.882 56.1754 315.705 54.3549 316.601 55.3606" stroke="#210602" stroke-linecap="round" stroke-linejoin="round"/>
<path d="M316.13 57.0843C315.621 56.3932 314.551 56.5142 314.247 56.8638" stroke="#210602" stroke-linecap="round" stroke-linejoin="round"/>
<path d="M293.065 70.2044C293.711 71.3043 297.1 70.7907 298.011 69.5859" stroke="#210602" stroke-linecap="round" stroke-linejoin="round"/>
<path d="M298.055 73.7379C298.821 74.0068 301.532 73.0388 302.627 71.7614" stroke="#210602" stroke-linecap="round" stroke-linejoin="round"/>
<path d="M304.289 80.5978C310.034 78.1615 315.076 71.8045 314.872 67.553" stroke="#210602" stroke-linecap="round" stroke-linejoin="round"/>
<path d="M295.279 57.2241C296.575 55.9656 298.423 56.7858 300.268 55.729C300.773 55.4601 301.749 56.3394 301.045 56.8988C300.171 57.5952 297.85 58.5337 297.226 59.4668C297.164 59.5629 297.084 59.6457 296.99 59.7104C296.896 59.7752 296.79 59.8205 296.679 59.8438C296.567 59.8671 296.452 59.8678 296.34 59.8461C296.228 59.8243 296.121 59.7804 296.026 59.7169C295.588 59.4292 294.343 57.8453 295.279 57.2241Z" fill="#8F3535"/>
<path d="M299.461 60.9378C300.397 59.7062 301.666 61.7848 301.179 62.9035C300.956 63.4144 300.373 63.3392 299.907 62.8497C299.364 62.2877 299.133 61.3788 299.461 60.9378Z" fill="#542C26"/>
<path d="M290.572 63.4629C291.32 62.4598 292.366 64.4901 291.981 65.4474C291.806 65.883 291.338 65.7486 290.949 65.2484C290.505 64.673 290.308 63.8205 290.572 63.4629Z" fill="#542C26"/>
<path d="M286.942 59.3485C287.91 58.8618 289.632 58.2541 290.688 58.6144C291.35 58.843 291.396 60.0074 291.164 60.685C290.949 61.3143 290.274 61.3815 289.677 61.1744C288.863 60.9733 288.025 60.8828 287.187 60.9055C286.544 61.0427 286.442 59.604 286.942 59.3485Z" fill="#8F3535"/>
<path d="M313.188 53.7767L303.535 61.3008" stroke="#210602" stroke-linecap="round" stroke-linejoin="round"/>
<path d="M293.391 65.5254L296.634 64.5439" stroke="#210602" stroke-linecap="round" stroke-linejoin="round"/>
<path d="M291.394 70.2719C293.131 69.7359 293.975 67.4745 293.28 65.2209C292.584 62.9674 290.612 61.575 288.875 62.1111C287.138 62.6471 286.293 64.9085 286.989 67.1621C287.684 69.4156 289.656 70.8079 291.394 70.2719Z" stroke="#210602" stroke-linecap="round" stroke-linejoin="round"/>
<path d="M301.398 67.198C303.393 66.5822 304.447 64.2562 303.751 62.0027C303.056 59.7491 300.874 58.4214 298.879 59.0371C296.883 59.6529 295.829 61.9789 296.525 64.2324C297.221 66.486 299.402 67.8137 301.398 67.198Z" stroke="#210602" stroke-linecap="round" stroke-linejoin="round"/>
<path d="M289.932 48.6997C287.262 47.3551 288.391 42.8616 289.459 41.587" stroke="#210602" stroke-linecap="round" stroke-linejoin="round"/>
<path d="M295.327 47.8096C293.356 46.5484 294.343 43.8378 294.854 43.109" stroke="#210602" stroke-linecap="round" stroke-linejoin="round"/>
<path d="M295.927 36.4374C296.623 37.273 297.123 38.2545 297.39 39.3093" stroke="#210602" stroke-linecap="round" stroke-linejoin="round"/>
<path d="M310.628 37.2764C311.533 38.0885 312.166 39.1599 312.441 40.3446" stroke="#210602" stroke-linecap="round" stroke-linejoin="round"/>
<path d="M306.499 41.7752C307.844 43.1332 308.938 45.8331 309.487 47.7397" stroke="#210602" stroke-linecap="round" stroke-linejoin="round"/>
<path d="M303.406 35.8242C302.925 36.5395 302.451 37.7738 302.841 38.6612" stroke="#210602" stroke-linecap="round" stroke-linejoin="round"/>
<path d="M317.117 42.781C315.788 36.9698 312.916 35.9453 311.864 35.6683" stroke="#210602" stroke-linecap="round" stroke-linejoin="round"/>
<path d="M289.214 40.3554C289.598 38.2552 291.365 35.7839 292.834 34.7083" stroke="#210602" stroke-linecap="round" stroke-linejoin="round"/>
<path d="M286.549 58.6736C285.742 57.7001 282.98 53.2039 283.526 50.1518" stroke="#210602" stroke-linecap="round" stroke-linejoin="round"/>
<path d="M121.063 179.707H40.2213C37.0544 179.707 34.0171 180.965 31.7777 183.204C29.5383 185.444 28.2803 188.48 28.2803 191.647V281.323C28.2803 281.666 28.3478 282.005 28.4791 282.322C28.6104 282.639 28.8028 282.926 29.0453 283.169C29.2878 283.411 29.5757 283.603 29.8926 283.734C30.2094 283.865 30.5489 283.932 30.8917 283.932H133.004V191.647C133.004 188.48 131.746 185.444 129.507 183.204C127.267 180.965 124.23 179.707 121.063 179.707ZM112.322 220.743C112.322 221.978 111.832 223.162 110.959 224.035C110.086 224.908 108.902 225.398 107.667 225.398H57.8183C56.5836 225.398 55.3995 224.908 54.5264 224.035C53.6534 223.162 53.1629 221.978 53.1629 220.743V201.035C53.1629 199.8 53.6534 198.616 54.5264 197.743C55.3995 196.87 56.5836 196.38 57.8183 196.38H107.667C108.902 196.38 110.086 196.87 110.959 197.743C111.832 198.616 112.322 199.8 112.322 201.035V220.743Z" fill="#D1C4C4"/>
<path d="M128.892 179.707H48.0534C44.8864 179.707 41.8491 180.965 39.6098 183.204C37.3704 185.444 36.1123 188.48 36.1123 191.647V281.323C36.1123 282.015 36.3872 282.679 36.8764 283.168C37.3656 283.657 38.0292 283.932 38.7211 283.932H140.833V191.647C140.833 188.48 139.575 185.444 137.336 183.204C135.097 180.965 132.059 179.707 128.892 179.707ZM120.154 220.743C120.154 221.978 119.664 223.162 118.791 224.035C117.918 224.908 116.734 225.398 115.499 225.398H65.6476C64.4129 225.398 63.2288 224.908 62.3558 224.035C61.4827 223.162 60.9922 221.978 60.9922 220.743V201.035C60.9922 199.8 61.4827 198.616 62.3558 197.743C63.2288 196.87 64.4129 196.38 65.6476 196.38H115.499C116.734 196.38 117.918 196.87 118.791 197.743C119.664 198.616 120.154 199.8 120.154 201.035V220.743Z" fill="#DBD1D1"/>
<path d="M121.063 179.707H40.2213C37.0544 179.707 34.0171 180.965 31.7777 183.204C29.5383 185.444 28.2803 188.48 28.2803 191.647V281.323C28.2803 281.666 28.3478 282.005 28.4791 282.322C28.6104 282.639 28.8028 282.926 29.0453 283.169C29.2878 283.411 29.5757 283.603 29.8926 283.734C30.2094 283.865 30.5489 283.932 30.8917 283.932H133.004V191.647C133.004 188.48 131.746 185.444 129.507 183.204C127.267 180.965 124.23 179.707 121.063 179.707V179.707ZM120.154 220.743C120.154 221.978 119.663 223.162 118.79 224.035C117.917 224.908 116.733 225.398 115.499 225.398H65.6472C64.4125 225.398 63.2284 224.908 62.3554 224.035C61.4823 223.162 60.9918 221.978 60.9918 220.743V201.035C60.9918 199.8 61.4823 198.616 62.3554 197.743C63.2284 196.87 64.4125 196.38 65.6472 196.38H115.499C116.733 196.38 117.917 196.87 118.79 197.743C119.663 198.616 120.154 199.8 120.154 201.035V220.743Z" stroke="#210602" stroke-miterlimit="10"/>
<path d="M205.637 222.841L169.368 151.515C168.492 149.792 167.156 148.344 165.509 147.334C163.861 146.323 161.966 145.787 160.033 145.787H73.1642C71.8468 145.773 70.5458 146.079 69.3721 146.677C67.4257 147.667 65.9523 149.39 65.276 151.466C64.5997 153.542 64.7758 155.802 65.7656 157.748L107.263 239.309H301.709V222.841H205.637Z" fill="#35A064"/>
<path d="M321.791 237.843V283.932H46.0273V247.863C46.0281 245.205 47.0844 242.657 48.9641 240.778C50.8438 238.899 53.3929 237.843 56.0509 237.843H321.791Z" fill="#EDE5DC" stroke="#210602" stroke-miterlimit="10"/>
<path d="M290.126 219.401L290.23 283.932H275.56L290.126 219.401Z" fill="#DBD1D1"/>
<path d="M69.781 377.456L64.0391 373.716L67.3013 369.582L69.781 377.456Z" fill="#C7B9B9"/>
<path d="M70.4321 383.501C74.4321 383.501 77.6747 380.259 77.6747 376.259C77.6747 372.26 74.4321 369.018 70.4321 369.018C66.4321 369.018 63.1895 372.26 63.1895 376.259C63.1895 380.259 66.4321 383.501 70.4321 383.501Z" stroke="#BAA4A4" stroke-width="10.39" stroke-miterlimit="10"/>
<path d="M72.0561 366.272V376.816C72.0561 377.41 71.5613 378.029 71.0772 378.029H70.2004C69.684 378.029 69.2107 377.604 68.9794 377.037L64.4746 365.928L72.0561 366.272Z" fill="#D1C4C4"/>
<path d="M62.6025 364.374H72.2603C72.45 364.374 72.632 364.449 72.7662 364.583C72.9003 364.717 72.9757 364.899 72.9757 365.089V366.267C72.9757 366.456 72.9003 366.638 72.7662 366.773C72.632 366.907 72.45 366.982 72.2603 366.982H63.3179C63.1282 366.982 62.9462 366.907 62.8121 366.773C62.6779 366.638 62.6025 366.456 62.6025 366.267V364.384V364.374Z" fill="#EDE5DC"/>
<path d="M70.0845 359.014H62.6025V364.93H70.0845V359.014Z" fill="#EDE5DC"/>
<path d="M62.6025 362.755L70.0845 361.19V359.014H62.6025V362.755Z" fill="#D1C4C4"/>
<path d="M144.948 377.456L139.206 373.716L142.468 369.582L144.948 377.456Z" fill="#C7B9B9"/>
<path d="M145.601 383.501C149.601 383.501 152.844 380.259 152.844 376.259C152.844 372.26 149.601 369.018 145.601 369.018C141.601 369.018 138.358 372.26 138.358 376.259C138.358 380.259 141.601 383.501 145.601 383.501Z" stroke="#BAA4A4" stroke-width="10.39" stroke-miterlimit="10"/>
<path d="M147.234 366.272V376.816C147.234 377.41 146.742 378.029 146.258 378.029H145.381C144.862 378.029 144.391 377.604 144.157 377.037L139.655 365.928L147.234 366.272Z" fill="#D1C4C4"/>
<path d="M137.77 364.374H147.427C147.617 364.374 147.799 364.449 147.933 364.583C148.067 364.717 148.143 364.899 148.143 365.089V366.267C148.143 366.456 148.067 366.638 147.933 366.773C147.799 366.907 147.617 366.982 147.427 366.982H138.485C138.295 366.982 138.113 366.907 137.979 366.773C137.845 366.638 137.77 366.456 137.77 366.267V364.384V364.374Z" fill="#EDE5DC"/>
<path d="M145.252 359.014H137.77V364.93H145.252V359.014Z" fill="#EDE5DC"/>
<path d="M137.77 362.755L145.252 361.19V359.014H137.77V362.755Z" fill="#D1C4C4"/>
<path d="M252.703 377.456L246.961 373.716L250.223 369.582L252.703 377.456Z" fill="#C7B9B9"/>
<path d="M253.356 383.501C257.356 383.501 260.599 380.259 260.599 376.259C260.599 372.26 257.356 369.018 253.356 369.018C249.356 369.018 246.113 372.26 246.113 376.259C246.113 380.259 249.356 383.501 253.356 383.501Z" stroke="#BAA4A4" stroke-width="10.39" stroke-miterlimit="10"/>
<path d="M254.989 366.272V376.816C254.989 377.41 254.497 378.029 254.012 378.029H253.136C252.617 378.029 252.146 377.604 251.912 377.037L247.407 365.928L254.989 366.272Z" fill="#D1C4C4"/>
<path d="M245.524 364.374H255.182C255.372 364.374 255.554 364.449 255.688 364.583C255.822 364.717 255.898 364.899 255.898 365.089V366.267C255.898 366.456 255.822 366.638 255.688 366.773C255.554 366.907 255.372 366.982 255.182 366.982H246.24C246.05 366.982 245.868 366.907 245.734 366.773C245.6 366.638 245.524 366.456 245.524 366.267V364.384V364.374Z" fill="#EDE5DC"/>
<path d="M253.006 359.014H245.524V364.93H253.006V359.014Z" fill="#EDE5DC"/>
<path d="M245.524 362.755L253.006 361.19V359.014H245.524V362.755Z" fill="#D1C4C4"/>
<path d="M336.253 377.456L330.511 373.716L333.773 369.582L336.253 377.456Z" fill="#C7B9B9"/>
<path d="M336.906 383.501C340.906 383.501 344.148 380.259 344.148 376.259C344.148 372.26 340.906 369.018 336.906 369.018C332.906 369.018 329.663 372.26 329.663 376.259C329.663 380.259 332.906 383.501 336.906 383.501Z" stroke="#BAA4A4" stroke-width="10.39" stroke-miterlimit="10"/>
<path d="M338.538 366.272V376.816C338.538 377.41 338.046 378.029 337.562 378.029H336.696C336.179 378.029 335.706 377.604 335.475 377.037L330.973 365.928L338.538 366.272Z" fill="#D1C4C4"/>
<path d="M329.074 364.374H338.732C338.922 364.374 339.104 364.449 339.238 364.583C339.372 364.717 339.447 364.899 339.447 365.089V366.267C339.447 366.456 339.372 366.638 339.238 366.773C339.104 366.907 338.922 366.982 338.732 366.982H329.79C329.6 366.982 329.418 366.907 329.284 366.773C329.15 366.638 329.074 366.456 329.074 366.267V364.384V364.374Z" fill="#EDE5DC"/>
<path d="M336.556 359.014H329.074V364.93H336.556V359.014Z" fill="#EDE5DC"/>
<path d="M329.074 362.755L336.556 361.19V359.014H329.074V362.755Z" fill="#D1C4C4"/>
<path d="M358.179 356.597H61.46C59.2595 356.597 57.1492 355.723 55.5932 354.167C54.0372 352.611 53.1631 350.501 53.1631 348.301V308.671H366.482V348.298C366.482 349.388 366.268 350.468 365.85 351.475C365.433 352.482 364.822 353.397 364.051 354.168C363.28 354.939 362.364 355.55 361.357 355.966C360.349 356.383 359.27 356.597 358.179 356.597Z" stroke="#DBD1D1" stroke-width="20.78" stroke-miterlimit="10"/>
<path d="M287.708 327.527V356.597" stroke="#DBD1D1" stroke-width="20.78" stroke-miterlimit="10"/>
<path d="M130.783 327.527V356.597" stroke="#DBD1D1" stroke-width="20.78" stroke-miterlimit="10"/>
<path d="M53.1631 327.326H366.476" stroke="#DBD1D1" stroke-width="20.78" stroke-miterlimit="10"/>
<path d="M38.721 283.932H378.947V302.664C378.947 303.701 378.535 304.696 377.802 305.429C377.069 306.162 376.074 306.574 375.037 306.574H42.6233C41.5862 306.574 40.5916 306.162 39.8582 305.429C39.1249 304.696 38.7129 303.701 38.7129 302.664V283.932H38.721Z" fill="#D1C4C4"/>
<path d="M120.154 327.326V309.696" stroke="#DBD1D1" stroke-width="20.78" stroke-miterlimit="10"/>
<path d="M301.72 327.326V308.671" stroke="#DBD1D1" stroke-width="20.78" stroke-miterlimit="10"/>
<path d="M88.365 143.684C81.1412 168.217 113.742 211.538 118.852 214.136C121.074 215.271 173.816 214.999 179.685 205.383C183.434 199.238 165.431 151.176 155.047 144.797C144.663 138.419 90.0755 137.843 88.365 143.684Z" fill="#FFFFFD"/>
<path d="M128.039 111.28L127.638 111.168C126.337 110.839 122.039 109.904 118.247 110.718C114.269 111.584 113.546 146.484 130.18 159.7C129.373 164.272 118.758 174.257 116.811 172.608C96.2231 155.202 107.616 109.769 111.894 106.456C114.315 104.574 115.358 105.886 118.672 106.456C120.536 106.776 122.706 107.206 125.352 107.303L127.703 110.791L128.039 111.28Z" fill="#313647"/>
<path d="M127.703 110.791L127.639 111.176C126.337 110.848 122.039 109.912 118.247 110.727C114.28 111.598 115.625 142.501 125.786 153.596C127.52 155.479 118.61 161.22 116.214 159.7C106.29 153.408 112.551 116.271 113.751 112.768C114.061 111.784 114.652 110.913 115.451 110.26C116.25 109.608 117.221 109.202 118.247 109.094C118.247 109.094 117.978 108.129 118.672 106.456C120.536 106.776 122.706 107.206 125.353 107.303L127.703 110.791Z" fill="#3F435A"/>
<path d="M149.342 166.845C156.905 176.997 167.744 194.637 178.119 200.395C188.175 205.969 220.534 203.842 225.241 202.221C227.949 201.287 228.627 198.628 227.527 196.326C223.493 196.025 189.068 189.334 184.284 187.845C182.248 187.213 177.17 179.707 166.732 162.489C161.292 153.502 144.865 160.835 149.342 166.845Z" fill="#FF9D8C"/>
<path d="M184.133 202.538C181.712 204.108 145.37 208.774 142.925 208.774C135.201 200.024 134.674 194.019 131.968 187.904C125.963 174.337 109.708 166.891 109.708 161.739C109.708 155.376 117.827 145.308 126.88 142.514C131.893 140.971 147.051 144.709 152.43 147.406C159.07 150.748 167.294 161.954 168.596 163.761C168.596 164.363 167.991 165.044 167.859 165.794C168.935 167.773 168.512 170.761 168.33 171.85C173.961 184.128 184.17 201.866 184.133 202.538Z" fill="#BADBC7"/>
<path d="M155.043 176.87C153.972 178.378 152.51 179.566 150.814 180.306C149.118 181.045 147.252 181.309 145.418 181.068" stroke="#210602" stroke-linecap="round" stroke-linejoin="round"/>
<path d="M167.655 172.791C168.758 171.697 169.053 167.475 167.655 165.458C165.487 162.333 163.306 161.76 162.349 160.281" stroke="#210602" stroke-linecap="round" stroke-linejoin="round"/>
<path d="M328.934 208.774C351.902 214.254 351.007 244.539 335.168 244.539H202.762C192.715 244.539 188.016 258.692 179.706 258.692C173.91 258.692 165.156 245.324 162.437 244.149C159.656 242.95 150.951 270.481 143.59 269.088C139.749 268.359 124.226 233.925 126.444 215.938C127.267 209.253 134.733 209.79 139.991 207.333C143.471 205.703 163.529 188.832 183.329 190.819C207.676 193.25 309.63 204.167 328.934 208.774Z" fill="#1C7342"/>
<path d="M152.788 113.953C148.627 94.3364 130.022 101.729 126.846 103.522C124.85 104.646 123.263 106.827 122.144 109.202C120.192 112.302 119.138 116.28 119.156 118.716C119.205 124.93 129.126 136.252 132.741 135.625C140.312 134.315 147.896 126.834 150.685 120.929C152.323 118.251 153.162 115.712 152.788 113.953Z" fill="#313647"/>
<path d="M130.075 122.058C132.921 122.494 142.785 133.89 132.74 135.625C130.481 136.018 125.761 131.742 122.521 126.963C124.909 129.397 128.338 133.853 130.075 122.058Z" fill="#203663"/>
<path d="M140.981 104.372C142.864 106.666 144.776 110.124 144.886 110.697C144.997 111.27 146.064 110.046 146.064 110.046C146.064 110.046 144.916 106.876 140.981 104.372Z" fill="#203663"/>
<path d="M145.373 105.477C146.629 107.451 147.629 110.366 147.525 110.934C147.42 111.501 148.662 111.52 148.654 111.02C148.646 110.519 148.974 108.739 145.373 105.477Z" fill="#203663"/>
<path d="M124.957 112.316C127.031 114.736 131.412 117.213 133.318 117.672C136.078 118.339 134.55 119.394 132.781 119.184C130.874 118.958 125.753 114.58 124.957 112.316Z" fill="#203663"/>
<path d="M145.523 109.312C143.372 104.819 138.127 102.32 135.08 102.589" stroke="#210602" stroke-linecap="round" stroke-linejoin="round"/>
<path d="M148.415 109.6C148.084 107.758 144.857 104.735 143.251 103.939" stroke="#210602" stroke-linecap="round" stroke-linejoin="round"/>
<path d="M131.936 118.955C129.623 117.901 124.699 112.94 124.18 110.721" stroke="#210602" stroke-linecap="round" stroke-linejoin="round"/>
<path d="M139.149 145.169C139.149 145.437 146.505 152.362 143.563 154.441C139.609 157.237 122.725 147.831 123.362 144.273C123.413 144.004 125.339 141.831 125.417 141.557C127.098 135.512 129.102 127.453 128.144 121.902C127.456 117.912 141.228 131.992 141.228 131.992C140.072 133.977 139.364 136.335 138.999 138.532C138.792 139.753 138.691 140.99 138.697 142.229C138.711 143.523 138.872 144.569 139.149 145.169Z" fill="#FF9D8C"/>
<path d="M152.546 128.749C150.693 136.416 146.091 139.505 142.35 139.481C132.905 139.438 129.029 132.331 129.5 119.851C130.269 118.159 131.95 118.603 134.36 116.414C135.645 115.247 138.281 111.738 139.938 110.942C143.092 109.425 146.363 108.992 150.518 110.713C152.758 112.033 154.635 120.044 152.546 128.749Z" fill="#FF9D8C"/>
<path d="M129.3 124.129C127.057 126.627 124.231 118.955 126.807 117.853C128.079 117.315 129.338 119.275 129.338 119.275C129.833 120.857 129.819 122.555 129.3 124.129Z" fill="#FF9D8C"/>
<path d="M129.086 122.704C128.597 123.338 126.316 122.099 127.168 120.838C128.021 119.576 129.906 121.639 129.086 122.704Z" fill="#F2816A"/>
<path d="M129.056 121.607C128.768 120.765 127.746 120.109 127.354 120.434" stroke="#210602" stroke-linecap="round" stroke-linejoin="round"/>
<path d="M141.772 120.066C140.672 119.657 139.351 119.886 138.351 120.233" stroke="#210602" stroke-linecap="round" stroke-linejoin="round"/>
<path d="M148.46 120.068C149.054 119.775 150.773 119.8 151.397 120.206" stroke="#210602" stroke-linecap="round" stroke-linejoin="round"/>
<path d="M147.715 128.493C147.715 129.728 144.883 129.115 144.386 128.859" stroke="#210602" stroke-linecap="round" stroke-linejoin="round"/>
<path d="M145.228 132.086C144.082 132.385 140.892 131.801 140.387 131.548" stroke="#210602" stroke-linecap="round" stroke-linejoin="round"/>
<path d="M138.885 139.261C136.92 138.641 135.156 137.507 133.775 135.977" stroke="#210602" stroke-linecap="round" stroke-linejoin="round"/>
<path d="M137.856 123.088C137.853 122.856 137.898 122.625 137.987 122.411C138.127 122.091 139.171 122.126 139.302 122.489C139.371 122.681 139.406 122.884 139.405 123.088C139.405 123.758 139.058 124.301 138.63 124.301C138.202 124.301 137.856 123.758 137.856 123.088Z" fill="#210602"/>
<path d="M148.466 123.083C148.464 122.862 148.506 122.642 148.59 122.438C148.716 122.142 149.636 122.169 149.76 122.475C149.834 122.669 149.872 122.875 149.87 123.083C149.87 123.712 149.555 124.22 149.168 124.22C148.781 124.22 148.466 123.712 148.466 123.083Z" fill="#210602"/>
<path d="M123.362 144.273C123.362 147.519 140.419 158.256 143.563 154.441C146.05 151.413 139.666 145.771 139.491 145.273" stroke="#210602" stroke-linecap="round" stroke-linejoin="round"/>
<path d="M113.15 175.663C119.358 186.688 127.864 205.571 137.433 212.603C146.698 219.412 179.926 214.792 184.789 213.784C187.597 213.2 188.605 210.651 187.809 208.225C183.853 207.419 149.702 203.017 145.144 200.941C143.205 200.056 134.241 181.601 124.973 164.159C120.038 154.876 109.474 169.145 113.15 175.663Z" fill="#FF9D8C"/>
<path d="M110.685 157.436C105.911 167.386 111.29 176.104 117.481 188.146C122.053 186.93 135.11 179.721 135.11 179.721C135.11 179.721 132.012 170.207 126.722 164.205C122.255 159.141 112.667 153.314 110.685 157.436Z" fill="#BADBC7"/>
<path d="M187.231 208.096C192.223 208.871 199.53 209.328 201.62 210.046C203.61 210.729 210.14 213.036 209.855 213.972C209.516 215.091 203.317 212.461 203.131 212.676C202.945 212.891 210.046 215.811 209.656 216.484C208.929 217.734 201.283 214.093 201.195 214.416C201.106 214.738 207.558 217.218 206.877 218.057C205.974 219.165 198.373 215.44 198.271 215.787C198.142 216.18 203.709 218.724 203.319 219.181C202.488 220.146 196.52 217.788 195.977 217.713C195.305 217.618 186.244 217.008 185.44 216.57C184.004 215.787 180.352 212.496 180.352 212.496L187.231 208.096Z" fill="#FF9D8C"/>
<path d="M131.406 173.453L134.211 180.21" stroke="#210602" stroke-linecap="round" stroke-linejoin="round"/>
<path d="M356.469 225.398H343.56V234.759H378.947V191.946H343.57V196.38H356.48C357.714 196.38 358.898 196.87 359.771 197.743C360.645 198.616 361.135 199.8 361.135 201.035V220.743C361.135 221.355 361.014 221.962 360.78 222.527C360.545 223.092 360.201 223.606 359.768 224.038C359.334 224.471 358.82 224.813 358.254 225.047C357.688 225.28 357.081 225.399 356.469 225.398Z" fill="#DBD1D1"/>
<path d="M386.778 281.323V191.647C386.778 188.48 385.52 185.444 383.281 183.204C381.042 180.965 378.004 179.707 374.837 179.707H293.996C290.829 179.707 287.792 180.965 285.552 183.204C283.313 185.444 282.055 188.48 282.055 191.647V281.323C282.055 282.015 282.33 282.679 282.819 283.168C283.308 283.657 283.972 283.932 284.663 283.932H384.172C384.864 283.931 385.527 283.656 386.015 283.167C386.504 282.678 386.778 282.015 386.778 281.323ZM309.802 201.035C309.802 199.801 310.292 198.617 311.164 197.744C312.037 196.871 313.22 196.381 314.454 196.38H364.306C364.918 196.379 365.524 196.498 366.09 196.732C366.655 196.965 367.169 197.308 367.603 197.74C368.036 198.173 368.379 198.686 368.614 199.252C368.848 199.817 368.969 200.423 368.969 201.035V220.743C368.969 221.978 368.479 223.162 367.605 224.035C366.732 224.908 365.548 225.398 364.314 225.398H314.452C313.218 225.397 312.035 224.906 311.163 224.033C310.291 223.16 309.802 221.977 309.802 220.743V201.035Z" fill="#EDE5DC" stroke="#210602" stroke-miterlimit="10"/>
<path d="M30.8916 283.932H290.231" stroke="#210602" stroke-miterlimit="10"/>
<path d="M72.0674 311.654H280.716" stroke="#210602" stroke-miterlimit="10" stroke-linecap="round"/>
<path d="M159.753 330.09H315.498" stroke="#210602" stroke-miterlimit="10" stroke-linecap="round"/>
<path d="M62.6025 359.014H304.944" stroke="#210602" stroke-miterlimit="10" stroke-linecap="round"/>
</svg>
