<svg width="37" height="37" viewBox="0 0 37 37" fill="none" xmlns="http://www.w3.org/2000/svg">
<g clip-path="url(#clip0_9_12)">
<path d="M35.1369 0H17.1789C16.6808 0 16.2756 0.405193 16.2756 0.90332V4.51118C16.2756 4.81058 16.5183 5.05317 16.8176 5.05317C17.1169 5.05317 17.3596 4.81058 17.3596 4.51118V1.08398H34.9562V14.0429H17.3596V7.04048C17.3596 6.74108 17.1169 6.49849 16.8176 6.49849C16.5183 6.49849 16.2756 6.74108 16.2756 7.04048V14.2236C16.2756 14.7217 16.6808 15.1269 17.1789 15.1269H17.9659V20.7677H15.5985C15.2997 20.7677 15.0566 20.5246 15.0566 20.2257V12.5627C15.0566 11.6661 14.3272 10.9367 13.4306 10.9367H7.13696V10.6736C7.13696 10.0667 6.64353 9.57303 6.03708 9.57303H4.3793C3.77242 9.57303 3.2787 10.0667 3.2787 10.6736V14.8175C1.80874 16.1723 0.959839 18.0673 0.959839 20.0932C0.959839 22.5568 2.21437 24.8277 4.31557 26.1677C4.58663 26.3406 4.89723 26.427 5.20797 26.427C5.51857 26.427 5.82931 26.3406 6.10024 26.1677C8.20158 24.8276 9.45611 22.5568 9.45611 20.0932C9.45611 18.0673 8.60706 16.1721 7.13696 14.8173V14.2334H10.9576C11.2565 14.2334 11.4996 14.4765 11.4996 14.7754V23.3259C11.4996 24.2224 12.229 24.9519 13.1256 24.9519H17.9659V33.1125C17.9659 33.6106 18.3711 34.0158 18.8692 34.0158H20.2519C20.1013 34.2996 20.0156 34.6228 20.0156 34.9659C20.0156 36.0875 20.9281 36.9999 22.0496 36.9999C23.1712 36.9999 24.0837 36.0874 24.0837 34.9659C24.0837 34.6228 23.998 34.2996 23.8474 34.0158H28.4683C28.3177 34.2996 28.2319 34.6228 28.2319 34.9659C28.2319 36.0875 29.1444 36.9999 30.266 36.9999C31.3876 36.9999 32.3001 36.0874 32.3001 34.9659C32.3001 34.6228 32.2144 34.2996 32.0638 34.0158H33.4464C33.9445 34.0158 34.3497 33.6106 34.3497 33.1125V27.7473C34.3497 27.4479 34.1071 27.2053 33.8077 27.2053C33.5083 27.2053 33.2658 27.4479 33.2658 27.7473V32.9318H19.0499V24.9519H23.8599V25.8313H22.6975C22.1994 25.8313 21.7942 26.2365 21.7942 26.7346V30.8587C21.7942 31.3568 22.1994 31.762 22.6975 31.762H29.6183C30.1164 31.762 30.5216 31.3568 30.5216 30.8587V26.7346C30.5216 26.2365 30.1164 25.8313 29.6183 25.8313H28.4558V24.9519H29.6499C30.148 24.9519 30.5532 24.5467 30.5532 24.0486V19.906C31.3099 19.6737 31.8616 18.9686 31.8616 18.1368C31.8616 17.1165 31.0315 16.2865 30.0113 16.2865C28.991 16.2865 28.161 17.1165 28.161 18.1368C28.161 18.9686 28.7127 19.6737 29.4693 19.906V23.8679H28.4559V22.8065C28.4559 22.3088 28.051 21.904 27.5534 21.904H24.7625C24.2649 21.904 23.8599 22.3089 23.8599 22.8065V23.8679H19.0499V21.8517H21.9435C22.4415 21.8517 22.8466 21.4465 22.8466 20.9484V19.906C23.6032 19.6737 24.1548 18.9686 24.1548 18.1368C24.1548 17.1165 23.3247 16.2865 22.3045 16.2865C21.2843 16.2865 20.4542 17.1165 20.4542 18.1368C20.4542 18.9686 21.006 19.6738 21.7627 19.9061V20.7678H19.0499V15.127H33.266V25.218C33.266 25.5174 33.5086 25.76 33.808 25.76C34.1074 25.76 34.35 25.5174 34.35 25.218V15.1269H35.1369C35.6351 15.1269 36.0402 14.7217 36.0402 14.2236V0.90332C36.0402 0.405193 35.6349 0 35.1369 0V0ZM22.9998 34.9659C22.9998 35.4899 22.5736 35.916 22.0497 35.916C21.5258 35.916 21.0996 35.4899 21.0996 34.9659C21.0996 34.442 21.5258 34.0159 22.0497 34.0159C22.5736 34.0159 22.9998 34.442 22.9998 34.9659ZM31.2163 34.9659C31.2163 35.4899 30.7901 35.916 30.2661 35.916C29.7422 35.916 29.3161 35.4899 29.3161 34.9659C29.3161 34.442 29.7422 34.0159 30.2661 34.0159C30.7901 34.0159 31.2163 34.442 31.2163 34.9659ZM30.0113 17.3704C30.4339 17.3704 30.7776 17.7142 30.7776 18.1367C30.7776 18.5593 30.4337 18.9031 30.0112 18.9031C29.5887 18.9031 29.2449 18.5593 29.2449 18.1367C29.2449 17.7142 29.5887 17.3704 30.0113 17.3704ZM29.4376 30.6781H22.8782V26.9153H29.4376V30.6781ZM24.9439 22.988H27.3718V25.8313H24.9439V22.988ZM22.3045 17.3704C22.7271 17.3704 23.0708 17.7142 23.0708 18.1367C23.0708 18.5593 22.7271 18.9031 22.3046 18.9031C21.882 18.9031 21.5381 18.5593 21.5381 18.1367C21.5381 17.7142 21.8819 17.3704 22.3045 17.3704ZM4.3793 10.657H6.03708C6.04568 10.657 6.05298 10.6646 6.05298 10.6736V13.9909C5.53353 13.6836 4.88213 13.6836 4.36268 13.9911V10.6736C4.36268 10.6643 4.36998 10.657 4.3793 10.657ZM8.37212 20.0932C8.37212 22.1846 7.30491 24.1137 5.51734 25.2537C5.32938 25.3737 5.08657 25.3735 4.89853 25.2537C3.11104 24.1138 2.0439 22.1846 2.0439 20.0932C2.0439 18.0545 3.00705 16.1389 4.89853 14.9326C4.99255 14.8727 5.1003 14.8427 5.20797 14.8427C5.31572 14.8427 5.4234 14.8727 5.51742 14.9326C7.4219 16.1472 8.37212 18.0592 8.37212 20.0932ZM17.9659 23.8679H13.1256C12.8268 23.8679 12.5836 23.6248 12.5836 23.3259V14.7754C12.5836 13.8789 11.8542 13.1495 10.9576 13.1495H7.13696V12.0207H13.4306C13.7295 12.0207 13.9726 12.2638 13.9726 12.5627V20.2257C13.9726 21.1222 14.7019 21.8517 15.5985 21.8517H17.9659V23.8679Z" fill="url(#paint0_linear_9_12)"/>
<path d="M28.2797 12.7231C28.8119 12.7231 29.2449 12.2901 29.2449 11.7579V3.36923C29.2449 2.837 28.8119 2.40405 28.2797 2.40405H19.6447C19.1125 2.40405 18.6796 2.837 18.6796 3.36923V11.7578C18.6796 12.2901 19.1125 12.723 19.6447 12.723H28.2797V12.7231ZM19.7635 3.48804H28.1609V11.6391H19.7635V3.48804Z" fill="url(#paint1_linear_9_12)"/>
<path d="M32.1005 6.84923C33.088 6.84923 33.8913 6.04593 33.8913 5.05856C33.8913 4.07113 33.088 3.26782 32.1005 3.26782C31.1132 3.26782 30.3099 4.07113 30.3099 5.05856C30.3099 6.04593 31.1132 6.84923 32.1005 6.84923ZM32.1005 4.35181C32.4903 4.35181 32.8073 4.66891 32.8073 5.05856C32.8073 5.44822 32.4902 5.76525 32.1005 5.76525C31.7109 5.76525 31.3939 5.44822 31.3939 5.05856C31.3939 4.66891 31.7109 4.35181 32.1005 4.35181Z" fill="url(#paint2_linear_9_12)"/>
<path d="M32.1005 11.8592C33.088 11.8592 33.8913 11.0559 33.8913 10.0686C33.8913 9.08114 33.088 8.27783 32.1005 8.27783C31.1132 8.27783 30.3099 9.08114 30.3099 10.0686C30.3099 11.0559 31.1132 11.8592 32.1005 11.8592ZM32.1005 9.36182C32.4903 9.36182 32.8073 9.67892 32.8073 10.0686C32.8073 10.4582 32.4902 10.7753 32.1005 10.7753C31.7109 10.7753 31.3939 10.4582 31.3939 10.0686C31.3939 9.67892 31.7109 9.36182 32.1005 9.36182Z" fill="url(#paint3_linear_9_12)"/>
<path d="M24.53 9.82317C24.2992 9.82317 24.0934 9.6769 24.0179 9.45851L23.2453 7.22753L23.17 7.37553C23.0775 7.55728 22.8909 7.67167 22.6869 7.67167H21.3399C21.0405 7.67167 20.7979 7.42908 20.7979 7.12968C20.7979 6.83028 21.0405 6.58769 21.3399 6.58769H22.3547L22.8574 5.60003C22.956 5.40629 23.1598 5.29059 23.3777 5.30519C23.5944 5.32015 23.7814 5.46324 23.8525 5.66854L24.5187 7.5924L24.7286 6.95913C24.8022 6.73735 25.0094 6.58762 25.243 6.58762H26.5844C26.8838 6.58762 27.1264 6.83021 27.1264 7.12961C27.1264 7.42901 26.8838 7.6716 26.5844 7.6716H25.6344L25.0445 9.45165C24.9713 9.6722 24.7659 9.82158 24.5336 9.82317C24.5325 9.82317 24.5312 9.82317 24.53 9.82317Z" fill="url(#paint4_linear_9_12)"/>
</g>
<defs>
<linearGradient id="paint0_linear_9_12" x1="18.5" y1="0" x2="18.5" y2="36.9999" gradientUnits="userSpaceOnUse">
<stop stop-color="#27C8DA"/>
<stop offset="1" stop-color="#24BFD0"/>
</linearGradient>
<linearGradient id="paint1_linear_9_12" x1="23.9622" y1="2.40405" x2="23.9622" y2="12.7231" gradientUnits="userSpaceOnUse">
<stop stop-color="#27C8DA"/>
<stop offset="1" stop-color="#24BFD0"/>
</linearGradient>
<linearGradient id="paint2_linear_9_12" x1="32.1006" y1="3.26782" x2="32.1006" y2="6.84923" gradientUnits="userSpaceOnUse">
<stop stop-color="#27C8DA"/>
<stop offset="1" stop-color="#24BFD0"/>
</linearGradient>
<linearGradient id="paint3_linear_9_12" x1="32.1006" y1="8.27783" x2="32.1006" y2="11.8592" gradientUnits="userSpaceOnUse">
<stop stop-color="#27C8DA"/>
<stop offset="1" stop-color="#24BFD0"/>
</linearGradient>
<linearGradient id="paint4_linear_9_12" x1="23.9622" y1="5.30396" x2="23.9622" y2="9.82317" gradientUnits="userSpaceOnUse">
<stop stop-color="#27C8DA"/>
<stop offset="1" stop-color="#24BFD0"/>
</linearGradient>
<clipPath id="clip0_9_12">
<rect width="37" height="37" fill="white"/>
</clipPath>
</defs>
</svg>
